<svg xmlns="http://www.w3.org/2000/svg" width="30" height="30" viewBox="0 0 30 30">
  <g id="call" transform="translate(-10)">
    <g id="Group_32" data-name="Group 32" transform="translate(10)">
      <path id="Path_47" data-name="Path 47" d="M27.593,19.692a17.033,17.033,0,0,1-5.349-.852,2.445,2.445,0,0,0-2.378.5l-3.373,2.546a18.642,18.642,0,0,1-8.381-8.38l2.471-3.285a2.425,2.425,0,0,0,.6-2.457,17.059,17.059,0,0,1-.855-5.358A2.41,2.41,0,0,0,7.917,0H2.407A2.41,2.41,0,0,0,0,2.407,27.624,27.624,0,0,0,27.593,30,2.41,2.41,0,0,0,30,27.593V22.1A2.41,2.41,0,0,0,27.593,19.692Z" fill="#212121"/>
    </g>
  </g>
</svg>
