<svg xmlns="http://www.w3.org/2000/svg" width="26.389" height="30" viewBox="0 0 26.389 30">
  <g id="home_5_" data-name="home (5)" transform="translate(-30.814 0)">
    <g id="Group_386" data-name="Group 386" transform="translate(30.814 0)">
      <path id="Path_3136" data-name="Path 3136" d="M56.865,11.732,44.365.273a1.042,1.042,0,0,0-1.43.021L31.13,11.752a1.042,1.042,0,0,0-.316.748V28.958A1.042,1.042,0,0,0,31.856,30h8.681a1.042,1.042,0,0,0,1.042-1.042V21.319h4.861v7.639A1.042,1.042,0,0,0,47.481,30h8.681A1.041,1.041,0,0,0,57.2,28.958V12.5A1.042,1.042,0,0,0,56.865,11.732ZM55.12,27.916h-6.6V20.278a1.042,1.042,0,0,0-1.042-1.042H40.536a1.042,1.042,0,0,0-1.042,1.042v7.639H32.9V12.94L43.682,2.473,55.12,12.958V27.916Z" transform="translate(-30.814 0)" fill="#212121"/>
    </g>
  </g>
</svg>
