<svg xmlns="http://www.w3.org/2000/svg" viewBox="0 0 1600 1200" style="enable-background:new 0 0 1600 1200" xml:space="preserve">
    <path d="M801 835.4h169.6V1005H801z"/>
    <path style="fill:#6c79d9" d="M970.2 835.4h251.3V1005H970.2z"/>
    <path d="M1221.3 1006.8c-.4 0-.8-.1-1.1-.3L969.3 837.3c-.9-.6-1.2-1.9-.5-2.8.6-.9 1.9-1.2 2.8-.5l250.9 169.2c.9.6 1.2 1.9.5 2.8-.4.5-1.1.8-1.7.8z"/>
    <path d="M970.4 1006.8c-.6 0-1.3-.3-1.7-.9-.6-.9-.4-2.2.5-2.8l250.9-169.2c.9-.6 2.2-.4 2.8.5.6.9.4 2.2-.5 2.8l-250.9 169.2c-.3.3-.7.4-1.1.4z"/>
    <path style="fill:#f696bb" d="M665.4 482.4h173.2v226.3H665.4zM574.9 482.4h90.5v226.3h-90.5z"/>
    <path style="fill:#f9494b" d="m687.8 440-22.4 42.4h173.2L861 440zM552.4 440l22.5 42.4h90.5L642.9 440z"/>
    <path d="M780.8 661.8c-.4 0-.8-.1-1.1-.3-.6-.4-1-1.2-.9-1.9l4.3-31.4-29-12.9c-.7-.3-1.2-1-1.2-1.7 0-.8.4-1.5 1-1.8l83.7-46.5c1-.5 2.2-.2 2.7.8s.2 2.2-.8 2.7l-80.2 44.6 26.7 11.9c.8.4 1.3 1.2 1.2 2.1l-4 28.9 54.3-30.2c1-.5 2.2-.2 2.7.8s.2 2.2-.8 2.7l-57.8 32.1c-.1 0-.5.1-.8.1zM665.4 711.6c-1.1 0-2-.9-2-2V482.4c0-1.1.9-2 2-2s2 .9 2 2v227.2c0 1.1-.9 2-2 2z"/>
    <g>
        <path d="M370.6 1005c-34.4-.9-33.5-57.4-33.5-58v-.2l.2.1c.1 0 13.4 3 34.2 9.5h.1v.1c.1.2 6.6 17 6.6 30.7.1 16.6-7.2 17.8-7.6 17.8zM660.8 863.1c9.2-2.7 18.5-5.1 28.1-5.2 11.7 0 16.2 2.6 17.9 4.4.8.9 2 5 2 5-3.8 28.8-52.7 33.3-53.2 33.3h-.3l5.5-37.5z"/>
        <path d="M230.8 979.9c-1.3 0-2-.1-2-.1h-.2l25.3-166h.2c31.4 2 62.8 6.6 93.4 13.7l.1.1v.1c.1.9 13.9 90 24 128.8l.1.3-.3-.1c-20.8-6.5-34-9.4-34.2-9.5-7.2-1.5-16.1-3.4-25.7-3.4-16.8 0-31.5 6-45.1 18.5-17.3 15.9-30.6 17.6-35.6 17.6z" style="fill:#6c79d9"/>
        <path d="M370.6 1005c14.4-10.4.6-48.8.6-48.8-2.9-8.7-6.4-17.1-10.2-26.1-5.3-12.8-10.8-26-14.7-40.4-10.7-40 .8-61.9.9-62.1l.1-.1h.1c57.5 13.2 101.4 31.6 122.8 41.6-3.6-6.9-41.9-79.6-68.9-128.9l-.1-.2L575 709.4v.2c.2.8 15.9 79.9 23.6 140.7 6.1 48.2 9.8 107.2-15.7 136.2-10.8 12.3-26.5 18.5-46.5 18.5H370.6z" style="fill:#98d8f4"/>
        <path d="M245.8 870.6c-1.1 0-2-.8-2-1.9 0-1.1.8-2 1.9-2.1 29-1.1 53.2-21.4 56.3-47.2.1-1.1 1.1-1.9 2.2-1.7 1.1.1 1.9 1.1 1.7 2.2-3.2 27.7-29.1 49.5-60.1 50.7.1 0 0 0 0 0zM540.8 938.2c-1.3 0-2.5-.1-3.8-.3l-185.5-30.2c-1.1-.2-1.8-1.2-1.7-2.3.2-1.1 1.2-1.8 2.3-1.7l185.5 30.2c4.1.6 8.4 0 12.2-1.8 4.8-2.4 8.4-6.5 10.2-11.6 1.7-5.1 1.4-10.6-1-15.5l-77.4-157.1c-.5-1-.1-2.2.9-2.7s2.2-.1 2.7.9l77.4 157.1c2.9 5.8 3.3 12.4 1.2 18.5-2.1 6.2-6.4 11.1-12.2 14-3.5 1.6-7.1 2.5-10.8 2.5z"/>
        <path d="m377.6 648.8.1-.3c2-6.9 4.5-15.1 8-26.6v-.1H509l3 27H377.6zM533.4 1005v-.2c-3.5-30.8-4-62.1-1.6-93v-.1l133.9-74.6-4.5 26.1-5.4 37.2c-1.9 18.9-4.5 44.9 22.7 68.7 11.6 10.2 16.9 19.3 19.2 25.2 2.5 6.4 2.3 10.3 2.3 10.4v.2l-166.6.1z" style="fill:#6c79d9"/>
        <path d="M542.1 912.8c-6.3 0-10.1-.7-10.1-.7h-.2v-.2c6.6-84.2 33.3-141.1 35.5-145.7H448.1c-28.3 0-50.3-8-63.7-23.1-12.8-14.5-17.7-34.8-14.5-60.2 1.1-9 3.5-19.3 7.8-34.3v-.1h134.1c.6 0 63.4 1 96.4 4.9 26.8 3.2 43.8 8.3 56.7 17.2 15.6 10.7 24.9 26.9 29.1 50.9 5.6 31.5 14 113.6 14.8 145.8-8.4-17.6-47.6-3.8-47.6-3.8-14.7 5.9-19.6 8.7-31 15.5-7 4.2-16.5 9.9-32.7 18.8-22.2 12.4-42.4 15-55.4 15z" style="fill:#98d8f4"/>
        <path d="M532 913.9h-.2c-1.1-.1-1.9-1-1.8-2.2 6.9-87.7 35.5-146.1 35.8-146.6.5-1 1.7-1.4 2.7-.9s1.4 1.7.9 2.7c-.3.6-28.6 58.3-35.4 145.2-.1 1-1 1.8-2 1.8z"/>
        <path d="M437.2 483.2c-10.6 0-19.2-8.6-19.2-19.2s8.6-19.2 19.2-19.2 19.2 8.6 19.2 19.2-8.6 19.2-19.2 19.2z" style="fill:#fff"/>
        <path d="M437.2 446.8c9.5 0 17.2 7.7 17.2 17.2s-7.7 17.2-17.2 17.2S420 473.5 420 464s7.7-17.2 17.2-17.2m0-4c-11.7 0-21.2 9.5-21.2 21.2s9.5 21.2 21.2 21.2 21.2-9.5 21.2-21.2-9.4-21.2-21.2-21.2z"/>
        <path d="M434.6 469.2c-.6 0-1.3-.3-1.7-.9-.6-.9-.4-2.2.6-2.8l12.5-8.3c.9-.6 2.2-.4 2.8.6.6.9.4 2.2-.6 2.8l-12.5 8.3c-.3.2-.7.3-1.1.3z"/>
        <path d="M475.5 482.7c-9 0-17.5-5.6-24.6-16.2-25.2-37.3-21.5-54.1-7.4-69 .1-.1 17-17 37.8-17 3.9 0 7.7.6 11.3 1.7 14.6 4.5 21.8 29.8 16.7 59-4.2 24.4-18.1 41.5-33.8 41.5z" style="fill:#fff"/>
        <path d="M481.3 382.5c3.7 0 7.3.5 10.7 1.6 13.4 4.1 20.1 29 15.3 56.7-2 11.8-6.5 22.2-12.6 29.5-5.7 6.7-12.5 10.4-19.2 10.4-8.3 0-16.2-5.3-23-15.3-24.5-36.2-21.1-52.3-7.6-66.5.6-.7 16.6-16.4 36.4-16.4m0-4c-22 0-39.3 17.6-39.3 17.6-15.9 16.8-17.2 35.4 7.2 71.5 8 11.9 17.3 17.1 26.3 17.1 16.2 0 31.3-17.1 35.8-43.2 5.3-30.7-2.8-56.5-18.1-61.2-4.1-1.3-8.1-1.8-11.9-1.8z"/>
        <path d="M442 396.1c-13.8 14.6-16.6 30.6-1.1 58.1 26.3-17.1 17.5-56.5 17.5-56.5 27.5 13.8 52.7 7.6 52.7 7.6-2.9-13.1-9.3-22.4-17.9-25-27.4-8.5-51.2 15.8-51.2 15.8zM492.3 441.9c-.6 0-1.2-.3-1.6-.8-.7-.9-.5-2.1.4-2.8.9-.7 1.7-1.7 2-2.7.8-2.2-.7-8.3-2.3-13.9-.3-1.1.3-2.2 1.4-2.5s2.2.3 2.5 1.4c2.6 9.3 3.2 13.6 2.3 16.3-.6 1.8-1.8 3.5-3.4 4.6-.5.3-.9.4-1.3.4z"/>
        <path d="M479.4 430.7c-1 0-1.8-.7-2-1.7l-.3-2.2c-.1-1.1.6-2.1 1.7-2.3 1.1-.1 2.1.6 2.3 1.7l.3 2.2c.1 1.1-.6 2.1-1.7 2.3h-.3zM502.4 421.6c-1 0-1.8-.7-2-1.7l-.3-2.1c-.2-1.1.6-2.1 1.7-2.3 1.1-.2 2.1.6 2.3 1.7l.3 2.1c.2 1.1-.6 2.1-1.7 2.3h-.3zM485.9 454.1c-4.3 0-8.1-3-9-7.3-.2-1.1.5-2.1 1.5-2.4 1.1-.2 2.1.5 2.4 1.5.6 2.8 3.2 4.5 6 4.1h.1c.2-.1.5-.1.7-.2 1-.5 2.2-.1 2.7.9s.1 2.2-.9 2.7c-.5.3-1.1.4-1.5.5H487.6c-.6.2-1.2.2-1.7.2z"/>
        <path d="M540.9 664.8c-39.7 0-60.9-41.8-61.8-43.6-6.2-12-12.1-24.9-17.3-38.4L454 558l68.9-33.9 13.7 25.1c6.9 14.6 10.8 23.5 11.4 25 .2.5.6.9 1.1 1.1.2.1.5.1.7.1.3 0 .6-.1.8-.2l2.2-1c112.4-51.8 133.5-59.9 136-60.1h.3c1.2.3 1.9 1 2.3 1.9.8 2.1-.3 5.4-3.1 9.2-.5.7-.5 1.6-.1 2.3.4.6 1 .9 1.7.9.1 0 .3 0 .4-.1l.8-.2c14.9-3.4 26.1-5.4 33.4-5.8h1c3.2 0 5.5.8 6.9 2.4 1.8 2.1 1.5 4.9 1.4 5.4-.1.9.4 1.8 1.3 2.1 2.2.9 3.5 2 3.9 3.5.7 2.4-1.1 5.6-2.2 6.9-.3.4-.5 1-.4 1.5s.4 1 .8 1.3c1.1.8 1.7 2 1.7 3.3-.2 2.4-2.4 5-6 6.7-3.3 1.6-8.8 3.1-14.7 4.7-4.2 1-15.1 4.2-19 5.4-.9.3-1.5 1.2-1.4 2.2.2 1 1 1.7 2 1.7h5.6c25.1 0 27.4 3.1 27.5 4 .4 3.7-3.5 4.7-14.8 6.5l-.6.1c-11.3 1.8-26.8 4.3-43.4 13.7-12 6.8-25.1 16-37.8 24.9-28.6 20-60.9 42.7-89.5 45.7-1.7.4-3.8.5-5.9.5z" style="fill:#fff"/>
        <path d="M689 516.1c.5.2.6.5.7.6.4 1-.1 3.5-2.9 7.2-1 1.3-1.1 3.2-.2 4.6.7 1.2 2 1.8 3.4 1.8.3 0 .6 0 .9-.1l.8-.2c14.8-3.4 25.9-5.3 33-5.7h1c3.9 0 5 1.3 5.4 1.7 1.2 1.5 1 3.7 1 3.9-.2 1.8.8 3.6 2.5 4.2 1.5.6 2.5 1.3 2.7 2.1.4 1.5-.9 3.9-1.8 5.2-.7.9-1 2-.8 3 .2 1.1.8 2 1.6 2.7.6.4.8.9.8 1.5-.1 1.4-1.6 3.5-4.8 5h-.1c-3.1 1.5-8.7 3-14.2 4.5-4.3 1.1-15.3 4.2-19.1 5.5-1.9.6-3 2.5-2.7 4.4s2 3.4 4 3.4h5.6c4.7 0 10.8.1 16.1.6 6.6.7 8.8 1.7 9.5 2.2 0 .4-.3.8-1.6 1.3-2.4 1-6.7 1.7-11.6 2.5h-.2l-.4.1c-11.4 1.8-27.1 4.4-44.1 13.9-12.1 6.9-25.2 16.1-37.9 25-28.3 19.9-60.4 42.4-88.5 45.4-2.1.2-4.1.3-6.1.3-38.5 0-59.2-40.7-60-42.5v-.1c-6.2-11.9-12-24.7-17.2-38.1l-7.2-23.1 65.7-32.3 12.7 23.3c6.8 14.5 10.8 23.4 11.4 24.8.4 1 1.2 1.8 2.2 2.2.5.2 1 .3 1.5.3.6 0 1.1-.1 1.7-.4l2.2-1c108.3-49.8 131.3-58.9 135-59.7m.1-4.1c-.1.1-.1.1-.2.1-6 0-116.4 50.9-139 61.3-.7-1.7-4.8-10.9-11.5-25.1l-14.6-26.8-72.2 35.5 8.3 26.5c5.1 13.1 10.9 26.1 17.4 38.6.2.4 22 44.7 63.6 44.7 2.1 0 4.3-.1 6.5-.3 29.1-3.1 61.6-25.9 90.4-46.1 13.4-9.4 26-18.2 37.6-24.8 16.5-9.3 31.9-11.7 43.1-13.5 10.8-1.7 17.4-2.7 16.7-8.7-.6-5.5-18.9-5.8-29.5-5.8h-5.6c4-1.3 14.8-4.4 18.9-5.4 6-1.6 11.6-3.1 15-4.8 4.2-2 6.9-5.2 7.1-8.4.1-2-.8-3.8-2.5-5 .7-.9 3.5-5 2.5-8.7-.6-2.1-2.3-3.7-5.1-4.8.1-.8.4-4.3-1.9-7-1.8-2.1-4.6-3.1-8.4-3.1h-1.1c-11.8.6-31.1 5.2-34.6 6 3.3-4.4 4.5-8.3 3.4-11.1-.7-1.8-2.2-2.9-4.3-3.3z"/>
        <path d="M385.8 622.3c-11.9-9.2-18.9-23.6-18.8-38.6 0-16.9 9.1-36.8 27.2-59.2l1.1-1.4c23.2-28.7 45.1-55.9 72-55.9.9 0 1.9 0 2.8.1 19.3 1.3 33.1 11.1 43.5 30.6 9.5 18 17 33.9 23 46.7l1.8 3.8-78.5 34.7c5.1 13.1 10.9 26.5 17.3 38.9l.2.3h-91.6z" style="fill:#6c79d9"/>
        <path d="M479.4 624.1H386c-1.1 0-2-.9-2-2s.9-2 2-2h93.4c1.1 0 2 .9 2 2s-.9 2-2 2zM500.1 650.6h-122c-1.1 0-2-.9-2-2s.9-2 2-2h122c1.1 0 2 .9 2 2s-.9 2-2 2zM462.2 585.6c-.8 0-1.5-.5-1.9-1.3l-1.7-4.1c-3.5-8.8-8.4-20.8-10.7-27.3-.4-1 .2-2.2 1.2-2.6 1-.4 2.2.2 2.6 1.2 2.3 6.4 7.1 18.4 10.6 27.2l1.7 4.1c.4 1-.1 2.2-1.1 2.6-.2.2-.5.2-.7.2z"/>
        <path d="M394.1 650.6h-.3c-1.1-.2-1.8-1.2-1.6-2.3l4.6-26.5c.2-1.1 1.2-1.8 2.3-1.6 1.1.2 1.8 1.2 1.6 2.3l-4.6 26.5c-.2.9-1 1.6-2 1.6zM420.7 650.6h-.1c-1.1-.1-1.9-1-1.9-2.1l1.7-26.5c.1-1.1 1-1.9 2.1-1.9 1.1.1 1.9 1 1.9 2.1l-1.7 26.5c-.1 1.1-1 1.9-2 1.9zM446.3 650.6c-1.2 0-2-.9-2-2.1l.7-26.5c0-1.1.9-2 2.1-1.9 1.1 0 2 .9 1.9 2.1l-.7 26.5c0 1-.9 1.9-2 1.9zM473.8 650.6c-1.1 0-1.9-.8-2-1.9l-1.3-26.5c-.1-1.1.8-2 1.9-2.1 1.1 0 2 .8 2.1 1.9l1.3 26.5c.1 1.1-.8 2-2 2.1.1 0 0 0 0 0zM594.5 768H448.1c-14.1 0-26.7-1.9-37.5-5.7-1-.4-1.6-1.5-1.2-2.6.4-1 1.5-1.6 2.6-1.2 10.3 3.6 22.5 5.5 36.1 5.5h146.4c1.1 0 2 .9 2 2s-.9 2-2 2zM586.1 1006.8c-1 0-1.8-.7-2-1.7-4.5-28.6-27.6-50.2-53.6-50.2-1.1 0-2-.9-2-2s.9-2 2-2c28 0 52.8 23 57.6 53.6.2 1.1-.6 2.1-1.7 2.3h-.3z"/>
        <path d="M597.6 899.5h-.4c-1.1-.2-1.8-1.3-1.5-2.4l34.2-156.3c.4-1.6.6-3.5.6-5.3 0-13.7-11.2-24.9-24.9-24.9H452c-1.9 0-3.9-.2-5.8-.6-14.2-3.4-23-17.5-19.8-31.6l6.9-30.2c.2-1.1 1.3-1.8 2.4-1.5 1.1.2 1.8 1.3 1.5 2.4l-6.9 30.2c-2.7 11.9 4.8 24 16.8 26.8 1.6.4 3.3.5 4.9.5h153.5c15.9 0 28.9 13 28.9 28.9 0 2.1-.2 4.2-.6 6.1l-34.2 156.3c-.3 1-1.1 1.6-2 1.6zM496.1 882.9c-.3 0-.6-.1-.9-.2-7.7-3.9-25-11.2-25.2-11.2-1-.4-1.5-1.6-1.1-2.6s1.6-1.5 2.6-1.1c.7.3 17.6 7.4 25.4 11.4 1 .5 1.4 1.7.9 2.7-.3.6-1 1-1.7 1zM628 943.8c-.9 0-1.8-.7-2-1.6-.2-1.1.5-2.1 1.6-2.3l28.8-5.6c1.1-.2 2.1.5 2.3 1.6s-.5 2.1-1.6 2.3l-28.8 5.6h-.3zM643.7 974.3c-.6 0-1.2-.3-1.6-.8-.6-.9-.4-2.1.5-2.8l22.6-16.1c.9-.6 2.1-.4 2.8.5.6.9.4 2.1-.5 2.8L644.9 974c-.4.2-.8.3-1.2.3z"/>
        <path d="M653.9 938.3c-.8 0-1.6-.5-1.9-1.3-.3-.9 0-1.9.8-2.4l75.2-48.7c1.7-1 3-1.7 4.4-2.2 11.4-4.2 24.2 1.7 28.4 13.2.6 1.8 1 3.3 1.2 4.7.8 5.9-.8 11.7-4.4 16.4-3.6 4.7-8.8 7.7-14.7 8.5l-88.8 11.7c0 .1-.1.1-.2.1zm86.1-51.9c-2.1 0-4.2.4-6.2 1.1-1.1.4-2.2 1-3.6 1.8l-67.7 43.9 80-10.5c4.8-.7 9.1-3.1 12.1-7s4.2-8.6 3.6-13.5c-.2-1.2-.5-2.4-1-3.9-2.8-7.4-9.8-11.9-17.2-11.9z"/>
        <path d="M721.5 977.3c-.9 0-1.8-.7-2-1.6-7.5-39.1-64.9-37.2-65.5-37.2-1.1 0-2-.8-2.1-1.9 0-1.1.8-2 1.9-2.1.6 0 15.4-.6 31.4 4 21.6 6.2 34.7 18.8 38.1 36.4.2 1.1-.5 2.1-1.6 2.3 0 .1-.1.1-.2.1zM316.4 1056.5h-1.3c-5.8-.3-11.3-2.8-15.2-7.2-4-4.4-6-10.1-5.7-16.1l4.7-89.5c0-.9.7-1.7 1.7-1.9.9-.2 1.8.3 2.2 1.2l34.2 82.8c.6 1.6 1 3.1 1.3 4.7 1 5.9-.3 11.8-3.7 16.6-3.4 4.8-8.5 8-14.4 9.1-1.3.2-2.5.3-3.8.3zm-14-103.8-4.2 80.7c-.3 4.9 1.4 9.5 4.7 13.2 3.3 3.6 7.7 5.7 12.5 5.9 1.4.1 2.7 0 4-.3 4.9-.8 9-3.5 11.8-7.4 2.8-4 3.9-8.8 3.1-13.6-.3-1.3-.6-2.6-1.1-4l-30.8-74.5z"/>
        <path d="M250.3 1005.1c-1.1 0-2-.9-2-2s.9-2 2-2c38.4-.2 47.7-53.2 48.4-57.3l-3.3-27.2c-.1-1.1.7-2.1 1.7-2.2 1.1-.1 2.1.7 2.2 1.7l3.3 27.5v.5c-.1.6-2.2 15.3-9.6 30.2-9.9 20.1-24.7 30.7-42.7 30.8z"/>
        <path d="M282.9 952.5c-.7 0-1.3-.3-1.7-.9l-14-22.4c-.6-.9-.3-2.2.6-2.8s2.2-.3 2.8.6l14 22.4c.6.9.3 2.2-.6 2.8-.4.2-.7.3-1.1.3z"/>
        <g>
            <path d="M666.4 537.5c-.8 0-1.6-.5-1.9-1.4-.3-1 .2-2.2 1.3-2.5 11.7-3.9 24.2-7.1 24.3-7.1 1.1-.3 2.2.4 2.4 1.4.3 1.1-.4 2.2-1.4 2.4-.1 0-12.5 3.2-24.1 7.1-.2.1-.4.1-.6.1z"/>
        </g>
        <g>
            <path d="M682.1 546.4c-.9 0-1.7-.6-1.9-1.4-.3-1.1.3-2.2 1.4-2.5 23.5-6.8 51.1-12.8 51.3-12.8 1.1-.2 2.1.5 2.4 1.5.2 1.1-.5 2.1-1.5 2.4-.3.1-27.7 6-51.1 12.8h-.6z"/>
        </g>
        <g>
            <path d="M687 559.1c-.8 0-1.6-.5-1.9-1.4-.3-1 .2-2.2 1.3-2.5 16.2-5.4 32.8-9.7 49.2-12.9 1.1-.2 2.1.5 2.3 1.6s-.5 2.1-1.6 2.3c-16.2 3.1-32.6 7.4-48.6 12.7-.3.2-.5.2-.7.2z"/>
        </g>
    </g>
    <g>
        <path d="M875.9 274.7h139.7c19.6 0 35.4 15.9 35.4 35.4 0 19.6-15.9 35.4-35.4 35.4H875.9c-19.6 0-35.4-15.9-35.4-35.4s15.9-35.4 35.4-35.4zM875.9 345.5h139.7c19.6 0 35.4 15.9 35.4 35.4 0 19.6-15.9 35.4-35.4 35.4H875.9c-19.6 0-35.4-15.9-35.4-35.4 0-19.6 15.9-35.4 35.4-35.4z" style="fill:#6c79d9"/>
        <path d="M945.8 418.4c-1.1 0-2-.9-2-2V274.7c0-1.1.9-2 2-2s2 .9 2 2v141.7c0 1.1-.9 2-2 2z"/>
        <path d="M945.6 278.5h-.2c-.9-.1-1.7-.8-1.8-1.7l-13.1-88.6c-.3-1.5-.4-3-.2-5 1-12.2 11.7-21.3 23.8-20.5 1.5.1 3.1.4 4.8.9 5.7 1.7 10.4 5.5 13.1 10.7 2.8 5.2 3.4 11.3 1.6 17L947.4 277c-.1.9-.9 1.5-1.8 1.5zm6.9-111.8c-9.4 0-17.5 7.3-18.3 16.8-.1 1.6-.1 2.8.2 3.9v.1l11.8 79.8 23.6-77.2c1.4-4.7 1-9.6-1.3-13.9-2.3-4.3-6.1-7.4-10.7-8.8-1.4-.4-2.7-.6-4-.7-.4.1-.8 0-1.3 0z"/>
        <path d="M945.7 277.1c-.3 0-.6-.1-.9-.2l-63-31.3c-1-.5-2-1.2-3.2-2.1-7.6-6.2-8.8-17.4-2.7-25.1.9-1.3 2-2.2 2.9-2.9 3.8-2.9 8.4-4.2 13.2-3.7 4.7.6 9 3 11.9 6.7l43.4 55.3c.6.7.6 1.8 0 2.5-.4.5-1 .8-1.6.8zm-55.9-61.4c-3.1 0-6.1 1-8.5 3-.7.5-1.5 1.2-2.1 2.1l-.1.1c-4.8 6-3.9 14.7 2 19.5 1 .7 1.8 1.3 2.5 1.7l55.1 27.4-38-48.5c-2.3-2.9-5.6-4.8-9.3-5.2-.5 0-1.1-.1-1.6-.1z"/>
        <path d="M946.2 277c-.5 0-.9-.2-1.3-.5-.8-.7-.9-2-.2-2.8.4-.5 10.2-11.6 24.6-20.1 19.3-11.4 37.6-12.3 52.7-2.5.9.6 1.2 1.8.6 2.8-.6.9-1.8 1.2-2.8.6-33.6-21.6-71.7 21.4-72.1 21.8-.4.5-.9.7-1.5.7z"/>
    </g>
    <g>
        <path d="m1022.4 835.8-7.7-41.3.1-.1c18.5-21.2 41.4-29.6 56.6-30.5h.2v.2c-1 23.9-3.9 48-8.5 71.5v.2h-40.7zM949.7 731.5c-.5 0-51-2.5-51-31 6.8-12.5 26-14.4 36.8-14.4 4.1 0 6.9.3 7 .3h.1v.1s.7 3.6 1.1 5.6c2.2 10.9 5 26.5 6.1 39.1v.2l-.1.1zM1308.7 907.4c-.1-.3-5.9-27.1-11.4-44.9v-.2l.1-.1c.1-.1 14.6-8.3 29.2-10.2 1.9-.3 3.8-.4 5.5-.4 13.9 0 17.3 8.3 17.4 8.4.1.2 5.4 21.1-40.4 47.5l-.2.1-.2-.2zM1250.6 443.9c.2-.2 2.8-2.8 17.8-13.9 6.6-4.9 12.9-7.4 18.6-7.4 6.6 0 10.1 3.4 10.2 3.5s4 8.1 1.8 19.5c-3.7 19-21.2 32.7-35.3 40.8l-.2.1-12.9-42.6z"/>
        <path d="M1156.2 1005v-.2c0-.1-.8-13.1 14.8-29.7 13.7-14.6 26.9-33.5 20.6-63.8v-.1l104.6-53.3.1.2c5.8 17.5 12.7 48.9 12.8 49.2 0 .1 2.1 10.6 4.5 25.8v.2h-.2c-15.3 3.7-52.7 18.1-70.3 71.5v.1l-86.9.1z" style="fill:#f9494b"/>
        <path d="m1313.6 933.1-.2-.1c-18.6 4.5-34.7 14.7-47.8 30.3l-.1.1 13.8 41.6v-.1h39.6v-.2c0-18.2-2.1-51.4-5.3-71.6z"/>
        <path d="M1197.2 911.9c-3.5 0-5.5-.3-5.5-.3h-.1v-.1c-2.5-12.3-11.1-33.2-22-59.5-13.9-33.8-31.3-75.9-41.9-115.6-9.7-36.1-14.2-92-16.4-132.5-2.3-43.9-2.3-79.7-2.3-80.1v-.2l141.1 11.8v.2c-.2 20.5-.8 38.8-1.5 56.6-2.5 70.8-4.1 117.6 29 161.7 11.8 15.7 21.9 28.4 30.8 39.5 22.1 27.6 36.1 48.9 41.1 66.7.1.2-10-18.6-52.2 2.7-13.1 7.2-22.4 13.6-31.4 19.8-10 6.9-19.4 13.4-32.7 20-16 8.1-29.4 9.3-36 9.3z" style="fill:#f696bb"/>
        <path d="M1216.4 939.9h-24.1c-1.1 0-2-.9-2-2s.9-2 2-2h24.1c1.1 0 2 .9 2 2s-.9 2-2 2zM1208.5 966.5c-.3 0-.6-.1-.8-.2l-21.9-10.1c-1-.5-1.4-1.7-1-2.7.5-1 1.7-1.4 2.7-1l21.9 10.1c1 .5 1.4 1.7 1 2.7-.4.8-1.1 1.2-1.9 1.2zM1239.1 901.4c-.9 0-1.7-.6-1.9-1.5l-12.9-53c-.1-.5 0-1.1.2-1.5.3-.5.7-.8 1.3-.9L1283 832l-57.3-13.1c-.6-.1-1.2-.6-1.4-1.2s-.2-1.3.2-1.8l27.4-43.7-50.3 27.8c-.5.3-1.2.3-1.8.1-.6-.2-1-.7-1.1-1.3l-16.1-63.5-9.5 76.1c-.1.6-.4 1.1-.9 1.4-.5.3-1.1.4-1.7.3l-20.6-5.9c-1.1-.3-1.7-1.4-1.4-2.5.3-1.1 1.4-1.7 2.5-1.4l18.4 5.3 10.5-84.3c.1-1 .9-1.7 1.9-1.7 1-.1 1.8.6 2.1 1.5l18.1 71.3 54.8-30.2c.8-.4 1.8-.3 2.4.4s.7 1.7.2 2.4l-30 47.8 63.3 14.5c.9.2 1.6 1 1.6 2s-.7 1.7-1.6 1.9l-64 14 12.4 51c.3 1.1-.4 2.2-1.5 2.4-.2-.2-.3-.2-.5-.2zM1226.1 907.6c-.6 0-1.2-.3-1.6-.7l-27.8-34.6-11.4 15.4c-.7.9-1.9 1.1-2.8.4-.9-.7-1.1-1.9-.4-2.8l12.9-17.5c.4-.5.9-.8 1.6-.8.6 0 1.2.3 1.6.7l29.4 36.6c.7.9.6 2.1-.3 2.8-.3.4-.8.5-1.2.5zM1129.3 743.5c-.5 0-.9-.2-1.3-.5-.8-.7-1-2-.3-2.8l39.5-47.6-47 6.1c-1.1.1-2.1-.6-2.2-1.7-.1-1.1.6-2.1 1.7-2.2l52.1-6.8c.8-.1 1.6.3 2 1s.3 1.6-.2 2.2l-42.8 51.5c-.4.6-.9.8-1.5.8zM1221.3 726.4h-.3c-.9-.1-1.6-.9-1.7-1.8l-5.8-67.2-71.1-3.8c-.9 0-1.7-.7-1.9-1.6-.2-.9.3-1.8 1.1-2.2l65.1-30.2-24.2-20.6c-.8-.7-.9-2-.2-2.8s2-.9 2.8-.2l26.6 22.6c.5.4.8 1.1.7 1.8s-.5 1.3-1.1 1.5l-60.6 28.1 64.8 3.5c1 .1 1.8.8 1.9 1.8l5.2 60.8 23.5-55.6c.4-1 1.6-1.5 2.6-1.1s1.5 1.6 1.1 2.6l-26.6 63c-.4.9-1.1 1.4-1.9 1.4z"/>
        <path d="M896.4 835.8v-.2c0-.1-.7-15.1 26.6-35.6 27-20.3 28.5-46.1 26.5-68.7-1.1-12.6-4-28.2-6.1-39.1-.4-2.1-.8-4-1.1-5.6v-.1l57.7-61.8 72.1 113.4v.1c.1 8.5-.1 17.2-.5 25.9v.2h-.2c-13.7.8-29.2 7.1-42.3 17.2-16.7 12.9-29.5 31.6-36.9 54.2v.1h-95.8z" style="fill:#f9494b"/>
        <circle cx="1236.3" cy="264.6" r="38.6"/>
        <circle cx="1312.5" cy="264.6" r="38.6"/>
        <path d="M1199.1 313c-10.6 0-19.2-8.6-19.2-19.2s8.6-19.2 19.2-19.2 19.2 8.6 19.2 19.2-8.6 19.2-19.2 19.2z" style="fill:#fff"/>
        <path d="M1199.1 276.6c9.5 0 17.2 7.7 17.2 17.2s-7.7 17.2-17.2 17.2-17.2-7.7-17.2-17.2 7.7-17.2 17.2-17.2m0-4c-11.7 0-21.2 9.5-21.2 21.2s9.5 21.2 21.2 21.2 21.2-9.5 21.2-21.2-9.5-21.2-21.2-21.2z"/>
        <path d="M1201.8 299c-.4 0-.8-.1-1.1-.3l-12.6-8.3c-.9-.6-1.2-1.8-.6-2.8.6-.9 1.8-1.2 2.8-.6l12.6 8.3c.9.6 1.2 1.8.6 2.8-.4.6-1.1.9-1.7.9z"/>
        <path d="M1160.9 312.5c-15.7 0-29.6-17.1-33.8-41.5-5-29.1 2.2-54.4 16.7-59 3.6-1.1 7.4-1.7 11.3-1.7 18.4 0 33.5 12.9 37.7 16.9l.2.2c8.2 8.7 11.6 17 10.9 26.9-.7 11.2-6.6 24.5-18.4 42-7.1 10.6-15.6 16.2-24.6 16.2z" style="fill:#fff"/>
        <path d="M1155.1 212.3c17.7 0 32.3 12.5 36.3 16.3l.2.2c13.4 14.2 16.7 30.3-7.7 66.4-6.7 10-14.7 15.3-23 15.3-6.7 0-13.6-3.7-19.2-10.4-6.1-7.2-10.6-17.7-12.6-29.5-2.4-14.1-2-27.8 1.2-38.4 3-9.8 8-16.3 14.2-18.3 3.3-1.1 6.9-1.6 10.6-1.6m0-4c-3.8 0-7.8.5-11.9 1.8-15.4 4.8-23.4 30.6-18.1 61.2 4.5 26.1 19.6 43.2 35.8 43.2 9 0 18.3-5.2 26.3-17.1 24.4-36.1 23.1-54.7 7.2-71.5-.1 0-17.3-17.6-39.3-17.6z"/>
        <path d="M1194.3 225.9c13.8 14.6 16.6 30.6 1.1 58.1-26.3-17.1-17.5-56.5-17.5-56.5-27.5 13.8-52.7 7.6-52.7 7.6 2.9-13.1 9.3-22.4 17.9-25 27.4-8.5 51.2 15.8 51.2 15.8zM1144.1 271.7c-.4 0-.8-.1-1.2-.4-1.6-1.2-2.8-2.8-3.4-4.7-.9-2.7-.4-7 2.3-16.3.3-1.1 1.4-1.7 2.5-1.4s1.7 1.4 1.4 2.5c-1.6 5.6-3.1 11.7-2.3 13.9.4 1.1 1.1 2.1 2 2.8.9.7 1.1 1.9.4 2.8-.5.5-1.1.8-1.7.8z"/>
        <path d="M1156.9 260.4h-.3c-1.1-.2-1.9-1.2-1.7-2.3l.3-2.1c.2-1.1 1.2-1.9 2.3-1.7 1.1.2 1.9 1.2 1.7 2.3l-.3 2.1c-.2 1-1 1.7-2 1.7zM1134 251.4h-.3c-1.1-.1-1.9-1.2-1.7-2.3l.3-2.2c.1-1.1 1.2-1.9 2.3-1.7 1.1.1 1.9 1.2 1.7 2.3l-.3 2.2c-.2 1-1 1.7-2 1.7zM1150.4 283.9c-.6 0-1.1 0-1.7-.2H1148.4c-.4-.1-1-.2-1.5-.5-1-.5-1.4-1.7-.9-2.7s1.7-1.4 2.7-.9c.1.1.4.1.7.2h.1c2.8.5 5.5-1.3 6-4.1.2-1.1 1.3-1.8 2.4-1.5 1.1.2 1.8 1.3 1.5 2.4-.9 4.4-4.7 7.3-9 7.3z"/>
        <path d="M1269.8 513.7c-1.9-15.5-7.4-33-18.3-67.9-1.4-4.6-2.9-9.4-4.5-14.6l-.1-.2-118.2 39.4c-.6.1-65.4 5-110.2 12.8-24.8 4.4-40.8 10-53.5 18.9-13.8 9.6-23.7 23.3-32.2 44.2-9.5 23.4-18.2 69.7-26 110.6-2.6 13.9-7 33.4-8.1 43.6 10.6-16.4 38.7-14.4 44.1-13.7 25.2 4.9 43.9 16.6 60.3 27 8.4 5.3 16.5 10.4 24.3 13.7 22.8 9.7 35.5 11.1 41 11.1 2.4 0 3.5-.2 3.5-.2h.2v-.2c-.7-80.8-21.4-136.8-23.1-141.2h142.6c28.3 0 50.3-8 63.7-23.1 12.8-14.5 17.7-34.7 14.5-60.2z" style="fill:#f696bb"/>
        <path d="M1096.3 497.6c-1.5 0-3.1-.1-4.8-.2-33.2-2.8-64.2-34.7-91.5-62.8l-.3-.3c-11.3-11.6-21.9-22.5-32.2-31-15-12.4-30.4-17.4-41.6-21l-.2-.1c-10.9-3.5-14.6-5-13.6-8.5.2-.8 2.3-2 8.8-2 7.3 0 17.3 1.9 20.6 2.5.4.1.7.1.9.2h.3c.8 0 1.6-.5 1.9-1.4.3-.9-.1-2-1-2.4l-1-.5-.5-.2c-5.4-2.6-22-10.6-26.8-13.9-3.2-2.4-5-5.3-4.7-7.7.2-1.4 1-2.4 2.2-2.9.5-.2.9-.6 1.1-1.1.2-.5.2-1.1-.1-1.6-.4-.7-2.2-4.6-.9-7.2.5-.9 1.4-2.2 4.5-2.8.9-.2 1.5-.9 1.6-1.8.2-2 1.2-6.6 7-6.6 1 0 2.2.2 3.6.5 12.5 2.9 32.4 11.9 32.6 12 .3.1.5.2.8.2.5 0 1.1-.2 1.5-.6.6-.6.7-1.5.3-2.3-2.1-4.1-2.7-7.6-1.5-9.5.8-1.2 2-1.5 2.9-1.5 6.5 2.1 83.5 55.5 120 81.2.3.2.7.4 1.2.4.2 0 .4 0 .5-.1.6-.2 1.1-.6 1.3-1.1.6-1.5 4.2-9.6 11.6-25.3l14.4-25.9 71.8 34.2-7 23.9c-14.4 37.2-33.3 61.4-33.7 61.9l-.2.2c.1-.1-19.6 25.1-49.8 25.1z" style="fill:#fff"/>
        <path d="M966 324.8c9 4 85.1 56.9 119.2 80.8.7.5 1.5.7 2.3.7.4 0 .7 0 1.1-.2 1.2-.3 2.1-1.2 2.6-2.3.6-1.5 4.2-9.6 11.6-25.1l13.5-24.2 68.6 32.7-6.5 22.2c-14.2 36.8-32.8 60.6-33.4 61.3l-.2.2c-.2.3-5.2 6.6-13.8 12.7-11.1 7.9-22.7 11.9-34.7 11.9-1.4 0-3-.1-4.6-.2-32.5-2.8-63.2-34.4-90.2-62.2l-.3-.3c-11.3-11.6-22-22.6-32.4-31.1-15.3-12.6-30.9-17.7-42.3-21.4h-.2c-4.7-1.5-8.8-2.8-11-4.2-1.2-.7-1.4-1.1-1.3-1.5.5-.3 2.3-.9 6.9-.9 7.1 0 17 1.9 20.2 2.5.4.1.7.1.9.2.2 0 .5.1.7.1 1.7 0 3.2-1.1 3.8-2.7.6-1.9-.2-3.9-2-4.8l-1-.5h-.1l-.5-.2c-5.4-2.6-21.8-10.5-26.4-13.7-2.6-1.9-4-4.1-3.9-5.8.1-.9.6-1.2 1-1.3 1-.4 1.8-1.3 2.2-2.3s.3-2.2-.2-3.2c-.9-1.7-1.5-4.2-.9-5.4.2-.3.6-1.3 3.1-1.8 1.7-.3 3.1-1.8 3.2-3.6.3-3.1 1.9-4.7 5-4.7.6 0 1.6.1 3.1.4 12.3 2.9 32 11.7 32.2 11.8.5.2 1.1.4 1.7.4 1.1 0 2.1-.4 2.9-1.2 1.2-1.2 1.4-3.1.6-4.6-2.1-4-2.1-6.6-1.6-7.5.3-.5.5-.8 1.1-1m.5-4c-2.1 0-3.8.9-4.8 2.5-1.6 2.6-1.1 6.7 1.4 11.5-3.3-1.5-21.4-9.4-33-12.1-1.4-.3-2.8-.5-4-.5-8.1 0-8.9 7.2-9 8.4-3 .6-4.9 1.9-5.9 3.9-1.7 3.5.4 8 .9 9-1.9.8-3.1 2.4-3.4 4.5-.4 3.3 1.7 6.8 5.5 9.6 5 3.5 22.1 11.7 27.5 14.3l1 .5c-1.7-.3-13.4-2.7-21.8-2.7-6.5 0-10.1 1.2-10.7 3.5-1.6 5.7 4.7 7.7 15 11 11.1 3.6 26.3 8.5 41.1 20.7 10.3 8.5 21 19.5 32.3 31.1 27.6 28.4 58.9 60.5 92.8 63.4 1.6.1 3.3.2 4.9.2 31.3 0 51.5-26 51.7-26.3.2-.2 19.5-24.7 34.1-62.6l7.5-25.6-75.1-35.7-15.3 27.6c-7.6 15.9-11.1 24-11.7 25.4-7.1-5-116.2-81.6-121-81.6zM970.4 776.7c-.2 0-.4 0-.6-.1l-23.3-7.4c-1.1-.3-1.6-1.5-1.3-2.5.3-1.1 1.5-1.6 2.5-1.3l23.3 7.4c1.1.3 1.6 1.5 1.3 2.5-.3.9-1.1 1.4-1.9 1.4zM956.6 802.2c-.4 0-.9-.1-1.2-.4l-18.3-14.4c-.9-.7-1-1.9-.3-2.8.7-.9 1.9-1 2.8-.3l18.3 14.4c.9.7 1 1.9.3 2.8-.4.4-1 .7-1.6.7zM1009.6 719.7c-.7 0-1.4-.4-1.7-1-.5-1-.2-2.2.8-2.7l16.2-9-31.5-57.4c-.4-.8-.3-1.8.4-2.4.7-.6 1.7-.7 2.4-.3l51.1 31.3 13.5-31.6c.4-1 1.6-1.5 2.6-1.1s1.5 1.6 1.1 2.6l-14.4 33.7c-.2.5-.7.9-1.2 1.1-.6.2-1.2.1-1.7-.2l-46.7-28.6 28.9 52.5c.5 1 .2 2.2-.8 2.7l-17.9 10c-.4.3-.8.4-1.1.4z"/>
        <path d="M960.6 674.2c-.8 0-1.6-.5-1.9-1.3L939 620.4l-27.7 21.4c-.9.7-2.1.5-2.8-.4s-.5-2.1.4-2.8l29.8-23.1c.5-.4 1.2-.5 1.8-.3s1.1.6 1.3 1.2l17.4 46.1 3.4-61.3c0-.6.3-1.2.9-1.5.5-.4 1.1-.5 1.7-.3l51.9 16.2-39.1-37.4c-.4-.4-.6-.9-.6-1.5s.2-1.1.6-1.5l42.7-39.3-61.4 19.1c-.5.2-1.1.1-1.6-.2s-.8-.7-1-1.3l-8.9-36.4c-.3-1.1.4-2.2 1.5-2.4 1.1-.3 2.2.4 2.4 1.5l8.4 34.3 67.9-21.1c.9-.3 1.9.1 2.3.9.5.8.3 1.8-.4 2.5l-47.6 43.9 43.7 41.8c.7.6.8 1.7.3 2.5s-1.4 1.2-2.3.9L966.5 604l-3.8 68.2c-.1.9-.8 1.7-1.7 1.9-.2.1-.3.1-.4.1zM1090.4 571.9c-.4 0-.7-.1-1-.3-.8-.5-1.1-1.4-.9-2.3l15.1-52.8-66.5-6.7c-.9-.1-1.6-.8-1.8-1.7-.1-.9.3-1.8 1.2-2.1l34.6-15c1-.4 2.2 0 2.6 1s0 2.2-1 2.6l-27.5 11.9 61.2 6.1c.6.1 1.1.4 1.5.9s.4 1.1.3 1.7l-13.7 47.8 45.8-44.9c.8-.8 2-.8 2.8 0l40.2 38.4-14-54.2c-.1-.6 0-1.1.3-1.6s.8-.8 1.4-.9l52.5-7.2-28.2-16.7c-1-.6-1.3-1.8-.7-2.7.6-1 1.8-1.3 2.7-.7l33.1 19.6c.7.4 1.1 1.3.9 2.1-.2.8-.8 1.5-1.7 1.6l-56 7.7 15.2 58.8c.2.9-.2 1.8-.9 2.2-.8.5-1.7.3-2.4-.3l-43.9-42-49.8 48.8c-.4.7-.9.9-1.4.9zM1269.5 543.4c-.2 0-.5 0-.7-.1l-37.4-14.8c-.7-.3-1.2-1-1.3-1.8 0-.8.4-1.5 1.2-1.9l37.4-16.7c1-.4 2.2 0 2.6 1 .5 1 0 2.2-1 2.6l-33.1 14.8 33 13.1c1 .4 1.5 1.6 1.1 2.6-.3.7-1 1.2-1.8 1.2zM1191.8 598.8h-80.7c-1.1 0-2-.9-2-2s.9-2 2-2h80.7c23.7 0 42.5-5.5 55.7-16.3.9-.7 2.1-.6 2.8.3.7.9.6 2.1-.3 2.8-13.9 11.4-33.5 17.2-58.2 17.2z"/>
        <path d="M1250.7 444.3c-3.3 2.8-39.9 33.8-78.2 33.8-8.8 0-16.7-1.6-24.3-4.8l-.1-.1.2-.2c.2-.2 18.7-23.7 33.6-62.3l-82.7-33.5.1-.2c6.5-13.6 14.2-29.1 22.7-46.2 10.8-21.6 26.1-33.2 45.4-34.5.9-.1 1.9-.1 2.8-.1 27.3 0 49.5 27.8 73.1 57.2 31.1 38.9 53.9 72.5 54.1 72.8-14.2-12.2-46.7 18.1-46.7 18.1z" style="fill:#f9494b"/>
        <path d="M1048.7 598.8h-21.2c-1.1 0-2-.9-2-2s.9-2 2-2h21.2c1.1 0 2 .9 2 2s-.9 2-2 2zM1179 414.5c-.3 0-.5 0-.8-.2-1-.4-1.5-1.6-1.1-2.6.1-.2 6.9-16.8 12.8-33.4.4-1 1.5-1.6 2.5-1.2s1.6 1.5 1.2 2.5c-5.8 16.7-12.8 33.4-12.8 33.6-.3.8-1 1.3-1.8 1.3z"/>
        <g>
            <path d="M967.4 354.5c-.3 0-.6-.1-.9-.2-.2-.1-24.8-11.8-47-19.6-1-.4-1.6-1.5-1.2-2.5.4-1 1.5-1.6 2.5-1.2 22.4 7.8 47.2 19.7 47.4 19.8 1 .5 1.4 1.7.9 2.7-.2.6-1 1-1.7 1z"/>
        </g>
        <g>
            <path d="M961.5 366.3c-.3 0-.6-.1-.9-.2-21-10.1-36.5-16.7-45.9-19.6-1.1-.3-1.7-1.4-1.3-2.5.3-1.1 1.4-1.6 2.5-1.3 9.6 2.9 25.3 9.6 46.5 19.8 1 .5 1.4 1.7.9 2.7-.3.7-1.1 1.1-1.8 1.1z"/>
        </g>
        <g>
            <path d="M983.2 348.6c-.3 0-.6-.1-.9-.2l-20.3-9.6c-1-.5-1.4-1.7-1-2.7.5-1 1.7-1.4 2.7-1l20.3 9.6c1 .5 1.4 1.7 1 2.7-.3.8-1.1 1.2-1.8 1.2z"/>
        </g>
    </g>
</svg>
