<svg xmlns="http://www.w3.org/2000/svg" viewBox="0 0 100 100" style="enable-background:new 0 0 100 100" xml:space="preserve">
    <path d="M35.1 19s13.2-11.7 26.8-1.8" style="fill:none;stroke:#ffd274;stroke-width:.75;stroke-linecap:round;stroke-linejoin:round;stroke-miterlimit:2.2866"/>
    <path d="M33.2-95.5c2.5-1.4 10.3-5.5 17.6-.9" style="fill:none;stroke:#ffd274;stroke-width:.75;stroke-linecap:round;stroke-linejoin:round;stroke-miterlimit:2.2866" transform="translate(6.696 124.299)"/>
    <path d="M3046 378c0-.1-.1-.2-.2-.2h-.5c-.1 0-.2.1-.2.2l3.8 15.4c0 .1.1.2.2.2h.5c.1 0 .2-.1.2-.2L3046 378z" style="fill:#a52929" transform="matrix(-.77028 -.17828 -.25793 1.11441 2505.63 138.586)"/>
    <path d="M-89.8-162.6c0-.1-.1-.2-.2-.2h-.5c-.1 0-.2.1-.2.2l4.1 14.4c0 .1.1.2.2.2h.5c.1 0 .2-.1.2-.2l-4.1-14.4z" style="fill:#a52929" transform="matrix(.76561 -.19736 .28553 1.10766 150.538 181.221)"/>
    <path d="M29.5 25.7s.4-.7 1-.4c0 0 .2-.2.4-.3 0 .1-.1.4-.1.4s.5 1.3-.3 2.2c-.2.3-1.6 1.7-2.9.2-.1-.1-.1-.2-.1-.3 0-.2.1-.5.3-.7l.4.2c-.2-.2-.3-.4-.4-.6 0 0-.3-1.3.6-2.1h.2c.1.5.5 1.3.9 1.4z" style="fill:#e769c0"/>
    <path d="M27.8 25.8c.1.2.3.7.7.9v.1h-.1c-.3-.2-.5-.5-.6-.8v-.2zm.2-.6c.1.1.3.8.7 1.1v.1h-.1c-.3-.3-.6-.8-.7-1 0-.1 0-.1.1-.2zm.2-.5s.3.8.7 1.2v.1h-.1c-.4-.3-.6-.9-.7-1.2.1 0 .1 0 .1-.1z" style="fill:#fff"/>
    <path d="m29.5 25.7.1-.1s.2.1.3.1c0 0 .1 0 .1.1 0 0 0 .1-.1.1-.2 0-.4-.2-.4-.2zM27.9 27s.4.6 1 .7h.1v-.1c-.5-.1-.7-.3-.7-.3l-.4-.3z"/>
    <path d="M2604.1-147.4s.4-.7 1-.4c0 0 .2-.2.4-.3 0 .1-.1.4-.1.4s.5 1.3-.3 2.2c-.2.3-1.6 1.7-2.9.2-.1-.1-.1-.2-.1-.3 0-.2.1-.5.3-.7l.4.2c-.2-.2-.3-.4-.4-.6 0 0-.3-1.3.6-2.1h.2c0 .5.5 1.3.9 1.4z" style="fill:#7c82ea" transform="matrix(-1 0 0 1 2672.39 179.726)"/>
    <path d="M2602.4-147.4c.1.2.3.7.7.9v.1h-.1c-.3-.2-.5-.5-.6-.8v-.2zm.1-.5c.1.1.3.8.7 1.1v.1h-.1c-.3-.3-.6-.8-.7-1 .1-.1.1-.2.1-.2zm.3-.5s.3.8.7 1.2v.1h-.1c-.4-.3-.6-.9-.7-1.2l.1-.1z" style="fill:#fff" transform="matrix(-1 0 0 1 2672.39 179.726)"/>
    <path d="m68.29 32.326-.1-.1s-.2.1-.3.1c0 0-.1 0-.1.1 0 0 0 .1.1.1l.4-.2zM69.99 33.626s-.4.6-1 .7h-.1v-.1c.5-.1.7-.3.7-.3l.4-.3z"/>
    <g>
        <path d="M-.4 66.3v-2.8h.2v2.9s-.7.5-.9 1.1c1.5-.7 2.6-1 4-1 1 0 1.9.2 2.9.6l-.1-3.6h.2l.1 3.7v.1h-.1c-1-.4-2-.7-3-.6-1.5.1-2.5.3-4.1 1.1h-.1s-.1-.1 0-.1c0-.7.7-1.3.9-1.4z" style="fill:#e769c0" transform="matrix(.966 0 0 1 23.985 -4.294)"/>
        <path d="M51.2 76.5c-.1-.2-.5-.8-1.5-1 0 0-.1 0-.1-.1l-.9-3.8.2-.1.9 3.7c1.5.3 1.7 1.3 1.7 1.3v.1H43.8c-.1 0-.1 0-.1-.1l-.9-3.2.2-.1.8 3.1h7.4z" style="fill:#e769c0"/>
        <path d="M23.6 59.2h6.1v-11l8.3 5.5 4.9 19.8 6.1-1.8-4.2-22.8-8.9-5.8s-3.9-2-7.3-3.8c-1.1-.6-2.4-.5-3.5.1-1.1.7-1.7 1.8-1.7 3.1.1 6.7.2 16.7.2 16.7z" style="fill:#7c82ea"/>
        <path d="m39.6 45.5.2.1-.9 1.5.5.4 1-1.5.2.1-1.1 1.6h-.2l-.7-.5s-.1-.1 0-.1l1-1.6zM25.2 39.5h-.1c-1.3.9-1.4 2-1.4 2v.1h.4c.4.1.9.3.9.3h.1s.1 0 .1-.1c.3-.7 1.1-1.3 1.1-1.3v-.2c-.5-.4-1.1-.8-1.1-.8zm-.1.3c-.9.7-1.1 1.4-1.2 1.7h.3c.3.1.7.2.8.3.3-.6.8-1.1 1-1.2-.3-.5-.7-.7-.9-.8zM23.6 58.2V58h6.1v.2h-1.6v1h-.2v-1h-.3v1h-.2v-1h-2.5v1h-.2v-1h-1.1zM48.8 70.7v.2l-2 .6.3.7-.2.1-.3-.7h-.2l.3.8-.2.1-.3-.8-2.1.6.3.8-.2.1-.3-.8-1.2.3-.1-.2 6.2-1.8zM44.6 61.5c-.1 0-.1 0 0 0l-.1.1.4 1.8v.1h.1l1.7-.4h.1V63l-.4-1.8c0-.1-.1-.1-.1-.1l-1.7.4zm.1.2.3 1.6 1.5-.3-.3-1.6-1.5.3z" style="fill:#3768be"/>
        <g>
            <path d="M43.8 47.8c.2 1.2 1.2 5 4.3 4.5 1.1-.2 3-1.1 2.8-4.9-.1-4.1-.2-7-.7-10.1-.1-.5-.2-.9-.4-1.2-.2-.3-.4-.2-.3.2-.4-.5-.9-.5-.8-.1 0 0-.6-.2-.4.3 0 0-.5-.1-.3.3s.1 1.8 0 1.9c-.1.1-.2-.4-.5-.7-.1-.1-.3-.2-.3.3 0 0-.3 5.3-1 8.7l-2.4.8z" style="fill:#e0755e"/>
            <path d="M48.8 39.4c-.1-.1-.1-.2-.2-.3l-.4-.4-.1-.1s.1 0 .1-.1l.1.1c.1.1.3.2.4.4.1.1.1.2.2.3.2-.2.4-.3.7-.4 0 0 .1 0 .1.1 0 0 0 .1-.1.1-.2 0-.5.2-.6.4 0 .1.1.1.1.2v.2l-.1.1h-.1c-.1 0-.1-.1-.1-.2-.2-.2-.1-.3 0-.4-.1 0-.1 0 0 0zm0 .1V39.8v-.3c0 .1 0 .1 0 0z" style="fill:#a52929"/>
            <path d="M48.4 36.4v-.2s.4.6.5 1.8c0 .1 0 .1-.1.1s-.1 0-.1-.1c-.1-1-.4-1.6-.4-1.6h.1zM48.8 35.8v.2h-.1s.5.9.5 1.9c0 .1 0 .1.1.1s.1 0 .1-.1c0-1.1-.6-2.1-.6-2.1zM49.6 36v.2c-.1-.1-.1-.2-.2-.2 0 0 .4 1.3.5 2 0 .1 0 .1.1.1s.1 0 .1-.1c-.1-.7-.5-2-.5-2z" style="fill:#a52929;fill-opacity:.86"/>
            <path d="M45.8 47.1v1.4c0 .1.1.1.1.1.1 0 .1-.1.1-.1.1-.9.1-1.6.1-1.6l-.3.2z" style="fill:#a52929"/>
        </g>
        <g>
            <path d="m40.8 38.3.3-.5v-.1c-.4-.5-.4-1.1 0-1.6.5-.7 1.2-1.5 2.1-1.2 0 0 1.4.6 1 1.9l-.1.3s.5.3.1.7c0 0-.4.3-.7.1l-.2 1.7s-1.9.4-2.5-1.3z" style="fill:#e0755e"/>
            <path d="m41.1 37.8-.1.1s.2.1.3.2c.3.2.7.3 1.3.3.1 0 .1-.1.1-.1 0-.1-.1-.1-.1-.1-.5 0-.9-.1-1.2-.3-.1 0-.3-.1-.3-.1zM44.1 37.1l.1-.2h-.1c-.1 0-.3 0-.6.2-.1 0-.1.1 0 .2 0 .1.1.1.2 0 .1-.2.2-.2.4-.2-.1 0 0 0 0 0zM43.3 38l.2.2v-.3l-.1-.1h-.2c0 .1 0 .2.1.2z" style="fill:#a52929"/>
            <path d="M-113.2-140.6c-.1.1-.2.3-.1.4.1.1.2.1.3.1.1 0 .3-.1.4-.1 0 0 .1-.1 0-.1 0 0-.1-.1-.1 0-.1 0-.2.1-.3.1-.1 0-.1 0-.2-.1v-.1s0-.1.1-.1c0 0 .1-.1 0-.1h-.1z" style="fill:#a52929" transform="matrix(.87777 0 0 .78153 141.425 146.712)"/>
            <path d="M-112.6-140.1c.2-.1.2-.4.1-.5-.1-.1-.2-.1-.3-.1-.2 0-.3.1-.4.1v.1s.1.1.1 0c.1-.1.2-.1.3-.1h.2s0 .1-.1.2c0 0-.1.1 0 .1 0 .2 0 .2.1.2z" style="fill:#a52929" transform="matrix(.87777 0 0 .78153 141.425 146.712)"/>
        </g>
        <g>
            <path d="M37.3 37.7s1.2-.2 3.4.8h.1l-.1-.2v-.1h-.1c-2.3-1-3.5-.8-3.5-.8-.1 0-.1.1-.1.1.2.1.3.2.3.2zM43.3 39.4v.2c.5.2 2 1 3.4 3.2l.1.1v-.5c-1.4-2.1-2.9-2.8-3.5-3 .1 0 0 0 0 0zM36.1 43.1l.7-.4s.1-.1 0-.2l-.1-.1-.7.5.1.2z"/>
            <path d="m36.3 40.7.6 3 .3.2-.6-3.2c0-.1-.1-.1-.1-.1-.1 0-.2 0-.2.1zM43.1 45l.5 3.1.4.3-.7-3.4c0-.1-.1-.1-.1-.1-.1 0-.1.1-.1.1z"/>
            <path d="m43 47.7.1-2.7c.4 1 .5 2.2.7 3.3-.2-.2-.5-.4-.8-.6z"/>
        </g>
        <g>
            <path d="M40.7 29.1c-4.8 3.2-7 4.8-10.9 9.1-1 1.1-1.2 2.7-.6 4 .1.3.3.6.5.9 1.1 1.5 3.2 2 4.8 1l1.6-1-2.1-2.3 7.7-7.7s.6-.4.7.1c0 0 .5 0 .4-.8 0 0 .5-.4.2-.9 0 0 .3-.7-.2-1.1 0 0 0-.6-.6-.8 0 0-.7-.2-1.4 0l-.1-.5z" style="fill:#e0755e"/>
            <path d="m34.1 40.7.1.2L33 42h-.2v-.2l1.3-1.1zM42.9 32.5c-.1-.2-.4-.3-.7-.3-.5 0-.9.1-.9.1-.1 0-.1 0-.1-.1s0-.1.1-.1c0 0 .5-.2 1-.1.3 0 .6.1.8.4-.1-.1-.2 0-.2.1zm.2-1c-.9-.6-2-.1-2-.1-.1 0-.1 0-.1-.1s0-.1.1-.1c0 0 1.2-.5 2.2.1-.2.1-.2.2-.2.2zm-.2-1.1c-1.1-.5-2.2.1-2.2.1h-.1v-.1s1.1-.6 2.2-.2c.1 0 .1.2.1.2zm-2.1-1c0 .1.1.2.1.2l-.5.2c-.1 0-.1 0-.1-.1s0-.1.1-.1l.4-.2z" style="fill:#a52929"/>
        </g>
    </g>
    <g>
        <path d="M55 33c0 .1-.1.2-.2.3-.1.1-.2.1-.2 0-.1 0-.1-.3-.2-.5 0 0-.1-.3.1-.6 0 0-.4-.3 0-.7 0 0-.2-.5.2-.8 0 0-.3-.5.4-.9.2-.1.8-.7 2 .1l3.2 2.1-2.1 3.2s-2.7-2.6-3-2.7c.1.2-.1 0-.2.5z" style="fill:#a52929"/>
        <path d="M54.5 32.2c.2-.2.4-.4.8-.4.2 0 .5.1.8.4 0 .1.1.1 0 .2h-.2c-.2-.2-.4-.3-.6-.3-.3 0-.6.2-.7.4-.1-.2-.1-.3-.1-.3zm0-.8c0 .1 0 .1.1.2 0 0 .2-.3.5-.3.3-.1.6-.1 1.1.1.1 0 .1 0 .2-.1 0-.1 0-.1-.1-.1-.5-.3-.9-.2-1.2-.1-.3.1-.6.3-.6.3zm.2-.7v.2c.3-.2.9-.6 1.6-.2h.2c0-.1 0-.1-.1-.1-.7-.5-1.3-.2-1.7.1 0-.1 0 0 0 0z"/>
        <path d="M47.1 42.2s-.1-4.7.7-5.1c0 0 .3-.1.3.4 0 0 .9-1.5 1.5-1.7.1 0 .4-.1.3.2 0 0 .4-.1.4.3 0 0 .4 0 .3.4 0 0 .4.1.2.6 0 0-.9 1.6-.3 5l-3.4-.1z" style="fill:#a52929"/>
        <path d="M50.7 36.8s.1 0 .2.1c-.1.1-.6.5-1.2 1.5 0 0-.1.1-.1 0 0 0-.1-.1 0-.1.5-.9.9-1.3 1.1-1.5zm-2.7.5c0 .1 0 .2.1.2-.2.3-.3.6-.3.6l-.1.1-.1-.1c.1-.1.2-.5.4-.8zm2.3-.9s.1 0 .2.1c-.2.2-.9.9-1.4 1.7 0 0-.1.1-.1 0 0 0-.1-.1 0-.1.4-.8 1.1-1.5 1.3-1.7zm-.4-.4h.2c-.3.2-.9.8-1.4 1.8 0 0-.1.1-.1 0 0 0-.1-.1 0-.1.4-.8 1-1.4 1.3-1.7z"/>
        <path d="M58.8 36.8s-1.5 5-7.8 6.4c0 0 .5-2 3.2-3.5l-.1-1.6s-.8.3-.9-.5c0-.2.2-.3.4-.4 0 0 .4.7 1.1.4.3-.1.8-.8.9-2 0 0 .4.2.5-.2 0 0 .3.7.5 1.2.1.3 0 .7-.2.9l.2.5c-.1.2 1.2-1.4 2.2-1.2z" style="fill:#a52929"/>
        <path d="M55.7 37c-.1 0-.1.1-.2.1-.1.1-.1.1 0 .2 0 .1.1.1.2.1s.2 0 .3-.1v-.1h-.4v-.1l.1-.1c.1.1.1.1 0 0 .1 0 0 0 0 0z"/>
        <path d="m56 37.4.1-.1c0-.1.1-.1 0-.2 0-.1-.1-.1-.1-.1h-.3s-.1.1 0 .1c0 0 .1.1.1 0H56.1v.1l-.1.1v.1c-.1 0-.1 0 0 0zM56.3 37.6v.2c-.2.2-.6.5-1.1.5 0 0-.1 0-.1-.1 0 0 0-.1.1-.1.5 0 .9-.3 1.1-.5zM56.6 38.5l-.1-.3.1-.1.1.4c0-.1 0 0-.1 0z"/>
        <path d="M53.4 36.5c-.3.1-.7.2-1 .1-.7-.1-1.4-.5-1.8-1.1-.3-.4-.6-.8-1.1-1.1-.6-.4-1.3-.1-1.9 0-1.1.2-2.4-.1-3-1.1-.2-.3-.3-.6-.3-.9 0-.4.1-.8.3-1.1.5-1.1 1.9-1.8 3.1-1.4.6.2 1.1.6 1.4 1.1.3.4.5.9.8 1.4.1.2.2.5.5.7.3.1.5-.1.7-.3.3-.3.7-.7 1.2-.7.6-.1.9.4 1.2.8.5.8.6 1.6.7 2.5.1-.1.3-.2.4-.2 0 0 1.2-.3 1.6.6 0 0 0 .4-.5.2 0 0 .1 1.8-1.1 2-.2 0-.6.1-.9-.5-.1-.2-.3-.6-.3-1z"/>
        <g>
            <path d="M66.8 59.9v2.5s6.2-.3 7.4.7c0 0 .2-.6-1.2-1.2v-3.7" style="fill:none;stroke:#7c82ea;stroke-width:.25;stroke-linecap:round;stroke-linejoin:round;stroke-miterlimit:2.2866"/>
            <path d="m48.2 76.2.6-2.6c.1 0 .2 0 .2.1l-.6 2.7s0 .1-.1.1c0 0-.5.1-1.1.4-.3.2-.6.4-.8.7H54l.5-2.4h.2l-.5 2.5c0 .1-.1.1-.1.1h-7.8s-.1 0-.1-.1v-.1c.2-.4.6-.7 1-.9.4-.4.8-.5 1-.5z" style="fill:#7c82ea"/>
            <path d="M72.9 58V44.7c0-1.5-.8-2.9-2-3.7-1.2-.8-2.8-.9-4.2-.3-2.8 1.2-6 2.7-6 2.7-.1 0-.1 0-.1-.1s0-.1.1-.1c0 0 3.2-1.5 6-2.7 1.4-.6 3.1-.5 4.4.4 1.3.9 2.1 2.3 2.1 3.9v13.5h-.1l-6.2 1.8h-.1V60l-.4-11.1-5.4 2.9L54.7 75v.1h-.1l-5.7-1.5h-.1c-.2-.1 2.3-13.3 3.2-20.1.9-7.4 3.9-7.8 4-7.8.1 0 .1 0 .1.1s0 .1-.1.1c0 0-.9.4-1.6 1.3-.8.9-1.6 2.8-2.1 6.3-.9 6.9-2.4 13.9-3.2 20l5.5 1.4 6-23.3s0-.1.1-.1l5.6-3h.1l.1.1.4 11.1 6-1.7z" style="fill:#e769c0"/>
            <path d="m54.2 74.7-.1-.1c-.3-.4-.5-1.2-.5-2s.2-1.5.5-2c.2-.4.5-.6.9-.6.3 0 .6.2.9.6l-.2.8c-.1-.2-.1-.4-.2-.5-.1-.2-.3-.3-.4-.3-.2 0-.3.1-.4.3-.3.4-.4 1-.4 1.7s.2 1.3.4 1.7l.3.3-.1.2-.7-.1zm-4.7-4.3c.7-.3 1.4-.5 1.9-.4.4 0 .7.2.9.5.1.3.1.6-.1 1-.3.5-.8 1-1.5 1.4-.6.3-1.2.5-1.6.5l.1-.5c.4 0 .9-.2 1.3-.4.6-.3 1.1-.7 1.3-1.1.1-.2.2-.4.1-.5-.1-.2-.3-.2-.5-.2-.5 0-1.1.1-1.7.4-.1 0-.2.1-.2.1v-.8zm.9-5.2h.3c.5 0 1.2.3 1.9.7.7.5 1.1 1 1.3 1.5.2.4.1.8 0 1-.2.3-.5.4-.9.4-.5 0-1.2-.3-1.9-.7-.4-.3-.7-.6-1-.9l.1-.8c.2.4.6.9 1.1 1.2.6.4 1.2.6 1.6.6.2 0 .4 0 .5-.2.1-.1.1-.3 0-.5-.2-.4-.6-.9-1.2-1.3s-1.2-.6-1.6-.6h-.3l.1-.4zm5.2 1.9c-.3 0-.6-.3-.8-.7-.2-.5-.4-1.2-.3-2 .1-.8.4-1.5.7-1.9.3-.3.6-.5.9-.4.3 0 .6.3.8.7.2.5.4 1.2.3 2-.1.8-.4 1.5-.7 1.9-.2.3-.5.5-.9.4zm.6-4.5c-.2 0-.3.1-.5.3-.3.3-.5.9-.6 1.6-.1.7 0 1.3.2 1.7.1.2.2.4.4.4s.3-.1.5-.3c.3-.3.5-.9.6-1.6.1-.7 0-1.3-.2-1.7-.1-.2-.2-.4-.4-.4zm-5.1-1.8h.1c.8.3 1.4.7 1.7 1.1.3.3.4.7.3 1-.1.3-.4.5-.8.6-.5.1-1.1.1-1.8-.1l.1-.5c.6.2 1.1.2 1.5.1.2-.1.4-.2.4-.3.1-.2 0-.3-.2-.5-.3-.4-.8-.7-1.5-.9h-.1l.3-.5zm1.8-.3c-.3-.2-.4-.5-.5-.9 0-.5.1-1.3.6-2 .4-.7.9-1.2 1.4-1.5.4-.2.8-.2 1 0 .3.2.4.5.5.9 0 .5-.1 1.3-.6 2-.4.7-.9 1.2-1.4 1.5-.3.2-.7.2-1 0zm5.7-.4c-.1-.1-.2-.1-.3-.2-.4-.4-.8-1.1-1-1.9-.2-.8-.2-1.6 0-2.1.1-.4.4-.7.7-.8.3-.1.7 0 1 .3.2.2.4.5.6.9l-.2.8c-.2-.6-.5-1-.8-1.3-.2-.2-.3-.3-.5-.2-.2 0-.3.2-.3.4-.1.5-.1 1.1 0 1.9.2.7.5 1.3.8 1.6l.1.1-.1.5zm-3.4-3.5c-.1-.1-.3 0-.5.1-.4.2-.9.7-1.2 1.3-.3.6-.5 1.2-.5 1.7 0 .2.1.4.2.5.1.1.3 0 .5-.1.4-.2.9-.7 1.2-1.3s.5-1.2.5-1.7c0-.2-.1-.4-.2-.5zm11.6 1.5c.3-.1.6-.2.8-.3.4-.1.8 0 1 .3.2.2.3.6.2 1 0 .1-.1.2-.1.3l-.7.2c.2-.2.3-.5.3-.7.1-.2.1-.4-.1-.5-.1-.1-.3-.1-.5-.1-.3 0-.6.2-.9.3v-.5zm6.2-3.6v.5c-.4.1-.7.4-1.1.7-.5.5-.9 1-1 1.4-.1.2-.1.4.1.5.1.1.3.1.5.1.4-.1 1-.4 1.5-.8v.7c-.5.4-1 .6-1.4.7-.4.1-.8 0-1-.3-.2-.2-.3-.6-.2-1 .1-.5.5-1.2 1.1-1.7.5-.4 1-.7 1.5-.8zm-6.5-2.8.1-.1c.3-.2.6-.1 1 0 .5.2 1 .8 1.4 1.5.4.7.6 1.4.6 2 0 .4-.2.8-.5.9-.3.2-.6.1-1 0-.5-.2-1-.8-1.4-1.5 0-.1-.1-.2-.1-.2l-.1-2.6zm2.1 1.6c-.3-.6-.8-1-1.2-1.2-.2-.1-.4-.2-.5-.1-.1.1-.2.3-.2.5 0 .5.1 1.1.5 1.7.3.6.8 1.1 1.2 1.3.2.1.4.1.5.1.1-.1.2-.3.2-.5.1-.6-.1-1.2-.5-1.8zm-15.9-1.7c.3.2.6.3.8.6.6.5 1 1.2 1.2 1.7.1.4.1.8-.2 1-.2.2-.6.3-1 .3-.4-.1-.9-.3-1.4-.6l.1-.6c.5.4.9.6 1.3.6.2 0 .4 0 .5-.1.1-.1.1-.3 0-.5-.1-.4-.5-1-1-1.4-.2-.2-.4-.3-.6-.4l.3-.6zm3.7 2c-.7-.4-1.3-.8-1.6-1.3-.2-.4-.3-.7-.1-1 .1-.3.4-.5.9-.5.5-.1 1.3.1 2 .4.7.4 1.3.8 1.6 1.3.2.4.3.7.1 1-.1.3-.4.5-.9.5-.5.1-1.3 0-2-.4zm16.6-.3s-.1 0 0 0c-.4.4-.7.5-1.1.4-.3-.1-.6-.3-.7-.7-.2-.5-.2-1.2-.1-2 .2-.8.5-1.4.9-1.8.3-.3.6-.4.9-.4v.5c-.2 0-.3.1-.5.2-.3.3-.6.9-.8 1.6-.2.7-.1 1.3 0 1.7.1.2.2.4.4.4s.3-.1.5-.2c.2-.2.3-.4.4-.6l.1.9zm-15.7-1.7c-.6-.3-1.3-.4-1.7-.4-.2 0-.4.1-.5.3-.1.2 0 .3.1.5.2.4.7.8 1.4 1.1.6.3 1.3.4 1.7.4.2 0 .4-.1.5-.3.1-.2 0-.3-.1-.5-.2-.3-.7-.8-1.4-1.1zm5.2-1c-.3-.7-.3-1.4-.2-1.9.1-.4.3-.7.6-.8.3-.1.7-.1 1 .2.4.3.7.7 1 1.3l-.5.2c-.2-.5-.6-.9-.9-1.1-.2-.1-.4-.2-.5-.1-.2.1-.2.2-.3.5-.1.4 0 1 .2 1.6l-.4.1zm-7.3-4.5c.2.1.4.3.6.5.6.6 1 1.2 1.1 1.7.1.4 0 .8-.2 1-.2.2-.6.3-1 .3-.5-.1-1.2-.4-1.8-1l-.3-.3c.1-.2.2-.3.2-.5.1.2.3.3.4.5.5.5 1.1.8 1.5.9.2 0 .4 0 .5-.1.1-.1.1-.3.1-.5-.1-.4-.4-1-1-1.5-.2-.2-.4-.4-.6-.5.2-.3.3-.4.5-.5zm13.8.4c.5-.6 1.2-1 1.7-1.1.4-.1.8 0 1 .2.2.2.3.6.3 1-.1.5-.4 1.2-.9 1.8-.5.6-1.2 1-1.7 1.1-.4.1-.8 0-1-.2-.2-.2-.3-.6-.3-1 0-.5.4-1.2.9-1.8zm-10.9.3c.1-.8.4-1.5.7-1.9.3-.3.6-.5.9-.4.3 0 .6.3.8.7.2.5.3 1.2.2 2-.1.8-.4 1.5-.7 1.9-.3.3-.6.5-.9.4-.3 0-.6-.3-.8-.7-.2-.4-.3-1.2-.2-2zM70.7 48c.5-.5.8-1.1.8-1.5 0-.2 0-.4-.1-.5s-.3-.1-.5-.1c-.4.1-1 .5-1.4 1-.5.5-.8 1.1-.8 1.5 0 .2 0 .4.1.5 0 .1.2.1.4.1.5-.1 1-.5 1.5-1zm-10.4-.9c.1-.7 0-1.3-.2-1.7-.1-.3-.2-.4-.4-.4s-.3.1-.5.3c-.3.3-.5.9-.6 1.6-.1.7 0 1.3.2 1.7.1.2.2.4.4.4s.3-.1.5-.3c.3-.3.5-.9.6-1.6zm3.9-.4c-.6-.5-1.1-1.1-1.2-1.6-.1-.4-.1-.8.1-1 .2-.2.5-.4 1-.3.5 0 1.2.3 1.8.9.6.5 1.1 1.1 1.2 1.6.1.4.1.8-.1 1-.2.2-.5.4-1 .3-.5-.1-1.2-.4-1.8-.9zm1.4-1.7c-.5-.4-1.1-.7-1.6-.7-.2 0-.4 0-.5.1-.1.1-.1.3 0 .5.1.4.5.9 1 1.4.5.4 1.1.7 1.6.7.2 0 .4 0 .5-.1.1-.1.1-.3 0-.5-.1-.5-.5-1-1-1.4zm5.4-4.1c.6.4 1.1.9 1.4 1.4 0 .1-.1.2-.2.3-.3.4-.9.9-1.7 1.1-.8.3-1.5.3-2 .2-.4-.1-.7-.3-.8-.6-.1-.3 0-.7.2-1 .3-.4.9-.9 1.7-1.1.5-.2 1-.3 1.4-.3zm-2.9 2.2c-.1-.2 0-.3.2-.5.3-.4.8-.7 1.5-.9.7-.2 1.3-.3 1.7-.2.2.1.4.1.5.3.1.2 0 .3-.2.5-.3.4-.8.7-1.5.9-.7.2-1.3.3-1.7.2-.2 0-.4-.1-.5-.3zm-2.2-2.2c.1.1.2.2.3.2.3.3.5.6.4.9-.1.3-.3.6-.7.8-.5.2-1.2.3-2 .2-.6-.1-1-.3-1.4-.5l.6-.3.9.3c.7.1 1.3.1 1.7-.1.2-.1.4-.2.4-.4s-.1-.3-.2-.5c-.1-.1-.3-.2-.5-.3l.5-.3z" style="fill:#e769c0"/>
        </g>
        <g>
            <path d="m47.1 42.2 3.7.2.2.8s5.3-.5 7.8-6.3l1.1.2-1.6-1.7 2-3.2s7.4 5.5 7.5 8.6v.1c0 .9-.4 1.8-1.2 2.3-.7.5-1.7.6-2.5.3C62.8 42.8 61 42 61 42s.3.8.3 1.1L55.8 46s-1.2-.2-1.9-1.2c0 0 .9 3.7-1.4 6.4-.7.8-1.8 1.1-2.7.8-.8-.3-1.6-1-1.9-2.8 0 0-1-3.9-.8-7z" style="fill:#ffd274"/>
            <path d="M51.7 48.5v-.1c-.1-.8-.7-5.3-.7-5.3h.3s.7 4.5.7 5.3v.2c0 .1-.1.1-.1.1h-.1s-.1-.1-.1-.2zm.1-.1c.1 0 .1 0 0 0 .1 0 .1 0 0 0zM59.9 37h-.4l4.8 4.9c0 .1.1.1.2 0 .1 0 .1-.1 0-.2L59.9 37zM61 42c-.3-.7-.6-1.3-.6-1.3v-.2h.2s.5.8.7 1.5H61z" style="fill:#de735a"/>
        </g>
    </g>
    <g>
        <path d="M33 68.8s.8-1.9 2.3-2.2c0 0 .2 1.1-.3 2.8 0 0 1.1-.8 1.8-.6 0 0 0 1.1-.8 2.1 0 0-.7-1.8-2.9-.9 0 0 0-1.1-.1-1.2zM18.1 73.8s-1.7-1.1-2.2-4.1c0 0 .3-.1.9.2 0 0-.8-1.4-.4-2.9 0 0 1.3.4 2.4 1.9-.1 0-1.2 2.6-.7 4.9z" style="fill:#7c82ea"/>
        <path d="M18.1 73.8h18.7s-.3-5.4-3.7-3.8c0-1.7-.4-3.7-1.5-5.3-.5-.7-1.1-1.2-1.8-1.6-1.8-1-4.6-1.1-7.2.5-2.3 1.4-5 5.3-4.5 10.2zM39.8 76.2h-3.5s.2-1.3 1.4-1.4c.4 0 1.5.4 2.1 1.4z" style="fill:none;stroke:#0d2e3a;stroke-width:.25;stroke-linecap:round;stroke-linejoin:round;stroke-miterlimit:2.2866"/>
        <path d="M24.7 66.6s1.2 2.9 2.1 8.1" style="fill:none;stroke:#7c82ea;stroke-width:.25;stroke-linecap:round;stroke-linejoin:round;stroke-miterlimit:2.2866"/>
        <path d="M25.3 68.5s-.3-1.2.4-1.5c0 0 .5.7-.4 1.5z" style="fill:#668ddb"/>
        <path d="M92.4 555.3s-.8-.1-1.1-.7c0 0 1 .1 1.1.7z" style="fill:#668ddb" transform="matrix(1.11564 0 0 1.50942 -77.855 -769.725)"/>
        <path d="M74.5 513.7s-.8-.1-1.1-.7c0-.1 1 0 1.1.7z" style="fill:#7c82ea" transform="matrix(1.11564 0 0 1.50942 -57.112 -704.422)"/>
        <path d="M243.5 466.2s-.8-.1-1.1-.7c0 0 1 .1 1.1.7z" style="fill:#668ddb" transform="matrix(-.83597 .73879 .99955 1.13104 -236.412 -636.323)"/>
        <path d="M515.3-46.9v.6-.6c.2 0 .3 0 .4.1v.6-.5c.1 0 .2.1.2.1v.3c0 .6-.4 1.1-.8 1.1s-.8-.5-.8-1.1v-.2c.1 0 .2-.1.3-.1v.5-.5h.2v.4-.4c.4-.3.4-.3.5-.3z" style="fill:#fddb81" transform="rotate(-18.94 605.894 1481.1)"/>
        <g>
            <path d="M18.8 66.1s2.4 3.3 4.2 8.1c0 .1.1.1.1.1.1 0 .1-.1.1-.1-1.8-5-4.2-8.2-4.2-8.2s-.1-.1-.2 0v.1z" style="fill:#7c82ea"/>
            <path d="M21 69.5c0-.1-.1-.2-.1-.2 0-.2-.1-.3-.1-.5 0-.3.1-.5.2-.7l.1-.2c.1.1.1.3.1.4.3.4.2.8-.2 1.2" style="fill:#7c82ea"/>
            <path d="M21 69.4s-.1 0 0 0h-.4c-.3 0-.6-.1-.8-.3-.1 0-.1-.1-.1-.1s-.2-.1-.2-.2h.5c.1 0 .2.1.4.1.2.1.4.2.5.3M22.1 71.7H22c-.1 0-.2 0-.3-.1-.3-.1-.6-.2-.8-.4-.1-.1-.2-.2-.2-.3 0 0-.1-.1 0-.1H21c0 .2 0 .2.1.2.1.1.3.1.4.2.2.1.4.2.5.4M22.1 71.5v-.7c0-.1.1-.3.1-.4.1-.1.1-.3.2-.4l.1-.1s.1.1.1.2V70.4c0 .3-.1.6-.3.9 0 .1-.1.2-.2.2" style="fill:#7c82ea"/>
            <path d="M18.5 64.5h.3c.1.1.1.1.1.2.4.5.4 1.2 0 1.4-.4.3-1 .1-1.4-.4-.1-.1-.1-.2-.1-.3 0-.1.1-.2.2-.3l.2.3h.1v-.1l-.2-.3c0-.1.1-.1.2-.2l.4.5h.1v-.1l-.4-.4c.1-.1.2-.1.4-.2l.3.4h.1v-.1l-.3-.4z" style="fill:#fddb81"/>
        </g>
        <g>
            <path d="M1422.5 101.2s.7 1 1.6 2.5l.1.1.1-.3v-.1l-1.5-2.4s-.1-.1-.2 0-.1.1-.1.2z" style="fill:#7c82ea" transform="matrix(-1 0 0 1 1457.03 -36.425)"/>
            <path d="M1584.5 39.6c0-.1-.1-.2-.1-.2 0-.2-.1-.3-.1-.5 0-.3.1-.5.2-.7l.1-.2c.1.1.1.3.1.4.2.4.1.9-.2 1.2" style="fill:#7c82ea" transform="matrix(-.87813 0 0 .9185 1425.056 29.528)"/>
            <path d="M1457.5 161.6s-.1 0 0 0h-.4c-.3 0-.6-.1-.8-.3-.1 0-.1-.1-.1-.1s-.2-.1-.2-.2h.5c.1 0 .2.1.4.1.2.1.4.2.5.3" style="fill:#7c82ea" transform="matrix(-1 0 0 1 1491.103 -95.677)"/>
            <path d="M1612.6-15.1h-.1c-.1 0-.2 0-.3-.1-.3-.1-.6-.2-.8-.4-.1-.1-.2-.2-.2-.3 0 0-.1-.1 0-.1H1611.5c.1 0 .2.1.2.1.1.1.3.1.4.2.2.1.4.2.5.4" style="fill:#7c82ea" transform="matrix(-.86092 0 0 .8703 1421.315 80.085)"/>
            <path d="M1419.6-60.1v-.7c0-.1.1-.3.1-.4.1-.1.1-.3.2-.4l.1-.1s.1.1.1.2V-61.2c0 .3-.1.6-.3.9 0 .1-.1.2-.2.2" style="fill:#7c82ea" transform="matrix(-1.07121 0 0 .84248 1553.937 117.163)"/>
            <path d="M1422.2 99.6h.3c.1.1.1.1.1.2.4.5.4 1.2 0 1.4-.4.3-1 .1-1.4-.4-.1-.1-.1-.2-.1-.3 0-.1.1-.2.2-.3l.2.3h.1v-.1l-.3-.4c0-.1.1-.1.2-.2l.4.5h.1v-.1l-.4-.5c.1-.1.2-.1.4-.2l.3.4h.1v-.1l-.2-.2z" style="fill:#fddb81" transform="matrix(-1 0 0 1 1457.03 -36.425)"/>
        </g>
    </g>
    <g>
        <path d="M64 69.8s-1-1.7-.9-2.9c0 0 .6.2 1.1.9 0 0-.6-2.3-.2-3.3 0 0 1 .5 1.5 1.6 0 0-.7 2-.7 3.9l-.8-.2z" style="fill:#7c82ea"/>
        <path d="m2594.2 71.2 19 .1s-.5-5.8-4-4.2c0-1.7-.4-3.7-1.5-5.3-.5-.7-1-1.2-1.8-1.7-1.8-1-4.6-1-7.2.6-2.1 1.4-5 5.6-4.5 10.5z" style="fill:none;stroke:#0d2e3a;stroke-width:.25;stroke-linecap:round;stroke-linejoin:round;stroke-miterlimit:2.2866" transform="matrix(-1 0 0 1 2674.11 3)"/>
        <path d="M84.8 60.5s1.9-3.2 4.2-3.1c0 0 0 .8-.8 1.8 0 0 .5-.4 1.5-.3 0 0-.1.7-1 1.7l-3.9-.1z" style="fill:#7c82ea" transform="translate(-8.04 14.139)"/>
        <path d="M3234.2 447.2c0-.1-.1-.2-.1-.2 0-.2-.1-.3-.1-.5 0-.3.1-.5.2-.7l.1-.2c.1.1.1.3.1.4.2.4.1.9-.2 1.2" style="fill:#668ddb" transform="rotate(-167.613 1485.284 -20.617) scale(.87813 -.9185)"/>
        <path d="M80.1 68.2s-3.4 2.4-4.7 6.5" style="fill:none;stroke:#7c82ea;stroke-width:.25;stroke-linecap:round;stroke-linejoin:round;stroke-miterlimit:2.2866" transform="translate(-.001 -.001)"/>
        <path d="M2881.8 486.3h.3c.1.1.1.1.1.2.4.5.4 1.2 0 1.4-.4.3-1 .1-1.4-.4-.1-.1-.1-.2-.1-.3 0-.1.1-.2.2-.3l.2.3h.1v-.1l-.3-.4c0-.1.1-.1.2-.2l.4.5h.1v-.1l-.4-.5c.1-.1.2-.1.4-.2l.3.4h.1v-.1l-.2-.2z" style="fill:#fddb81" transform="scale(-1 1) rotate(-12.387 -530.741 13925.761)"/>
        <path d="M2911.3 538.2s-.1 0 0 0h-.4c-.3 0-.6-.1-.8-.3-.1 0-.1-.1-.1-.1s-.2-.1-.2-.2h.5c.1 0 .2.1.4.1.2.1.4.2.5.3" style="fill:#668ddb" transform="scale(-1 1) rotate(-12.387 -741.664 14079.026)"/>
        <path d="M3285.4 385h-.1c-.1 0-.2 0-.3-.1-.3-.1-.6-.2-.8-.4-.1-.1-.2-.2-.2-.3 0 0-.1-.1 0-.1H3284.3c.1 0 .2.1.2.1.1.1.3.1.4.2.2.1.4.2.5.4" style="fill:#668ddb" transform="matrix(-.84088 -.18468 -.1867 .85004 2911.46 351.102)"/>
        <path d="M2759.9 351v-.7c0-.1.1-.3.1-.4.1-.1.1-.3.2-.4l.1-.1s.1.1.1.2V349.9c0 .3-.1.6-.3.9 0 .1-.1.2-.2.2" style="fill:#668ddb" transform="rotate(-167.613 1536.696 44.014) scale(1.07121 -.84248)"/>
        <g>
            <path d="M-558.6-278.1s-.3-1.2.4-1.5c0 0 .4.7-.4 1.5z" style="fill:#668ddb" transform="rotate(-13.205 1251.082 -2785.103)"/>
            <path d="M-192 218.6s-.8-.1-1.1-.7c0 0 1 .1 1.1.7z" style="fill:#668ddb" transform="matrix(1.03923 -.40577 .549 1.40604 141.477 -316.212)"/>
            <path d="M-803 501.9s-.8-.1-1.1-.7c0 0 1 .1 1.1.7z" style="fill:#668ddb" transform="matrix(1.11564 0 0 1.50942 959.019 -686.057)"/>
            <path d="M891.5 24.3s-.8-.1-1.1-.7c0 0 1 .1 1.1.7z" style="fill:#668ddb" transform="matrix(-.83597 .73879 .99955 1.13104 784.342 -614.44)"/>
            <path d="M60.4 67.3s3 2.7 3.8 7.5" style="fill:none;stroke:#7c82ea;stroke-width:.25;stroke-linecap:round;stroke-linejoin:round;stroke-miterlimit:2.2866"/>
            <path d="M602-646.8v.6-.6c.2 0 .3 0 .4.1v.6-.5c.1 0 .2.1.2.1v.3c0 .6-.4 1.1-.8 1.1s-.8-.5-.8-1.1v-.2c.1 0 .2-.1.3-.1v.5-.5h.2v.4-.4c.4-.3.4-.3.5-.3z" style="fill:#fddb81" transform="rotate(-46.14 1168.254 346.623)"/>
        </g>
    </g>
    <g>
        <path d="m33.4 29.9.5-.6.9 1.3-.5.4-.9-1.1zm1.4-1.7.9 1.2.5-.4-.8-1.4-.6.6z" style="fill:#7c82ea"/>
        <path d="m62.3 26.6 1.4-1.2.3.7-1.4 1-.3-.5zm-1.7-.9.8-1.5.6.5-.8 1.2-.6-.2z" style="fill:#e769c0"/>
    </g>
    <g>
        <path d="M46.4 17.8s0 .1.1.1c0 .1 0 .2-.1.2l-.4.4c-.1.1-.3.2-.5.2h-.4c-.1-.1-.2-.1-.2-.3v-.7s0-.1-.1 0l-.2.2c-.1.1-.1.2-.2.4-.1.1-.1.3-.1.5s-.2.3-.4.4h-.2s-.1-.1-.1-.3v-.2c0-.1 0-.2-.1-.3-.1-.4-.1-.8-.1-1.2 0-.4.1-.8.3-1.1.2-.3.4-.5.7-.6.2 0 .3 0 .4.1.1.1.2.2.2.3 0 .2 0 .5-.2.8-.2.3-.4.7-.8 1.1 0 .1 0 .3.1.4l.3-.6c.1-.2.2-.3.4-.4s.2-.2.3-.2c.2 0 .3 0 .4.2v.9c0 .1.1.1.2.1s.1-.1.2-.1l.3-.3.1-.1.1.1zM44.1 16c-.1.1-.1.3-.1.5v.7c.2-.2.3-.4.4-.7.1-.2.1-.4.1-.6 0-.1 0-.1-.1-.2h-.1c0 .1-.1.2-.2.3z" style="fill:#a52929"/>
        <path d="M48.3 17.6v.1c0 .1 0 .2-.1.2-.1.1-.3.2-.5.3-.2.1-.4.2-.7.2-.3 0-.6 0-.8-.1s-.3-.3-.4-.5c0-.2 0-.3.1-.5s.2-.3.4-.4c.2-.1.4-.2.6-.2.2 0 .4 0 .5.1.1.1.2.2.2.3 0 .2-.1.3-.2.5-.2.1-.4.3-.8.4.1.1.3.1.5.1.1 0 .3-.1.5-.2s.3-.2.5-.3l.1-.1.1.1zm-1.7-.3c-.1.1-.1.2-.1.4.2-.1.3-.1.5-.2.1-.1.2-.2.1-.3 0 0 0-.1-.1-.1h-.2l-.2.2z" style="fill:#a52929"/>
        <path d="M50 17.6v.1c0 .1 0 .2-.1.2-.1.1-.3.2-.5.3-.2.1-.4.1-.6.1-.3 0-.5-.1-.7-.3-.2-.2-.2-.4-.3-.7 0-.3 0-.6.1-1s.2-.7.5-1c.2-.3.5-.4.8-.4.2 0 .3.1.4.2.1.1.1.3.1.5 0 .3-.1.6-.4 1-.2.4-.5.8-.9 1.2 0 .1.1.2.1.2.1 0 .1.1.2.1s.3 0 .4-.1c.1-.1.2-.2.4-.3l.1-.1c.3-.1.4-.1.4 0zm-1.1-2c-.1.2-.2.5-.3.8-.1.3-.1.6-.1.9l.6-.9c.1-.3.2-.6.2-.8 0-.2-.1-.3-.2-.3 0 0-.1.1-.2.3z" style="fill:#a52929"/>
        <path d="M51.6 17.6v.1c0 .1 0 .2-.1.2-.2.1-.3.2-.5.3-.2.1-.4.1-.6.1-.3 0-.5-.1-.6-.3-.1-.2-.2-.4-.2-.8 0-.3.1-.6.2-1s.3-.7.5-1c.2-.3.5-.4.8-.4.2 0 .3.1.4.2.1.1.1.3.1.5 0 .3-.2.6-.4 1-.3.4-.6.7-1 1.1 0 .1.1.2.1.2.1 0 .1.1.2.1s.3 0 .4-.1c.1-.1.2-.1.4-.3h.1l.2.1zm-.9-2c-.1.2-.2.4-.3.7-.1.3-.1.6-.1.9.3-.3.5-.6.6-.8.2-.3.3-.5.3-.8 0-.2 0-.3-.1-.3-.2 0-.3.1-.4.3z" style="fill:#a52929"/>
        <path d="M54 17.6v.1c0 .1-.1.2-.2.2h-.7c-.1.2-.2.3-.4.4-.2.1-.4.1-.6.1-.2 0-.4-.1-.5-.1l-.3-.3c-.1-.1-.1-.3-.1-.4 0-.2.1-.3.2-.5.1-.1.3-.2.4-.3.2-.1.4-.1.6-.1.3 0 .5.1.6.3.1.1.2.3.2.5h.6c.1.1.1.1.2.1-.1 0 0 0 0 0zm-1.6.4c.1-.1.1-.1.2-.3-.1-.1-.2-.1-.2-.2s-.1-.2-.1-.3v-.1c-.1 0-.3 0-.4.1-.1.1-.2.2-.2.4 0 .1 0 .2.1.3.1.1.1.1.2.1.3.1.3.1.4 0zM42.9 23l.1.1v.2c-.1.2-.2.3-.3.4-.1.1-.2.2-.4.3-.1 0-.2.1-.3 0-.1 0-.2-.1-.2-.3 0-.1-.1-.2-.1-.4s0-.3-.1-.3h-.1s-.1.1-.1.2-.1.2-.1.4v.5c0 .2-.1.3-.2.4h-.2l-.2-.2c0-.1-.1-.1-.1-.2s-.1-.2-.1-.3c-.2-.3-.3-.7-.4-1.1-.1-.4-.1-.8 0-1.1.1-.3.2-.5.5-.7.1-.1.3-.1.4 0l.3.3c.1.2.1.5 0 .8-.1.3-.2.7-.4 1.2 0 .1.1.2.1.4 0-.2 0-.4.1-.6.1-.2.1-.3.2-.4.1-.1.2-.2.3-.2.2-.1.3 0 .4.1 0 .1.1.3.1.5s0 .4.1.4c0 .1.1.1.2.1s.1-.1.2-.2.1-.2.2-.4c0 .1 0 .1.1.1zm-2.2-1.4v.5c0 .2.1.5.1.7.1-.2.2-.5.2-.7v-.6c0-.1-.1-.1-.1-.2h-.1c0 .1-.1.1-.1.3z" style="fill:#a52929"/>
        <path d="M42.9 23.7c-.1-.1-.2-.2-.3-.4-.1-.2-.1-.4 0-.6 0-.2.1-.4.3-.5.1-.2.3-.3.5-.3h.1s.1 0 .1.1c.1 0 .1 0 .2-.1.1 0 .2 0 .2.1v.4c0 .3 0 .5.1.6 0 0 0 .1.1.1h.1c.1 0 .1-.1.2-.1.1-.1.1-.2.2-.4l.1-.1h.1s0 .1.1.1v.2c-.1.1-.2.3-.3.4-.1.1-.2.2-.3.2h-.3c-.1 0-.2-.1-.2-.2-.1.2-.2.4-.4.4-.3.2-.4.2-.6.1zm.6-.5c0-.1.1-.2 0-.3v-.7c-.1 0-.2.1-.3.2-.1.1-.1.2-.1.4v.4c0 .1.1.1.1.1h.2c.1 0 .1-.1.1-.1z" style="fill:#a52929"/>
        <path d="M46.9 22.1V22.4c-.1.1-.2.3-.3.4-.1.1-.3.2-.4.2-.1 0-.3 0-.4-.1-.1.1-.3.2-.4.2.1.5.1.9 0 1.2 0 .3-.2.5-.4.6-.1 0-.2 0-.3-.1-.1-.1-.2-.2-.2-.4-.1-.2-.1-.5 0-.9 0-.3.1-.7.3-1.2-.1-.3-.1-.6-.2-.7 0-.1 0-.1.1-.2s.1-.1.2-.1h.1l.1.1v.1c.1-.1.1-.2.2-.3.1-.1.2-.1.3-.1.2 0 .3 0 .4.1.1.1.2.2.2.4v.4c0 .1-.1.2-.1.4h.1c.1 0 .2-.1.2-.1l.3-.3c0 .1 0 .1.2.1-.1 0-.1 0 0 0zm-2 2.1c0-.3-.1-.6-.2-1.1-.1.3-.1.5-.1.7v.6c0 .1 0 .1.1.2h.1c.1 0 .1-.1.1-.4zm.6-1.5c.1-.1.1-.2.1-.3V22c0-.1 0-.1-.1-.2h-.1c-.1 0-.2.1-.3.3 0 .1.1.3.1.5v.3c.1-.1.2-.1.3-.2z" style="fill:#a52929"/>
        <path d="M48.9 22v.1c0 .1 0 .2-.1.2-.1.1-.2.2-.4.3-.1.1-.3.1-.4.2-.1 0-.3 0-.4-.1-.1.1-.3.2-.5.2 0 .5 0 .9-.1 1.2-.1.3-.2.5-.4.5-.1 0-.2 0-.3-.1-.1-.1-.1-.2-.2-.4v-.9c0-.4.2-.7.4-1.1 0-.4-.1-.6-.1-.7 0-.1 0-.1.1-.2s.1-.1.3-.1h.1l.1.1v.1c.1-.1.2-.2.3-.2.1-.1.2-.1.3-.1.2 0 .3 0 .4.1.1.1.2.2.2.4v.4c0 .1-.1.2-.2.3h.1c.1 0 .2 0 .3-.1l.3-.3c0 .2 0 .1.2.2-.1-.1 0-.1 0 0zm-2.1 1.8c0-.3 0-.6-.1-1.1-.1.3-.1.5-.2.7v.6c0 .1 0 .1.1.2l.1.1s0-.2.1-.5zm.6-1.4c.1-.1.1-.2.2-.3s.1-.2 0-.4c0-.1 0-.1-.1-.2h-.1c-.1 0-.2.1-.3.3 0 .1 0 .3.1.5v.3c.1-.1.2-.1.2-.2z" style="fill:#a52929"/>
        <path d="M48.7 22.6c-.1-.1-.1-.3-.1-.4v-.4c0-.2.1-.3.1-.5 0-.1.1-.1.1-.2 0 0 .1 0 .2-.1.1 0 .2 0 .2.1s0 .2-.1.4c-.1.3-.1.5-.1.5v.2l.1.1s.1 0 .2-.1l.3-.3.1-.1h.1v.1c0 .1 0 .2-.1.2-.3.3-.5.4-.8.4 0 .3-.1.2-.2.1zm.1-1.9c-.1 0-.1-.1-.1-.2s0-.2.1-.2c.1-.1.2-.1.3-.1.1 0 .2 0 .3.1.1 0 .1.1.1.2s0 .2-.1.2c-.1.1-.2.1-.3.1-.1 0-.2 0-.3-.1z" style="fill:#a52929"/>
        <path d="M49.7 22.6c0-.1-.1-.3-.1-.5 0-.3.1-.6.2-.9 0-.1.1-.1.1-.2h.4v.1s0 .1-.1.3c0 .1-.1.2-.1.3v.3c.1-.2.2-.4.3-.5.1-.1.2-.2.4-.3.1 0 .2-.1.3-.1.2 0 .3.1.3.3 0 .1-.1.3-.1.5-.1.2-.1.3-.1.4 0 .1 0 .1.1.2.1 0 .1 0 .2-.1s.2-.1.3-.3h.1s.1 0 .1.1v.1c0 .1 0 .2-.1.2-.1.1-.3.2-.4.3-.1.1-.3.1-.5.1-.1 0-.2-.1-.3-.1-.1-.1-.1-.2-.1-.3 0-.1 0-.2.1-.4 0-.2.1-.3.1-.3v-.1s-.1 0-.2.1-.1.2-.2.3c-.1.1-.1.3-.2.4 0 .1-.1.2-.1.2s-.1.1-.2.1-.2-.1-.2-.2z" style="fill:#a52929"/>
        <path d="M53.6 22.3v.1c0 .1-.1.2-.1.2-.1.1-.3.2-.5.2-.2.1-.4.1-.6 0-.3 0-.5-.1-.6-.3-.1-.2-.2-.4-.2-.6 0-.2.1-.3.2-.5.1-.1.2-.2.4-.3.2-.1.3-.1.5-.1s.3.1.4.2c.1.1.1.2.1.4s-.1.3-.3.4c-.2.1-.4.2-.7.2.1.1.2.2.4.2.1 0 .3 0 .4-.1.2-.1.3-.1.5-.2 0 .2 0 .2.1.2zm-1.3-.6c-.1.1-.1.2-.2.4.2 0 .3 0 .4-.1.1-.1.2-.1.2-.2v-.1l-.1-.1c-.1 0-.2 0-.3.1z" style="fill:#a52929"/>
        <path d="M53.6 23.1c-.1-.1-.1-.1-.1-.2s0-.1.1-.1h.4v-.2c0-.1 0-.1-.1-.2 0-.1-.1-.1-.1-.2l-.3.3c-.1.1-.2.1-.3.2H53s-.1 0-.1-.1v-.1s0-.1.1-.1h.1c.2-.1.3-.3.4-.3l.2-.2.3-.3c.1-.1.2-.1.4-.1.1 0 .1 0 .2.1v.2s0 .1-.1.1c-.1.1-.1.1-.1.2v.1s.1.1.1.2c.1.1.1.2.1.3V23c.1 0 .3-.1.6-.2h.1s.1 0 .1.1v.1c0 .1-.1.2-.1.2-.2.1-.3.2-.5.2h-.5c-.1.1-.3.1-.4 0l-.3-.3z" style="fill:#a52929"/>
        <path d="M55.3 23.5c-.1-.1-.1-.2-.1-.2 0-.1.1-.1.1-.1h.4V23c0-.1 0-.1-.1-.2 0-.1-.1-.1-.1-.2l-.3.3c-.1.1-.2.1-.3.2h-.2s-.1 0-.1-.1v-.1s0-.1.1-.1h.1c.2-.1.3-.2.4-.3l.2-.2.3-.3c.1-.1.2-.1.4-.1.1 0 .1 0 .2.1v.2s0 .1-.1.1c-.1.1-.1.1-.1.2v.1c0 .1 0 .1.1.2s.1.2.1.3V23.4c.1 0 .3-.1.6-.2h.1s.1 0 .1.1v.1c0 .1-.1.1-.2.2-.2.1-.3.1-.5.2-.1 0-.3 0-.5-.1h-.4l-.2-.2z" style="fill:#a52929"/>
    </g>
</svg>
