<?xml version="1.0" encoding="utf-8"?>
<!-- Generator: Adobe Illustrator 25.0.0, SVG Export Plug-In . SVG Version: 6.00 Build 0)  -->
<svg version="1.1" id="Layer_1" xmlns="http://www.w3.org/2000/svg" xmlns:xlink="http://www.w3.org/1999/xlink" x="0px" y="0px"
	 viewBox="0 0 65.8 65" style="enable-background:new 0 0 65.8 65;" xml:space="preserve">
<style type="text/css">
	.st0{fill:none;stroke:#FFD274;stroke-width:0.75;stroke-linecap:round;stroke-linejoin:round;stroke-miterlimit:2.2866;}
	.st1{fill:#A52929;}
	.st2{fill:#E769C0;}
	.st3{fill:#FFFFFF;}
	.st4{fill:#7C82EA;}
	.st5{fill:#3768BE;}
	.st6{fill:#E0755E;}
	.st7{fill:#A52929;fill-opacity:0.86;}
	.st8{fill:none;stroke:#7C82EA;stroke-width:0.25;stroke-linecap:round;stroke-linejoin:round;stroke-miterlimit:2.2866;}
	.st9{fill:#FFD274;}
	.st10{fill:#DE735A;}
	.st11{fill:none;stroke:#0D2E3A;stroke-width:0.25;stroke-linecap:round;stroke-linejoin:round;stroke-miterlimit:2.2866;}
	.st12{fill:#668DDB;}
	.st13{fill:#FDDB81;}
</style>
<path class="st0" d="M19.2,6.2c0,0,13.2-11.7,26.8-1.8"/>
<path class="st0" d="M24,16c2.5-1.4,10.3-5.5,17.6-0.9"/>
<path class="st1" d="M46,3.9c0-0.1,0.1-0.2,0.2-0.2l0.4,0.1c0.1,0,0.1,0.1,0.1,0.3l-6.9,16.5c0,0.1-0.1,0.2-0.2,0.2l-0.4-0.1
	c-0.1,0-0.1-0.1-0.1-0.3L46,3.9z"/>
<path class="st1" d="M19.5,6c0-0.1-0.1-0.2-0.2-0.2l-0.4,0.1c-0.1,0-0.1,0.2-0.1,0.3L26,21.3c0,0.1,0.1,0.2,0.2,0.2l0.4-0.1
	c0.1,0,0.1-0.2,0.1-0.3L19.5,6z"/>
<path class="st2" d="M13.6,12.9c0,0,0.4-0.7,1-0.4c0,0,0.2-0.2,0.4-0.3c0,0.1-0.1,0.4-0.1,0.4s0.5,1.3-0.3,2.2
	c-0.2,0.3-1.6,1.7-2.9,0.2c-0.1-0.1-0.1-0.2-0.1-0.3c0-0.2,0.1-0.5,0.3-0.7l0.4,0.2c-0.2-0.2-0.3-0.4-0.4-0.6c0,0-0.3-1.3,0.6-2.1
	h0.2C12.8,12,13.2,12.8,13.6,12.9z"/>
<path class="st3" d="M11.9,13c0.1,0.2,0.3,0.7,0.7,0.9V14h-0.1c-0.3-0.2-0.5-0.5-0.6-0.8V13z M12.1,12.4c0.1,0.1,0.3,0.8,0.7,1.1
	v0.1h-0.1c-0.3-0.3-0.6-0.8-0.7-1C12,12.5,12,12.5,12.1,12.4z M12.3,11.9c0,0,0.3,0.8,0.7,1.2v0.1h-0.1c-0.4-0.3-0.6-0.9-0.7-1.2
	C12.3,12,12.3,12,12.3,11.9z"/>
<path d="M13.6,12.9l0.1-0.1c0,0,0.2,0.1,0.3,0.1c0,0,0.1,0,0.1,0.1c0,0,0,0.1-0.1,0.1C13.8,13.1,13.6,12.9,13.6,12.9z M12,14.2
	c0,0,0.4,0.6,1,0.7h0.1v-0.1c-0.5-0.1-0.7-0.3-0.7-0.3S12,14.2,12,14.2z"/>
<path class="st4" d="M52.4,19.5c0,0-0.4-0.7-1-0.4c0,0-0.2-0.2-0.4-0.3c0,0.1,0.1,0.4,0.1,0.4s-0.5,1.3,0.3,2.2
	c0.2,0.3,1.6,1.7,2.9,0.2c0.1-0.1,0.1-0.2,0.1-0.3c0-0.2-0.1-0.5-0.3-0.7l-0.4,0.2c0.2-0.2,0.3-0.4,0.4-0.6c0,0,0.3-1.3-0.6-2.1
	h-0.2C53.3,18.6,52.8,19.4,52.4,19.5L52.4,19.5z"/>
<path class="st3" d="M54.1,19.5c-0.1,0.2-0.3,0.7-0.7,0.9v0.1h0.1c0.3-0.2,0.5-0.5,0.6-0.8L54.1,19.5L54.1,19.5z M54,19
	c-0.1,0.1-0.3,0.8-0.7,1.1v0.1h0.1c0.3-0.3,0.6-0.8,0.7-1C54,19.1,54,19,54,19L54,19z M53.7,18.5c0,0-0.3,0.8-0.7,1.2v0.1h0.1
	c0.4-0.3,0.6-0.9,0.7-1.2L53.7,18.5z"/>
<path d="M52.4,19.5L52.4,19.5c-0.1-0.1-0.3,0-0.4,0c0,0-0.1,0-0.1,0.1c0,0,0,0.1,0.1,0.1C52,19.7,52.4,19.5,52.4,19.5z M54.1,20.8
	c0,0-0.4,0.6-1,0.7H53v-0.1c0.5-0.1,0.7-0.3,0.7-0.3S54.1,20.8,54.1,20.8z"/>
<g>
	<path class="st2" d="M7.7,49.2v-2.8h0.2v2.9c0,0-0.7,0.5-0.9,1.1c1.4-0.7,2.5-1,3.9-1c1,0,1.8,0.2,2.8,0.6l-0.1-3.6h0.2l0.1,3.7
		v0.1h-0.1c-1-0.4-1.9-0.7-2.9-0.6c-1.4,0.1-2.4,0.3-4,1.1H6.8c0,0-0.1-0.1,0-0.1C6.8,49.9,7.5,49.3,7.7,49.2z"/>
	<path class="st2" d="M35.3,63.7c-0.1-0.2-0.5-0.8-1.5-1c0,0-0.1,0-0.1-0.1l-0.9-3.8l0.2-0.1l0.9,3.7c1.5,0.3,1.7,1.3,1.7,1.3v0.1
		h-7.7c-0.1,0-0.1,0-0.1-0.1l-0.9-3.2l0.2-0.1l0.8,3.1h7.4V63.7z"/>
	<path class="st4" d="M7.7,46.4h6.1v-11l8.3,5.5L27,60.7l6.1-1.8l-4.2-22.8L20,30.3c0,0-3.9-2-7.3-3.8c-1.1-0.6-2.4-0.5-3.5,0.1
		c-1.1,0.7-1.7,1.8-1.7,3.1C7.6,36.4,7.7,46.4,7.7,46.4z"/>
	<path class="st5" d="M23.7,32.7l0.2,0.1L23,34.3l0.5,0.4l1-1.5l0.2,0.1l-1.1,1.6h-0.2l-0.7-0.5c0,0-0.1-0.1,0-0.1L23.7,32.7z
		 M9.3,26.7H9.2c-1.3,0.9-1.4,2-1.4,2v0.1h0.4c0.4,0.1,0.9,0.3,0.9,0.3h0.1c0,0,0.1,0,0.1-0.1c0.3-0.7,1.1-1.3,1.1-1.3v-0.2
		C9.9,27.1,9.3,26.7,9.3,26.7z M9.2,27c-0.9,0.7-1.1,1.4-1.2,1.7h0.3C8.6,28.8,9,28.9,9.1,29c0.3-0.6,0.8-1.1,1-1.2
		C9.8,27.3,9.4,27.1,9.2,27z M7.7,45.4v-0.2h6.1v0.2h-1.6v1H12v-1h-0.3v1h-0.2v-1H9v1H8.8v-1C8.8,45.4,7.7,45.4,7.7,45.4z
		 M32.9,57.9v0.2l-2,0.6l0.3,0.7L31,59.5l-0.3-0.7h-0.2l0.3,0.8l-0.2,0.1l-0.3-0.8l-2.1,0.6l0.3,0.8l-0.2,0.1L28,59.6l-1.2,0.3
		l-0.1-0.2C26.7,59.7,32.9,57.9,32.9,57.9z M28.7,48.7C28.6,48.7,28.6,48.7,28.7,48.7L28.7,48.7l0.3,1.9v0.1h0.1l1.7-0.4h0.1v-0.1
		l-0.4-1.8c0-0.1-0.1-0.1-0.1-0.1S28.7,48.7,28.7,48.7z M28.8,48.9l0.3,1.6l1.5-0.3l-0.3-1.6L28.8,48.9z"/>
	<g>
		<path class="st6" d="M27.9,35c0.2,1.2,1.2,5,4.3,4.5c1.1-0.2,3-1.1,2.8-4.9c-0.1-4.1-0.2-7-0.7-10.1c-0.1-0.5-0.2-0.9-0.4-1.2
			s-0.4-0.2-0.3,0.2c-0.4-0.5-0.9-0.5-0.8-0.1c0,0-0.6-0.2-0.4,0.3c0,0-0.5-0.1-0.3,0.3s0.1,1.8,0,1.9c-0.1,0.1-0.2-0.4-0.5-0.7
			c-0.1-0.1-0.3-0.2-0.3,0.3c0,0-0.3,5.3-1,8.7C30.3,34.2,27.9,35,27.9,35z"/>
		<path class="st1" d="M32.9,26.6c-0.1-0.1-0.1-0.2-0.2-0.3l-0.4-0.4l-0.1-0.1c0,0,0.1,0,0.1-0.1l0.1,0.1c0.1,0.1,0.3,0.2,0.4,0.4
			C32.9,26.3,32.9,26.4,32.9,26.6c0.3-0.3,0.5-0.4,0.8-0.5c0,0,0.1,0,0.1,0.1c0,0,0,0.1-0.1,0.1c-0.2,0-0.5,0.2-0.6,0.4
			c0,0.1,0.1,0.1,0.1,0.2v0.2l-0.1,0.1H33c-0.1,0-0.1-0.1-0.1-0.2C32.7,26.8,32.8,26.7,32.9,26.6C32.8,26.6,32.8,26.6,32.9,26.6z
			 M32.9,26.7V27V26.7C32.9,26.8,32.9,26.8,32.9,26.7z"/>
		<path class="st7" d="M32.5,23.6v-0.2c0,0,0.4,0.6,0.5,1.8c0,0.1,0,0.1-0.1,0.1s-0.1,0-0.1-0.1C32.7,24.2,32.4,23.6,32.5,23.6
			L32.5,23.6z M32.9,23v0.2h-0.1c0,0,0.5,0.9,0.5,1.9c0,0.1,0,0.1,0.1,0.1s0.1,0,0.1-0.1C33.5,24,32.9,23,32.9,23z M33.7,23.2v0.2
			c-0.1-0.1-0.1-0.2-0.2-0.2c0,0,0.4,1.3,0.5,2c0,0.1,0,0.1,0.1,0.1s0.1,0,0.1-0.1C34.1,24.5,33.7,23.2,33.7,23.2z"/>
		<path class="st1" d="M29.9,34.3v1.4c0,0.1,0.1,0.1,0.1,0.1c0.1,0,0.1-0.1,0.1-0.1c0.1-0.9,0.1-1.6,0.1-1.6S29.9,34.3,29.9,34.3z"
			/>
	</g>
	<g>
		<path class="st6" d="M24.9,25.5l0.3-0.5v-0.1c-0.4-0.5-0.4-1.1,0-1.6c0.5-0.7,1.2-1.5,2.1-1.2c0,0,1.4,0.6,1,1.9l-0.1,0.3
			c0,0,0.5,0.3,0.1,0.7c0,0-0.4,0.3-0.7,0.1l-0.2,1.7C27.4,26.8,25.5,27.2,24.9,25.5z"/>
		<path class="st1" d="M25.2,25L25.2,25c-0.1,0.1,0.1,0.2,0.2,0.3c0.3,0.2,0.7,0.3,1.3,0.3c0.1,0,0.1-0.1,0.1-0.1
			c0-0.1-0.1-0.1-0.1-0.1c-0.5,0-0.9-0.1-1.2-0.3C25.4,25.1,25.2,25,25.2,25z M28.2,24.3l0.1-0.2h-0.1c-0.1,0-0.3,0-0.6,0.2
			c-0.1,0-0.1,0.1,0,0.2c0,0.1,0.1,0.1,0.2,0C27.9,24.3,28,24.3,28.2,24.3C28.1,24.3,28.2,24.3,28.2,24.3z M27.4,25.2l0.2,0.2v-0.3
			L27.5,25h-0.2C27.3,25.1,27.3,25.2,27.4,25.2z"/>
		<path class="st1" d="M26.2,24c-0.1,0.1-0.2,0.2-0.1,0.3c0.1,0.1,0.2,0.1,0.3,0.1c0.1,0,0.3-0.1,0.4-0.1c0,0,0.1-0.1,0-0.1
			c0,0-0.1-0.1-0.1,0c-0.1,0-0.2,0.1-0.3,0.1c-0.1,0-0.1,0-0.2-0.1v-0.1C26.2,24.1,26.2,24.1,26.2,24C26.2,24.1,26.3,24,26.2,24
			L26.2,24L26.2,24z"/>
		<path class="st1" d="M26.7,24.4c0.2-0.1,0.2-0.3,0.1-0.4s-0.2-0.1-0.3-0.1c-0.2,0-0.3,0.1-0.4,0.1v0.1c0,0,0.1,0.1,0.1,0
			c0.1-0.1,0.2-0.1,0.3-0.1h0.2c0,0,0,0.1-0.1,0.2c0,0-0.1,0.1,0,0.1C26.6,24.4,26.6,24.4,26.7,24.4z"/>
	</g>
	<g>
		<path d="M21.4,24.9c0,0,1.2-0.2,3.4,0.8h0.1l-0.1-0.2v-0.1h-0.1c-2.3-1-3.5-0.8-3.5-0.8c-0.1,0-0.1,0.1-0.1,0.1
			C21.3,24.8,21.4,24.9,21.4,24.9z M27.4,26.6v0.2c0.5,0.2,2,1,3.4,3.2l0.1,0.1v-0.5C29.5,27.5,28,26.8,27.4,26.6
			C27.5,26.6,27.4,26.6,27.4,26.6z M20.2,30.3l0.7-0.4c0,0,0.1-0.1,0-0.2l-0.1-0.1l-0.7,0.5L20.2,30.3z"/>
		<path d="M20.4,27.9l0.6,3l0.3,0.2l-0.6-3.2c0-0.1-0.1-0.1-0.1-0.1C20.5,27.8,20.4,27.8,20.4,27.9z M27.2,32.2l0.5,3.1l0.4,0.3
			l-0.7-3.4c0-0.1-0.1-0.1-0.1-0.1C27.2,32.1,27.2,32.2,27.2,32.2z"/>
		<path d="M27.1,34.9l0.1-2.7c0.4,1,0.5,2.2,0.7,3.3C27.7,35.3,27.4,35.1,27.1,34.9z"/>
	</g>
	<g>
		<path class="st6" d="M24.8,16.3c-4.8,3.2-7,4.8-10.9,9.1c-1,1.1-1.2,2.7-0.6,4c0.1,0.3,0.3,0.6,0.5,0.9c1.1,1.5,3.2,2,4.8,1l1.6-1
			L18.1,28l7.7-7.7c0,0,0.6-0.4,0.7,0.1c0,0,0.5,0,0.4-0.8c0,0,0.5-0.4,0.2-0.9c0,0,0.3-0.7-0.2-1.1c0,0,0-0.6-0.6-0.8
			c0,0-0.7-0.2-1.4,0C24.9,16.8,24.8,16.3,24.8,16.3z"/>
		<path class="st1" d="M18.2,27.9l0.1,0.2l-1.2,1.1h-0.2V29L18.2,27.9z M27,19.7c-0.1-0.2-0.4-0.3-0.7-0.3c-0.5,0-0.9,0.1-0.9,0.1
			c-0.1,0-0.1,0-0.1-0.1s0-0.1,0.1-0.1c0,0,0.5-0.2,1-0.1c0.3,0,0.6,0.1,0.8,0.4C27.1,19.5,27,19.6,27,19.7z M27.2,18.7
			c-0.9-0.6-2-0.1-2-0.1c-0.1,0-0.1,0-0.1-0.1s0-0.1,0.1-0.1c0,0,1.2-0.5,2.2,0.1C27.2,18.6,27.2,18.7,27.2,18.7z M27,17.6
			c-1.1-0.5-2.2,0.1-2.2,0.1h-0.1v-0.1c0,0,1.1-0.6,2.2-0.2C27,17.4,27,17.6,27,17.6z M24.9,16.6c0,0.1,0.1,0.2,0.1,0.2L24.5,17
			c-0.1,0-0.1,0-0.1-0.1s0-0.1,0.1-0.1L24.9,16.6z"/>
	</g>
</g>
<g>
	<path class="st1" d="M39.1,20.2c0,0.1-0.1,0.2-0.2,0.3c-0.1,0.1-0.2,0.1-0.2,0c-0.1,0-0.1-0.3-0.2-0.5c0,0-0.1-0.3,0.1-0.6
		c0,0-0.4-0.3,0-0.7c0,0-0.2-0.5,0.2-0.8c0,0-0.3-0.5,0.4-0.9c0.2-0.1,0.8-0.7,2,0.1l3.2,2.1l-2.1,3.2c0,0-2.7-2.6-3-2.7
		C39.4,19.9,39.2,19.7,39.1,20.2z"/>
	<path d="M38.6,19.4c0.2-0.2,0.4-0.4,0.8-0.4c0.2,0,0.5,0.1,0.8,0.4c0,0.1,0.1,0.1,0,0.2H40c-0.2-0.2-0.4-0.3-0.6-0.3
		c-0.3,0-0.6,0.2-0.7,0.4C38.6,19.5,38.6,19.4,38.6,19.4z M38.6,18.6c0,0.1,0,0.1,0.1,0.2c0,0,0.2-0.3,0.5-0.3
		c0.3-0.1,0.6-0.1,1.1,0.1c0.1,0,0.1,0,0.2-0.1c0-0.1,0-0.1-0.1-0.1c-0.5-0.3-0.9-0.2-1.2-0.1S38.6,18.6,38.6,18.6z M38.8,17.9v0.2
		c0.3-0.2,0.9-0.6,1.6-0.2h0.2c0-0.1,0-0.1-0.1-0.1C39.8,17.3,39.2,17.6,38.8,17.9C38.8,17.8,38.8,17.9,38.8,17.9z"/>
	<path class="st1" d="M31.2,29.4c0,0-0.1-4.7,0.7-5.1c0,0,0.3-0.1,0.3,0.4c0,0,0.9-1.5,1.5-1.7c0.1,0,0.4-0.1,0.3,0.2
		c0,0,0.4-0.1,0.4,0.3c0,0,0.4,0,0.3,0.4c0,0,0.4,0.1,0.2,0.6c0,0-0.9,1.6-0.3,5C34.6,29.5,31.2,29.4,31.2,29.4z"/>
	<path d="M34.8,24c0,0,0.1,0,0.2,0.1c-0.1,0.1-0.6,0.5-1.2,1.5c0,0-0.1,0.1-0.1,0c0,0-0.1-0.1,0-0.1C34.2,24.6,34.6,24.2,34.8,24z
		 M32.1,24.5c0,0.1,0,0.2,0.1,0.2c-0.2,0.3-0.3,0.6-0.3,0.6l-0.1,0.1l-0.1-0.1C31.8,25.2,31.9,24.8,32.1,24.5z M34.4,23.6
		c0,0,0.1,0,0.2,0.1c-0.2,0.2-0.9,0.9-1.4,1.7c0,0-0.1,0.1-0.1,0c0,0-0.1-0.1,0-0.1C33.5,24.5,34.2,23.8,34.4,23.6z M34,23.2h0.2
		c-0.3,0.2-0.9,0.8-1.4,1.8c0,0-0.1,0.1-0.1,0c0,0-0.1-0.1,0-0.1C33.1,24.1,33.7,23.5,34,23.2z"/>
	<path class="st1" d="M42.9,24c0,0-1.5,5-7.8,6.4c0,0,0.5-2,3.2-3.5l-0.1-1.6c0,0-0.8,0.3-0.9-0.5c0-0.2,0.2-0.3,0.4-0.4
		c0,0,0.4,0.7,1.1,0.4c0.3-0.1,0.8-0.8,0.9-2c0,0,0.4,0.2,0.5-0.2c0,0,0.3,0.7,0.5,1.2c0.1,0.3,0,0.7-0.2,0.9l0.2,0.5
		C40.6,25.4,41.9,23.8,42.9,24z"/>
	<path d="M39.8,24.2c-0.1,0-0.1,0.1-0.2,0.1c-0.1,0.1-0.1,0.1,0,0.2c0,0.1,0.1,0.1,0.2,0.1s0.2,0,0.3-0.1v-0.1h-0.4v-0.1L39.8,24.2
		C39.9,24.3,39.9,24.3,39.8,24.2C39.9,24.2,39.8,24.2,39.8,24.2z"/>
	<path d="M40.1,24.6L40.1,24.6c0.1-0.2,0.2-0.2,0.1-0.3c0-0.1-0.1-0.1-0.1-0.1h-0.3c0,0-0.1,0.1,0,0.1c0,0,0.1,0.1,0.1,0h0.3v0.1
		l-0.1,0.1V24.6C40,24.6,40,24.6,40.1,24.6z M40.4,24.8V25c-0.2,0.2-0.6,0.5-1.1,0.5c0,0-0.1,0-0.1-0.1c0,0,0-0.1,0.1-0.1
		C39.8,25.3,40.2,25,40.4,24.8z M40.7,25.7l-0.1-0.3l0.1-0.1V25.7C40.8,25.6,40.8,25.7,40.7,25.7z"/>
	<path d="M37.5,23.7c-0.3,0.1-0.7,0.2-1,0.1c-0.7-0.1-1.4-0.5-1.8-1.1c-0.3-0.4-0.6-0.8-1.1-1.1c-0.6-0.4-1.3-0.1-1.9,0
		c-1.1,0.2-2.4-0.1-3-1.1c-0.2-0.3-0.3-0.6-0.3-0.9c0-0.4,0.1-0.8,0.3-1.1c0.5-1.1,1.9-1.8,3.1-1.4c0.6,0.2,1.1,0.6,1.4,1.1
		c0.3,0.4,0.5,0.9,0.8,1.4c0.1,0.2,0.2,0.5,0.5,0.7c0.3,0.1,0.5-0.1,0.7-0.3c0.3-0.3,0.7-0.7,1.2-0.7c0.6-0.1,0.9,0.4,1.2,0.8
		c0.5,0.8,0.6,1.6,0.7,2.5c0.1-0.1,0.3-0.2,0.4-0.2c0,0,1.2-0.3,1.6,0.6c0,0,0,0.4-0.5,0.2c0,0,0.1,1.8-1.1,2
		c-0.2,0-0.6,0.1-0.9-0.5C37.7,24.5,37.5,24.1,37.5,23.7z"/>
	<g>
		<path class="st8" d="M50.9,47.1v2.5c0,0,6.2-0.3,7.4,0.7c0,0,0.2-0.6-1.2-1.2v-3.7"/>
		<path class="st4" d="M32.3,63.4l0.6-2.6c0.1,0,0.2,0,0.2,0.1l-0.6,2.7c0,0,0,0.1-0.1,0.1c0,0-0.5,0.1-1.1,0.4
			c-0.3,0.2-0.6,0.4-0.8,0.7h7.6l0.5-2.4h0.2l-0.5,2.5c0,0.1-0.1,0.1-0.1,0.1h-7.8c0,0-0.1,0-0.1-0.1v-0.1c0.2-0.4,0.6-0.7,1-0.9
			C31.7,63.5,32.1,63.4,32.3,63.4z"/>
		<path class="st2" d="M57,45.2V31.9c0-1.5-0.8-2.9-2-3.7s-2.8-0.9-4.2-0.3c-2.8,1.2-6,2.7-6,2.7c-0.1,0-0.1,0-0.1-0.1
			s0-0.1,0.1-0.1c0,0,3.2-1.5,6-2.7c1.4-0.6,3.1-0.5,4.4,0.4s2.1,2.3,2.1,3.9v13.5h-0.1L51,47.3h-0.1v-0.1l-0.4-11.1L45.1,39
			l-6.3,23.2v0.1h-0.1L33,60.8h-0.1c-0.2-0.1,2.3-13.3,3.2-20.1c0.9-7.4,3.9-7.8,4-7.8s0.1,0,0.1,0.1s0,0.1-0.1,0.1
			c0,0-0.9,0.4-1.6,1.3c-0.8,0.9-1.6,2.8-2.1,6.3c-0.9,6.9-2.4,13.9-3.2,20l5.5,1.4l6-23.3c0,0,0-0.1,0.1-0.1l5.6-3h0.1l0.1,0.1
			L51,46.9C51,46.9,57,45.2,57,45.2z"/>
		<path class="st2" d="M38.3,61.9L38.3,61.9c-0.4-0.5-0.6-1.3-0.6-2.1s0.2-1.5,0.5-2c0.2-0.4,0.5-0.6,0.9-0.6c0.3,0,0.6,0.2,0.9,0.6
			l-0.2,0.8c-0.1-0.2-0.1-0.4-0.2-0.5c-0.1-0.2-0.3-0.3-0.4-0.3c-0.2,0-0.3,0.1-0.4,0.3c-0.3,0.4-0.4,1-0.4,1.7s0.2,1.3,0.4,1.7
			l0.3,0.3L39,62L38.3,61.9z M33.6,57.6c0.7-0.3,1.4-0.5,1.9-0.4c0.4,0,0.7,0.2,0.9,0.5c0.1,0.3,0.1,0.6-0.1,1
			c-0.3,0.5-0.8,1-1.5,1.4c-0.6,0.3-1.2,0.5-1.6,0.5l0.1-0.5c0.4,0,0.9-0.2,1.3-0.4c0.6-0.3,1.1-0.7,1.3-1.1
			c0.1-0.2,0.2-0.4,0.1-0.5c-0.1-0.2-0.3-0.2-0.5-0.2c-0.5,0-1.1,0.1-1.7,0.4c-0.1,0-0.2,0.1-0.2,0.1V57.6z M34.5,52.4h0.3
			c0.5,0,1.2,0.3,1.9,0.7c0.7,0.5,1.1,1,1.3,1.5c0.2,0.4,0.1,0.8,0,1c-0.2,0.3-0.5,0.4-0.9,0.4c-0.5,0-1.2-0.3-1.9-0.7
			c-0.4-0.3-0.7-0.6-1-0.9l0.1-0.8c0.2,0.4,0.6,0.9,1.1,1.2c0.6,0.4,1.2,0.6,1.6,0.6c0.2,0,0.4,0,0.5-0.2c0.1-0.1,0.1-0.3,0-0.5
			c-0.2-0.4-0.6-0.9-1.2-1.3s-1.2-0.6-1.6-0.6h-0.3C34.4,52.8,34.5,52.4,34.5,52.4z M39.7,54.3c-0.3,0-0.6-0.3-0.8-0.7
			c-0.2-0.5-0.4-1.2-0.3-2c0.1-0.8,0.4-1.5,0.7-1.9c0.3-0.3,0.6-0.5,0.9-0.4c0.3,0,0.6,0.3,0.8,0.7c0.2,0.5,0.4,1.2,0.3,2
			c-0.1,0.8-0.4,1.5-0.7,1.9C40.4,54.2,40.1,54.4,39.7,54.3z M40.3,49.8c-0.2,0-0.3,0.1-0.5,0.3c-0.3,0.3-0.5,0.9-0.6,1.6
			c-0.1,0.7,0,1.3,0.2,1.7c0.1,0.2,0.2,0.4,0.4,0.4s0.3-0.1,0.5-0.3c0.3-0.3,0.5-0.9,0.6-1.6c0.1-0.7,0-1.3-0.2-1.7
			C40.6,50,40.5,49.8,40.3,49.8z M35.2,48L35.2,48c0.9,0.3,1.5,0.7,1.8,1.1c0.3,0.3,0.4,0.7,0.3,1c-0.1,0.3-0.4,0.5-0.8,0.6
			c-0.5,0.1-1.1,0.1-1.8-0.1l0.1-0.5c0.6,0.2,1.1,0.2,1.5,0.1c0.2-0.1,0.4-0.2,0.4-0.3c0.1-0.2,0-0.3-0.2-0.5
			c-0.3-0.4-0.8-0.7-1.5-0.9h-0.1C34.9,48.5,35.2,48,35.2,48z M37,47.7c-0.3-0.2-0.4-0.5-0.5-0.9c0-0.5,0.1-1.3,0.6-2
			c0.4-0.7,0.9-1.2,1.4-1.5c0.4-0.2,0.8-0.2,1,0c0.3,0.2,0.4,0.5,0.5,0.9c0,0.5-0.1,1.3-0.6,2c-0.4,0.7-0.9,1.2-1.4,1.5
			C37.7,47.9,37.3,47.9,37,47.7z M42.7,47.3c-0.1-0.1-0.2-0.1-0.3-0.2c-0.4-0.4-0.8-1.1-1-1.9c-0.2-0.8-0.2-1.6,0-2.1
			c0.1-0.4,0.4-0.7,0.7-0.8s0.7,0,1,0.3c0.2,0.2,0.4,0.5,0.6,0.9l-0.2,0.8c-0.2-0.6-0.5-1-0.8-1.3c-0.2-0.2-0.3-0.3-0.5-0.2
			c-0.2,0-0.3,0.2-0.3,0.4c-0.1,0.5-0.1,1.1,0,1.9c0.2,0.7,0.5,1.3,0.8,1.6l0.1,0.1L42.7,47.3z M39.3,43.8c-0.1-0.1-0.3,0-0.5,0.1
			c-0.4,0.2-0.9,0.7-1.2,1.3s-0.5,1.2-0.5,1.7c0,0.2,0.1,0.4,0.2,0.5c0.1,0.1,0.3,0,0.5-0.1c0.4-0.2,0.9-0.7,1.2-1.3
			s0.5-1.2,0.5-1.7C39.5,44.1,39.4,43.9,39.3,43.8z M50.9,45.3c0.3-0.1,0.6-0.2,0.8-0.3c0.4-0.1,0.8,0,1,0.3c0.2,0.2,0.3,0.6,0.2,1
			c0,0.1-0.1,0.2-0.1,0.3l-0.7,0.2c0.2-0.2,0.3-0.5,0.3-0.7c0.1-0.2,0.1-0.4-0.1-0.5c-0.1-0.1-0.3-0.1-0.5-0.1
			c-0.3,0-0.6,0.2-0.9,0.3C50.9,45.8,50.9,45.3,50.9,45.3z M57.1,41.7v0.5c-0.4,0.1-0.7,0.4-1.1,0.7c-0.5,0.5-0.9,1-1,1.4
			c-0.1,0.2-0.1,0.4,0.1,0.5c0.1,0.1,0.3,0.1,0.5,0.1c0.4-0.1,1-0.4,1.5-0.8v0.7c-0.5,0.4-1,0.6-1.4,0.7c-0.4,0.1-0.8,0-1-0.3
			c-0.2-0.2-0.3-0.6-0.2-1c0.1-0.5,0.5-1.2,1.1-1.7C56.1,42.1,56.6,41.8,57.1,41.7z M50.6,38.9L50.6,38.9c0.4-0.3,0.7-0.2,1.1-0.1
			c0.5,0.2,1,0.8,1.4,1.5s0.6,1.4,0.6,2c0,0.4-0.2,0.8-0.5,0.9c-0.3,0.2-0.6,0.1-1,0c-0.5-0.2-1-0.8-1.4-1.5c0-0.1-0.1-0.2-0.1-0.2
			S50.6,38.9,50.6,38.9z M52.7,40.5c-0.3-0.6-0.8-1-1.2-1.2c-0.2-0.1-0.4-0.2-0.5-0.1c-0.1,0.1-0.2,0.3-0.2,0.5
			c0,0.5,0.1,1.1,0.5,1.7c0.3,0.6,0.8,1.1,1.2,1.3c0.2,0.1,0.4,0.1,0.5,0.1c0.1-0.1,0.2-0.3,0.2-0.5C53.3,41.7,53.1,41.1,52.7,40.5z
			 M36.8,38.8c0.3,0.2,0.6,0.3,0.8,0.6c0.6,0.5,1,1.2,1.2,1.7c0.1,0.4,0.1,0.8-0.2,1c-0.2,0.2-0.6,0.3-1,0.3
			c-0.4-0.1-0.9-0.3-1.4-0.6l0.1-0.6c0.5,0.4,0.9,0.6,1.3,0.6c0.2,0,0.4,0,0.5-0.1s0.1-0.3,0-0.5c-0.1-0.4-0.5-1-1-1.4
			c-0.2-0.2-0.4-0.3-0.6-0.4C36.5,39.4,36.8,38.8,36.8,38.8z M40.5,40.8c-0.7-0.4-1.3-0.8-1.6-1.3c-0.2-0.4-0.3-0.7-0.1-1
			c0.1-0.3,0.4-0.5,0.9-0.5c0.5-0.1,1.3,0.1,2,0.4c0.7,0.4,1.3,0.8,1.6,1.3c0.2,0.4,0.3,0.7,0.1,1c-0.1,0.3-0.4,0.5-0.9,0.5
			C42,41.3,41.2,41.2,40.5,40.8z M57.1,40.5C57.1,40.5,57,40.5,57.1,40.5c-0.4,0.4-0.7,0.5-1.1,0.4c-0.3-0.1-0.6-0.3-0.7-0.7
			c-0.2-0.5-0.2-1.2-0.1-2c0.2-0.8,0.5-1.4,0.9-1.8c0.3-0.3,0.6-0.4,0.9-0.4v0.5c-0.2,0-0.3,0.1-0.5,0.2c-0.3,0.3-0.6,0.9-0.8,1.6
			c-0.2,0.7-0.1,1.3,0,1.7c0.1,0.2,0.2,0.4,0.4,0.4s0.3-0.1,0.5-0.2c0.2-0.2,0.3-0.4,0.4-0.6C57,39.6,57.1,40.5,57.1,40.5z
			 M41.4,38.8c-0.6-0.3-1.3-0.4-1.7-0.4c-0.2,0-0.4,0.1-0.5,0.3s0,0.3,0.1,0.5c0.2,0.4,0.7,0.8,1.4,1.1c0.6,0.3,1.3,0.4,1.7,0.4
			c0.2,0,0.4-0.1,0.5-0.3s0-0.3-0.1-0.5C42.6,39.6,42.1,39.1,41.4,38.8z M46.6,37.8c-0.3-0.7-0.3-1.4-0.2-1.9
			c0.1-0.4,0.3-0.7,0.6-0.8s0.7-0.1,1,0.2c0.4,0.3,0.7,0.7,1,1.3l-0.5,0.2c-0.2-0.5-0.6-0.9-0.9-1.1c-0.2-0.1-0.4-0.2-0.5-0.1
			c-0.2,0.1-0.2,0.2-0.3,0.5c-0.1,0.4,0,1,0.2,1.6C47,37.7,46.6,37.8,46.6,37.8z M39.3,33.3c0.2,0.1,0.4,0.3,0.6,0.5
			c0.6,0.6,1,1.2,1.1,1.7c0.1,0.4,0,0.8-0.2,1s-0.6,0.3-1,0.3c-0.5-0.1-1.2-0.4-1.8-1l-0.3-0.3c0.1-0.2,0.2-0.3,0.2-0.5
			c0.1,0.2,0.3,0.3,0.4,0.5c0.5,0.5,1.1,0.8,1.5,0.9c0.2,0,0.4,0,0.5-0.1s0.1-0.3,0.1-0.5c-0.1-0.4-0.4-1-1-1.5
			c-0.2-0.2-0.4-0.4-0.6-0.5C39,33.5,39.1,33.4,39.3,33.3z M53.1,33.7c0.5-0.6,1.2-1,1.7-1.1c0.4-0.1,0.8,0,1,0.2s0.3,0.6,0.3,1
			c-0.1,0.5-0.4,1.2-0.9,1.8s-1.2,1-1.7,1.1c-0.4,0.1-0.8,0-1-0.2s-0.3-0.6-0.3-1C52.2,35,52.6,34.3,53.1,33.7z M42.2,34
			c0.1-0.8,0.4-1.5,0.7-1.9c0.3-0.3,0.6-0.5,0.9-0.4c0.3,0,0.6,0.3,0.8,0.7c0.2,0.5,0.3,1.2,0.2,2s-0.4,1.5-0.7,1.9
			c-0.3,0.3-0.6,0.5-0.9,0.4c-0.3,0-0.6-0.3-0.8-0.7S42.1,34.8,42.2,34z M54.8,35.2c0.5-0.5,0.8-1.1,0.8-1.5c0-0.2,0-0.4-0.1-0.5
			s-0.3-0.1-0.5-0.1c-0.4,0.1-1,0.5-1.4,1c-0.5,0.5-0.8,1.1-0.8,1.5c0,0.2,0,0.4,0.1,0.5c0,0.1,0.2,0.1,0.4,0.1
			C53.8,36.1,54.3,35.7,54.8,35.2z M44.4,34.3c0.1-0.7,0-1.3-0.2-1.7c-0.1-0.3-0.2-0.4-0.4-0.4s-0.3,0.1-0.5,0.3
			c-0.3,0.3-0.5,0.9-0.6,1.6c-0.1,0.7,0,1.3,0.2,1.7c0.1,0.2,0.2,0.4,0.4,0.4s0.3-0.1,0.5-0.3C44.1,35.6,44.3,35,44.4,34.3z
			 M48.3,33.9c-0.6-0.5-1.1-1.1-1.2-1.6c-0.1-0.4-0.1-0.8,0.1-1c0.2-0.2,0.5-0.4,1-0.3c0.5,0,1.2,0.3,1.8,0.9
			c0.6,0.5,1.1,1.1,1.2,1.6c0.1,0.4,0.1,0.8-0.1,1s-0.5,0.4-1,0.3C49.6,34.7,48.9,34.4,48.3,33.9z M49.7,32.2
			c-0.5-0.4-1.1-0.7-1.6-0.7c-0.2,0-0.4,0-0.5,0.1s-0.1,0.3,0,0.5c0.1,0.4,0.5,0.9,1,1.4c0.5,0.4,1.1,0.7,1.6,0.7
			c0.2,0,0.4,0,0.5-0.1s0.1-0.3,0-0.5C50.6,33.1,50.2,32.6,49.7,32.2z M55.1,28.1c0.6,0.4,1.1,0.9,1.4,1.4c0,0.1-0.1,0.2-0.2,0.3
			c-0.3,0.4-0.9,0.9-1.7,1.1c-0.8,0.3-1.5,0.3-2,0.2c-0.4-0.1-0.7-0.3-0.8-0.6c-0.1-0.3,0-0.7,0.2-1c0.3-0.4,0.9-0.9,1.7-1.1
			C54.2,28.2,54.7,28.1,55.1,28.1z M52.2,30.3c-0.1-0.2,0-0.3,0.2-0.5c0.3-0.4,0.8-0.7,1.5-0.9s1.3-0.3,1.7-0.2
			c0.2,0.1,0.4,0.1,0.5,0.3s0,0.3-0.2,0.5c-0.3,0.4-0.8,0.7-1.5,0.9s-1.3,0.3-1.7,0.2C52.5,30.6,52.3,30.5,52.2,30.3z M50,28.1
			c0.1,0.1,0.2,0.2,0.3,0.2c0.3,0.3,0.5,0.6,0.4,0.9c-0.1,0.3-0.3,0.6-0.7,0.8c-0.5,0.2-1.2,0.3-2,0.2c-0.6-0.1-1-0.3-1.4-0.5
			l0.6-0.3l0.9,0.3c0.7,0.1,1.3,0.1,1.7-0.1c0.2-0.1,0.4-0.2,0.4-0.4s-0.1-0.3-0.2-0.5c-0.1-0.1-0.3-0.2-0.5-0.3
			C49.5,28.4,50,28.1,50,28.1z"/>
	</g>
	<g>
		<path class="st9" d="M31.2,29.4l3.7,0.2l0.2,0.8c0,0,5.3-0.5,7.8-6.3l1.1,0.2l-1.6-1.7l2-3.2c0,0,7.4,5.5,7.5,8.6v0.1
			c0,0.9-0.4,1.8-1.2,2.3C50,30.9,49,31,48.2,30.7c-1.3-0.7-3.1-1.5-3.1-1.5s0.3,0.8,0.3,1.1l-5.5,2.9c0,0-1.2-0.2-1.9-1.2
			c0,0,0.9,3.7-1.4,6.4c-0.7,0.8-1.8,1.1-2.7,0.8c-0.8-0.3-1.6-1-1.9-2.8C32,36.4,31,32.5,31.2,29.4z"/>
		<path class="st10" d="M35.8,35.7L35.8,35.7c-0.1-0.9-0.7-5.4-0.7-5.4h0.3c0,0,0.7,4.5,0.7,5.3v0.2c0,0.1-0.1,0.1-0.1,0.1h-0.1
			C35.9,35.9,35.8,35.8,35.8,35.7z M35.9,35.6C36,35.6,36,35.6,35.9,35.6C36,35.6,36,35.6,35.9,35.6z M44,24.2h-0.4l4.8,4.9
			c0,0.1,0.1,0.1,0.2,0c0.1,0,0.1-0.1,0-0.2L44,24.2z M45.1,29.2c-0.3-0.7-0.6-1.3-0.6-1.3v-0.2h0.2c0,0,0.5,0.8,0.7,1.5H45.1z"/>
	</g>
</g>
<g>
	<path class="st4" d="M17.1,56c0,0,0.8-1.9,2.3-2.2c0,0,0.2,1.1-0.3,2.8c0,0,1.1-0.8,1.8-0.6c0,0,0,1.1-0.8,2.1c0,0-0.7-1.8-2.9-0.9
		C17.2,57.2,17.2,56.1,17.1,56z M2.2,61c0,0-1.7-1.1-2.2-4.1c0,0,0.3-0.1,0.9,0.2c0,0-0.8-1.4-0.4-2.9c0,0,1.3,0.4,2.4,1.9
		C2.8,56.1,1.7,58.7,2.2,61z"/>
	<path class="st11" d="M2.2,61h18.7c0,0-0.3-5.4-3.7-3.8c0-1.7-0.4-3.7-1.5-5.3c-0.5-0.7-1.1-1.2-1.8-1.6c-1.8-1-4.6-1.1-7.2,0.5
		C4.4,52.2,1.7,56.1,2.2,61z M23.9,63.4h-3.5c0,0,0.2-1.3,1.4-1.4C22.2,62,23.3,62.4,23.9,63.4z"/>
	<path class="st8" d="M8.8,53.8c0,0,1.2,2.9,2.1,8.1"/>
	<path class="st12" d="M9.4,55.7c0,0-0.3-1.2,0.4-1.5C9.8,54.2,10.3,54.9,9.4,55.7z"/>
	<path class="st12" d="M9.3,55.6c0,0-0.9-0.2-1.2-1.1C8.1,54.6,9.2,54.7,9.3,55.6z"/>
	<path class="st4" d="M10.1,58.1c0,0-0.9-0.2-1.2-1.1C8.9,56.9,10,57.1,10.1,58.1z"/>
	<path class="st12" d="M10.1,58c0,0,0.6-0.7,0.2-1.6C10.3,56.4,9.6,57.3,10.1,58z"/>
	<path class="st13" d="M8.3,52.4L8.5,53L8.3,52.4c0.2-0.1,0.3-0.1,0.4,0L9,52.9l-0.2-0.5c0.1,0,0.2,0,0.2,0l0.1,0.3
		c0.2,0.6,0,1.2-0.4,1.3c-0.4,0.1-0.9-0.2-1.1-0.8l-0.1-0.2c0.1,0,0.2-0.2,0.3-0.2l0.2,0.5l-0.2-0.5L8,52.8l0.1,0.4L8,52.8
		C8.3,52.4,8.3,52.4,8.3,52.4L8.3,52.4z"/>
	<g>
		<path class="st4" d="M2.9,53.3c0,0,2.4,3.3,4.2,8.1c0,0.1,0.1,0.1,0.1,0.1c0.1,0,0.1-0.1,0.1-0.1c-1.8-5-4.2-8.2-4.2-8.2
			S3,53.1,2.9,53.3L2.9,53.3z"/>
		<path class="st4" d="M5.1,56.7c0-0.1-0.1-0.2-0.1-0.2c0-0.2-0.1-0.3-0.1-0.5c0-0.3,0.1-0.5,0.2-0.7l0.1-0.2
			c0.1,0.1,0.1,0.3,0.1,0.4C5.6,55.9,5.5,56.3,5.1,56.7"/>
		<path class="st4" d="M5.1,56.6C5.1,56.6,5,56.6,5.1,56.6H4.7c-0.3,0-0.6-0.1-0.8-0.3c-0.1,0-0.1-0.1-0.1-0.1S3.6,56.1,3.6,56h0.5
			c0.1,0,0.2,0.1,0.4,0.1c0.2,0.1,0.4,0.2,0.5,0.3 M6.2,58.9H6.1c-0.1,0-0.2,0-0.3-0.1c-0.3-0.1-0.6-0.2-0.8-0.4
			c-0.1-0.1-0.2-0.2-0.2-0.3c0,0-0.1-0.1,0-0.1h0.3c0,0.2,0,0.2,0.1,0.2c0.1,0.1,0.3,0.1,0.4,0.2c0.2,0.1,0.4,0.2,0.5,0.4 M6.2,58.7
			V58c0-0.1,0.1-0.3,0.1-0.4c0.1-0.1,0.1-0.3,0.2-0.4l0.1-0.1c0,0,0.1,0.1,0.1,0.2v0.3c0,0.3-0.1,0.6-0.3,0.9
			C6.4,58.6,6.3,58.7,6.2,58.7"/>
		<path class="st13" d="M2.6,51.7h0.3C3,51.8,3,51.8,3,51.9c0.4,0.5,0.4,1.2,0,1.4c-0.4,0.3-1,0.1-1.4-0.4c-0.1-0.1-0.1-0.2-0.1-0.3
			c0-0.1,0.1-0.2,0.2-0.3l0.2,0.3H2v-0.1l-0.2-0.3c0-0.1,0.1-0.1,0.2-0.2l0.4,0.5h0.1v-0.1L2.1,52C2.2,51.9,2.3,51.9,2.6,51.7
			l0.2,0.5h0.1v-0.1C2.9,52.1,2.6,51.7,2.6,51.7z"/>
	</g>
	<g>
		<path class="st4" d="M18.6,51.9c0,0-0.7,1-1.6,2.5l-0.1,0.1l-0.1-0.3v-0.1l1.5-2.4c0,0,0.1-0.1,0.2,0S18.6,51.8,18.6,51.9z"/>
		<path class="st4" d="M17.8,53.1c0-0.1,0.1-0.2,0.1-0.2c0-0.2,0.1-0.3,0.1-0.5c0-0.3-0.1-0.5-0.2-0.6l-0.1-0.2
			c-0.1,0.1-0.1,0.3-0.1,0.4C17.4,52.3,17.5,52.8,17.8,53.1"/>
		<path class="st4" d="M17.7,53.1C17.7,53.1,17.8,53.1,17.7,53.1h0.4c0.3,0,0.6-0.1,0.8-0.3c0.1,0,0.1-0.1,0.1-0.1s0.2-0.1,0.2-0.2
			h-0.5c-0.1,0-0.2,0.1-0.4,0.1c-0.2,0.1-0.4,0.2-0.5,0.3"/>
		<path class="st4" d="M17.1,54.1L17.1,54.1c0.2,0,0.3,0,0.3-0.1c0.3-0.1,0.5-0.2,0.7-0.3c0.1-0.1,0.2-0.2,0.2-0.3
			c0,0,0.1-0.1,0-0.1H18c-0.1,0-0.2,0.1-0.2,0.1c-0.1,0.1-0.3,0.1-0.3,0.2c-0.2,0.1-0.3,0.2-0.4,0.3"/>
		<path class="st4" d="M17.3,53.7v-0.6c0-0.1-0.1-0.3-0.1-0.3c-0.1-0.1-0.1-0.3-0.2-0.3l-0.1-0.1c0,0-0.1,0.1-0.1,0.2v0.3
			c0,0.3,0.1,0.5,0.3,0.8C17.1,53.6,17.2,53.7,17.3,53.7"/>
		<path class="st13" d="M18.9,50.3h-0.3c-0.1,0.1-0.1,0.1-0.1,0.2c-0.4,0.5-0.4,1.2,0,1.4c0.4,0.3,1,0.1,1.4-0.4
			c0.1-0.1,0.1-0.2,0.1-0.3c0-0.1-0.1-0.2-0.2-0.3l-0.2,0.3h-0.1v-0.1l0.3-0.4c0-0.1-0.1-0.1-0.2-0.2L19.2,51h-0.1v-0.1l0.4-0.5
			c-0.1-0.1-0.2-0.1-0.4-0.2l-0.3,0.4h-0.1v-0.1L18.9,50.3L18.9,50.3z"/>
	</g>
</g>
<g>
	<path class="st4" d="M48.1,57c0,0-1-1.7-0.9-2.9c0,0,0.6,0.2,1.1,0.9c0,0-0.6-2.3-0.2-3.3c0,0,1,0.5,1.5,1.6c0,0-0.7,2-0.7,3.9
		L48.1,57z"/>
	<path class="st11" d="M64,61.4l-19,0.1c0,0,0.5-5.8,4-4.2c0-1.7,0.4-3.7,1.5-5.3c0.5-0.7,1-1.2,1.8-1.7c1.8-1,4.6-1,7.2,0.6
		C61.6,52.3,64.5,56.5,64,61.4z"/>
	<path class="st4" d="M60.9,61.8c0,0,1.9-3.2,4.2-3.1c0,0,0,0.8-0.8,1.8c0,0,0.5-0.4,1.5-0.3c0,0-0.1,0.7-1,1.7
		C64.8,61.9,60.9,61.8,60.9,61.8z"/>
	<path class="st12" d="M62.5,57c0-0.1,0.1-0.2,0.1-0.2c0-0.2,0.1-0.3,0.2-0.4c0.1-0.3,0-0.5,0-0.7l0-0.2c-0.1,0.1-0.1,0.3-0.2,0.3
		C62.3,56.2,62.3,56.6,62.5,57"/>
	<path class="st8" d="M64.2,55.4c0,0-3.4,2.4-4.7,6.5"/>
	<path class="st13" d="M64.7,54.3l-0.3-0.1c-0.1,0.1-0.1,0.1-0.1,0.2c-0.5,0.4-0.6,1.1-0.3,1.4c0.3,0.4,1,0.3,1.5-0.1
		c0.1-0.1,0.1-0.2,0.2-0.3c0-0.1-0.1-0.2-0.1-0.3l-0.3,0.3l-0.1,0l0-0.1l0.4-0.3c0-0.1-0.1-0.1-0.2-0.2L64.8,55l-0.1,0l0-0.1
		l0.5-0.4c-0.1-0.1-0.2-0.1-0.3-0.3l-0.4,0.3l-0.1,0l0-0.1L64.7,54.3L64.7,54.3z"/>
	<path class="st12" d="M62.5,57C62.5,57,62.6,57,62.5,57l0.4,0.1c0.3,0.1,0.6,0,0.8-0.1c0.1,0,0.1-0.1,0.1-0.1s0.2-0.1,0.2-0.2
		l-0.5-0.1c-0.1,0-0.2,0.1-0.4,0c-0.2,0.1-0.4,0.1-0.6,0.2"/>
	<path class="st12" d="M61.1,58.8L61.1,58.8c0.2,0,0.3,0.1,0.4,0c0.3,0,0.5-0.1,0.7-0.2c0.1-0.1,0.2-0.1,0.2-0.2c0,0,0.1-0.1,0-0.1
		l-0.3-0.1c-0.1,0-0.2,0-0.2,0c-0.1,0.1-0.3,0-0.4,0.1c-0.2,0-0.4,0.1-0.5,0.2"/>
	<path class="st12" d="M61.2,58.4l0.1-0.6c0-0.1-0.1-0.3,0-0.4c-0.1-0.1-0.1-0.3-0.1-0.4L61.1,57c0,0-0.1,0.1-0.1,0.1l-0.1,0.2
		c-0.1,0.2,0,0.5,0.2,0.8C61,58.3,61.1,58.4,61.2,58.4"/>
	<g>
		<path class="st12" d="M46,56.2c0,0-0.6-1.1,0-1.6C46.1,54.6,46.6,55.2,46,56.2z"/>
		<path class="st12" d="M46.1,56.2c0,0-0.9,0.2-1.5-0.5C44.5,55.7,45.6,55.4,46.1,56.2z"/>
		<path class="st12" d="M47.3,58.7c0,0-0.9-0.2-1.2-1.1C46,57.6,47.1,57.8,47.3,58.7z"/>
		<path class="st12" d="M47.5,58.8c0,0,0.6-0.7,0.2-1.6C47.7,57.2,46.9,58.1,47.5,58.8z"/>
		<path class="st8" d="M44.5,54.5c0,0,3,2.7,3.8,7.5"/>
		<path class="st13" d="M43.7,53.7l0.4,0.4L43.7,53.7c0.1-0.1,0.2-0.2,0.3-0.2l0.4,0.4l-0.4-0.3c0.1-0.1,0.2-0.1,0.2-0.1l0.2,0.2
			c0.4,0.4,0.5,1.1,0.2,1.3s-0.9,0.2-1.3-0.2l-0.1-0.1c0.1-0.1,0.1-0.2,0.1-0.3l0.4,0.3l-0.4-0.3l0.1-0.1l0.3,0.3l-0.3-0.3
			C43.6,53.8,43.6,53.8,43.7,53.7L43.7,53.7z"/>
	</g>
</g>
<g>
	<path class="st4" d="M17.5,17.1l0.5-0.6l0.9,1.3l-0.5,0.4C18.4,18.2,17.5,17.1,17.5,17.1z M18.9,15.4l0.9,1.2l0.5-0.4l-0.8-1.4
		C19.5,14.8,18.9,15.4,18.9,15.4z"/>
	<path class="st2" d="M46.4,13.8l1.4-1.2l0.3,0.7l-1.4,1L46.4,13.8z M44.7,12.9l0.8-1.5l0.6,0.5l-0.8,1.2L44.7,12.9z"/>
</g>
<g>
	<path class="st1" d="M30.5,5c0,0,0,0.1,0.1,0.1c0,0.1,0,0.2-0.1,0.2l-0.4,0.4c-0.1,0.1-0.3,0.2-0.5,0.2h-0.4
		C29.1,5.8,29,5.8,29,5.6V4.9c0,0,0-0.1-0.1,0l-0.2,0.2c-0.1,0.1-0.1,0.2-0.2,0.4c-0.1,0.1-0.1,0.3-0.1,0.5S28.2,6.3,28,6.4h-0.2
		c0,0-0.1-0.1-0.1-0.3V5.9c0-0.1,0-0.2-0.1-0.3c-0.1-0.4-0.1-0.8-0.1-1.2c0-0.4,0.1-0.8,0.3-1.1C28,3,28.2,2.8,28.5,2.7
		c0.2,0,0.3,0,0.4,0.1C29,2.9,29.1,3,29.1,3.1c0,0.2,0,0.5-0.2,0.8S28.5,4.6,28.1,5c0,0.1,0,0.3,0.1,0.4l0.3-0.6
		c0.1-0.2,0.2-0.3,0.4-0.4s0.2-0.2,0.3-0.2c0.2,0,0.3,0,0.4,0.2v0.9c0,0.1,0.1,0.1,0.2,0.1s0.1-0.1,0.2-0.1L30.3,5L30.5,5
		C30.4,4.9,30.5,5,30.5,5z M28.2,3.2c-0.1,0.1-0.1,0.3-0.1,0.5v0.7c0.2-0.2,0.3-0.4,0.4-0.7c0.1-0.2,0.1-0.4,0.1-0.6
		c0-0.1,0-0.1-0.1-0.2h-0.1C28.4,3,28.3,3.1,28.2,3.2z"/>
	<path class="st1" d="M32.4,4.8v0.1c0,0.1,0,0.2-0.1,0.2c-0.1,0.1-0.3,0.2-0.5,0.3c-0.2,0.1-0.4,0.2-0.7,0.2s-0.6,0-0.8-0.1
		S30,5.2,29.9,5c0-0.2,0-0.3,0.1-0.5s0.2-0.3,0.4-0.4C30.6,4,30.8,3.9,31,3.9c0.2,0,0.4,0,0.5,0.1c0.1,0.1,0.2,0.2,0.2,0.3
		c0,0.2-0.1,0.3-0.2,0.5c-0.2,0.1-0.4,0.3-0.8,0.4c0.1,0.1,0.3,0.1,0.5,0.1c0.1,0,0.3-0.1,0.5-0.2s0.3-0.2,0.5-0.3l0.1-0.1
		C32.3,4.7,32.4,4.8,32.4,4.8z M30.7,4.5c-0.1,0.1-0.1,0.2-0.1,0.4c0.2-0.1,0.3-0.1,0.5-0.2c0.1-0.1,0.2-0.2,0.1-0.3
		c0,0,0-0.1-0.1-0.1h-0.2L30.7,4.5z"/>
	<path class="st1" d="M34.1,4.8v0.1c0,0.1,0,0.2-0.1,0.2c-0.1,0.1-0.3,0.2-0.5,0.3c-0.2,0.1-0.4,0.1-0.6,0.1c-0.3,0-0.5-0.1-0.7-0.3
		C32,5,32,4.8,31.9,4.5c0-0.3,0-0.6,0.1-1s0.2-0.7,0.5-1c0.2-0.3,0.5-0.4,0.8-0.4c0.2,0,0.3,0.1,0.4,0.2c0.1,0.1,0.1,0.3,0.1,0.5
		c0,0.3-0.1,0.6-0.4,1c-0.2,0.4-0.5,0.8-0.9,1.2c0,0.1,0.1,0.2,0.1,0.2c0.1,0,0.1,0.1,0.2,0.1s0.3,0,0.4-0.1
		c0.1-0.1,0.2-0.2,0.4-0.3l0.1-0.1C34,4.7,34.1,4.7,34.1,4.8z M33,2.8c-0.1,0.2-0.2,0.5-0.3,0.8s-0.1,0.6-0.1,0.9l0.6-0.9
		c0.1-0.3,0.2-0.6,0.2-0.8s-0.1-0.3-0.2-0.3C33.2,2.5,33.1,2.6,33,2.8z"/>
	<path class="st1" d="M35.7,4.8v0.1c0,0.1,0,0.2-0.1,0.2c-0.2,0.1-0.3,0.2-0.5,0.3c-0.2,0.1-0.4,0.1-0.6,0.1c-0.3,0-0.5-0.1-0.6-0.3
		c-0.1-0.2-0.2-0.4-0.2-0.8c0-0.3,0.1-0.6,0.2-1s0.3-0.7,0.5-1S34.9,2,35.2,2c0.2,0,0.3,0.1,0.4,0.2c0.1,0.1,0.1,0.3,0.1,0.5
		c0,0.3-0.2,0.6-0.4,1c-0.3,0.4-0.6,0.7-1,1.1c0,0.1,0.1,0.2,0.1,0.2c0.1,0,0.1,0.1,0.2,0.1s0.3,0,0.4-0.1c0.1-0.1,0.2-0.1,0.4-0.3
		h0.1C35.5,4.7,35.7,4.8,35.7,4.8z M34.8,2.8c-0.1,0.2-0.2,0.4-0.3,0.7c-0.1,0.3-0.1,0.6-0.1,0.9c0.3-0.3,0.5-0.6,0.6-0.8
		c0.2-0.3,0.3-0.5,0.3-0.8c0-0.2,0-0.3-0.1-0.3C35,2.5,34.9,2.6,34.8,2.8z"/>
	<path class="st1" d="M38.1,4.8v0.1c0,0.1-0.1,0.2-0.2,0.2h-0.7c-0.1,0.2-0.2,0.3-0.4,0.4s-0.4,0.1-0.6,0.1c-0.2,0-0.4-0.1-0.5-0.1
		l-0.3-0.3c-0.1-0.1-0.1-0.3-0.1-0.4c0-0.2,0.1-0.3,0.2-0.5c0.1-0.1,0.3-0.2,0.4-0.3c0.2-0.1,0.4-0.1,0.6-0.1c0.3,0,0.5,0.1,0.6,0.3
		c0.1,0.1,0.2,0.3,0.2,0.5h0.6C38,4.8,38,4.8,38.1,4.8C38,4.8,38.1,4.8,38.1,4.8z M36.5,5.2c0.1-0.1,0.1-0.1,0.2-0.3
		c-0.1-0.1-0.2-0.1-0.2-0.2s-0.1-0.2-0.1-0.3V4.3c-0.1,0-0.3,0-0.4,0.1c-0.1,0.1-0.2,0.2-0.2,0.4c0,0.1,0,0.2,0.1,0.3
		C36,5.2,36,5.2,36.1,5.2C36.4,5.3,36.4,5.3,36.5,5.2z M27,10.2l0.1,0.1v0.2c-0.1,0.2-0.2,0.3-0.3,0.4s-0.2,0.2-0.4,0.3
		c-0.1,0-0.2,0.1-0.3,0c-0.1,0-0.2-0.1-0.2-0.3c0-0.1-0.1-0.2-0.1-0.4s0-0.3-0.1-0.3h-0.1c0,0-0.1,0.1-0.1,0.2s-0.1,0.2-0.1,0.4v0.5
		c0,0.2-0.1,0.3-0.2,0.4H25l-0.2-0.2c0-0.1-0.1-0.1-0.1-0.2s-0.1-0.2-0.1-0.3c-0.2-0.3-0.3-0.7-0.4-1.1c-0.1-0.4-0.1-0.8,0-1.1
		c0.1-0.3,0.2-0.5,0.5-0.7C24.8,8,25,8,25.1,8.1l0.3,0.3c0.1,0.2,0.1,0.5,0,0.8s-0.2,0.7-0.4,1.2c0,0.1,0.1,0.2,0.1,0.4
		c0-0.2,0-0.4,0.1-0.6s0.1-0.3,0.2-0.4c0.1-0.1,0.2-0.2,0.3-0.2c0.2-0.1,0.3,0,0.4,0.1c0,0.1,0.1,0.3,0.1,0.5s0,0.4,0.1,0.4
		c0,0.1,0.1,0.1,0.2,0.1s0.1-0.1,0.2-0.2s0.1-0.2,0.2-0.4C26.9,10.2,26.9,10.2,27,10.2z M24.8,8.8v0.5c0,0.2,0.1,0.5,0.1,0.7
		c0.1-0.2,0.2-0.5,0.2-0.7V8.7c0-0.1-0.1-0.1-0.1-0.2h-0.1C24.9,8.6,24.8,8.6,24.8,8.8z"/>
	<path class="st1" d="M27,10.9c-0.1-0.1-0.2-0.2-0.3-0.4c-0.1-0.2-0.1-0.4,0-0.6c0-0.2,0.1-0.4,0.3-0.5c0.1-0.2,0.3-0.3,0.5-0.3h0.1
		c0,0,0.1,0,0.1,0.1c0.1,0,0.1,0,0.2-0.1c0.1,0,0.2,0,0.2,0.1v0.4c0,0.3,0,0.5,0.1,0.6c0,0,0,0.1,0.1,0.1h0.1c0.1,0,0.1-0.1,0.2-0.1
		c0.1-0.1,0.1-0.2,0.2-0.4l0.1-0.1H29c0,0,0,0.1,0.1,0.1V10c-0.1,0.1-0.2,0.3-0.3,0.4s-0.2,0.2-0.3,0.2h-0.3c-0.1,0-0.2-0.1-0.2-0.2
		c-0.1,0.2-0.2,0.4-0.4,0.4C27.3,11,27.2,11,27,10.9z M27.6,10.4c0-0.1,0.1-0.2,0-0.3V9.4c-0.1,0-0.2,0.1-0.3,0.2s-0.1,0.2-0.1,0.4
		v0.4c0,0.1,0.1,0.1,0.1,0.1h0.2C27.6,10.5,27.6,10.4,27.6,10.4z"/>
	<path class="st1" d="M31,9.3v0.3c-0.1,0.1-0.2,0.3-0.3,0.4s-0.3,0.2-0.4,0.2c-0.1,0-0.3,0-0.4-0.1c-0.1,0.1-0.3,0.2-0.4,0.2
		c0.1,0.5,0.1,0.9,0,1.2c0,0.3-0.2,0.5-0.4,0.6c-0.1,0-0.2,0-0.3-0.1s-0.2-0.2-0.2-0.4c-0.1-0.2-0.1-0.5,0-0.9
		c0-0.3,0.1-0.7,0.3-1.2c-0.1-0.3-0.1-0.6-0.2-0.7c0-0.1,0-0.1,0.1-0.2s0.1-0.1,0.2-0.1h0.1l0.1,0.1v0.1c0.1-0.1,0.1-0.2,0.2-0.3
		c0.1-0.1,0.2-0.1,0.3-0.1c0.2,0,0.3,0,0.4,0.1c0.1,0.1,0.2,0.2,0.2,0.4v0.4c0,0.1-0.1,0.2-0.1,0.4h0.1c0.1,0,0.2-0.1,0.2-0.1
		l0.3-0.3C30.8,9.3,30.8,9.3,31,9.3C30.9,9.3,30.9,9.3,31,9.3z M29,11.4c0-0.3-0.1-0.6-0.2-1.1c-0.1,0.3-0.1,0.5-0.1,0.7v0.6
		c0,0.1,0,0.1,0.1,0.2h0.1C29,11.8,29,11.7,29,11.4z M29.6,9.9c0.1-0.1,0.1-0.2,0.1-0.3V9.2c0-0.1,0-0.1-0.1-0.2h-0.1
		c-0.1,0-0.2,0.1-0.3,0.3c0,0.1,0.1,0.3,0.1,0.5v0.3C29.4,10,29.5,10,29.6,9.9z"/>
	<path class="st1" d="M33,9.2v0.1c0,0.1,0,0.2-0.1,0.2c-0.1,0.1-0.2,0.2-0.4,0.3c-0.1,0.1-0.3,0.1-0.4,0.2c-0.1,0-0.3,0-0.4-0.1
		c-0.1,0.1-0.3,0.2-0.5,0.2c0,0.5,0,0.9-0.1,1.2c-0.1,0.3-0.2,0.5-0.4,0.5c-0.1,0-0.2,0-0.3-0.1s-0.1-0.2-0.2-0.4v-0.9
		c0-0.4,0.2-0.7,0.4-1.1c0-0.4-0.1-0.6-0.1-0.7s0-0.1,0.1-0.2s0.1-0.1,0.3-0.1H31l0.1,0.1v0.1c0.1-0.1,0.2-0.2,0.3-0.2
		c0.1-0.1,0.2-0.1,0.3-0.1c0.2,0,0.3,0,0.4,0.1c0.1,0.1,0.2,0.2,0.2,0.4v0.4c0,0.1-0.1,0.2-0.2,0.3h0.1c0.1,0,0.2,0,0.3-0.1L32.8,9
		C32.8,9.2,32.8,9.1,33,9.2C32.9,9.1,33,9.1,33,9.2z M30.9,11c0-0.3,0-0.6-0.1-1.1c-0.1,0.3-0.1,0.5-0.2,0.7v0.6
		c0,0.1,0,0.1,0.1,0.2l0.1,0.1C30.8,11.5,30.8,11.3,30.9,11z M31.5,9.6c0.1-0.1,0.1-0.2,0.2-0.3s0.1-0.2,0-0.4c0-0.1,0-0.1-0.1-0.2
		h-0.1c-0.1,0-0.2,0.1-0.3,0.3c0,0.1,0,0.3,0.1,0.5v0.3C31.4,9.7,31.5,9.7,31.5,9.6z"/>
	<path class="st1" d="M32.8,9.8c-0.1-0.1-0.1-0.3-0.1-0.4V9c0-0.2,0.1-0.3,0.1-0.5c0-0.1,0.1-0.1,0.1-0.2c0,0,0.1,0,0.2-0.1
		c0.1,0,0.2,0,0.2,0.1s0,0.2-0.1,0.4c-0.1,0.3-0.1,0.5-0.1,0.5v0.2l0.1,0.1c0,0,0.1,0,0.2-0.1l0.3-0.3L33.8,9h0.1v0.1
		c0,0.1,0,0.2-0.1,0.2c-0.3,0.3-0.5,0.4-0.8,0.4C33,10,32.9,9.9,32.8,9.8z M32.9,7.9c-0.1,0-0.1-0.1-0.1-0.2s0-0.2,0.1-0.2
		c0.1-0.1,0.2-0.1,0.3-0.1s0.2,0,0.3,0.1c0.1,0,0.1,0.1,0.1,0.2s0,0.2-0.1,0.2C33.4,8,33.3,8,33.2,8S33,8,32.9,7.9z"/>
	<path class="st1" d="M33.8,9.8c0-0.1-0.1-0.3-0.1-0.5c0-0.3,0.1-0.6,0.2-0.9c0-0.1,0.1-0.1,0.1-0.2h0.4v0.1c0,0,0,0.1-0.1,0.3
		c0,0.1-0.1,0.2-0.1,0.3v0.3c0.1-0.2,0.2-0.4,0.3-0.5s0.2-0.2,0.4-0.3c0.1,0,0.2-0.1,0.3-0.1c0.2,0,0.3,0.1,0.3,0.3
		c0,0.1-0.1,0.3-0.1,0.5c-0.1,0.2-0.1,0.3-0.1,0.4s0,0.1,0.1,0.2c0.1,0,0.1,0,0.2-0.1s0.2-0.1,0.3-0.3H36c0,0,0.1,0,0.1,0.1v0.1
		c0,0.1,0,0.2-0.1,0.2c-0.1,0.1-0.3,0.2-0.4,0.3c-0.1,0.1-0.3,0.1-0.5,0.1c-0.1,0-0.2-0.1-0.3-0.1c-0.1-0.1-0.1-0.2-0.1-0.3
		c0-0.1,0-0.2,0.1-0.4c0-0.2,0.1-0.3,0.1-0.3V8.9c0,0-0.1,0-0.2,0.1s-0.1,0.2-0.2,0.3c-0.1,0.1-0.1,0.3-0.2,0.4
		c0,0.1-0.1,0.2-0.1,0.2S34.1,10,34,10S33.8,9.9,33.8,9.8z"/>
	<path class="st1" d="M37.7,9.5v0.1c0,0.1-0.1,0.2-0.1,0.2c-0.1,0.1-0.3,0.2-0.5,0.2c-0.2,0.1-0.4,0.1-0.6,0c-0.3,0-0.5-0.1-0.6-0.3
		c-0.1-0.2-0.2-0.4-0.2-0.6s0.1-0.3,0.2-0.5c0.1-0.1,0.2-0.2,0.4-0.3c0.2-0.1,0.3-0.1,0.5-0.1s0.3,0.1,0.4,0.2
		c0.1,0.1,0.1,0.2,0.1,0.4S37.2,9.1,37,9.2s-0.4,0.2-0.7,0.2c0.1,0.1,0.2,0.2,0.4,0.2c0.1,0,0.3,0,0.4-0.1c0.2-0.1,0.3-0.1,0.5-0.2
		C37.6,9.5,37.6,9.5,37.7,9.5z M36.4,8.9c-0.1,0.1-0.1,0.2-0.2,0.4c0.2,0,0.3,0,0.4-0.1c0.1-0.1,0.2-0.1,0.2-0.2V8.9l-0.1-0.1
		C36.6,8.8,36.5,8.8,36.4,8.9z"/>
	<path class="st1" d="M37.7,10.3c-0.1-0.1-0.1-0.1-0.1-0.2s0-0.1,0.1-0.1h0.4V9.8c0-0.1,0-0.1-0.1-0.2c0-0.1-0.1-0.1-0.1-0.2
		l-0.3,0.3c-0.1,0.1-0.2,0.1-0.3,0.2h-0.2c0,0-0.1,0-0.1-0.1V9.7c0,0,0-0.1,0.1-0.1h0.1c0.2-0.1,0.3-0.3,0.4-0.3l0.2-0.2l0.3-0.3
		c0.1-0.1,0.2-0.1,0.4-0.1c0.1,0,0.1,0,0.2,0.1V9c0,0,0,0.1-0.1,0.1c-0.1,0.1-0.1,0.1-0.1,0.2v0.1c0,0,0.1,0.1,0.1,0.2
		c0.1,0.1,0.1,0.2,0.1,0.3v0.3c0.1,0,0.3-0.1,0.6-0.2h0.1c0,0,0.1,0,0.1,0.1v0.1c0,0.1-0.1,0.2-0.1,0.2c-0.2,0.1-0.3,0.2-0.5,0.2
		h-0.5c-0.1,0.1-0.3,0.1-0.4,0C38,10.6,37.7,10.3,37.7,10.3z"/>
	<path class="st1" d="M39.4,10.7c-0.1-0.1-0.1-0.2-0.1-0.2c0-0.1,0.1-0.1,0.1-0.1h0.4v-0.2c0-0.1,0-0.1-0.1-0.2
		c0-0.1-0.1-0.1-0.1-0.2l-0.3,0.3c-0.1,0.1-0.2,0.1-0.3,0.2h-0.2c0,0-0.1,0-0.1-0.1v-0.1c0,0,0-0.1,0.1-0.1h0.1
		c0.2-0.1,0.3-0.2,0.4-0.3l0.2-0.2l0.3-0.3c0.1-0.1,0.2-0.1,0.4-0.1c0.1,0,0.1,0,0.2,0.1v0.2c0,0,0,0.1-0.1,0.1
		c-0.1,0.1-0.1,0.1-0.1,0.2v0.1c0,0.1,0,0.1,0.1,0.2s0.1,0.2,0.1,0.3v0.3c0.1,0,0.3-0.1,0.6-0.2h0.1c0,0,0.1,0,0.1,0.1v0.1
		c0,0.1-0.1,0.1-0.2,0.2c-0.2,0.1-0.3,0.1-0.5,0.2c-0.1,0-0.3,0-0.5-0.1h-0.4L39.4,10.7z"/>
</g>
</svg>
