<svg xmlns="http://www.w3.org/2000/svg" viewBox="0 0 1600 1200" style="enable-background:new 0 0 1600 1200" xml:space="preserve">
    <path d="M873.1 735.3c-1.8 0-3.6-.2-5.3-.6h-.1v-.1c-.1-.2-5.5-7.9 1-20.9 4.1-7.8 11.1-13.1 17.2-19.5l.1-.1.1.1c6.5 5.9 23.8 16.9 24 17l.2.1-.1.2c-.1.2-17.5 23.8-37.1 23.8z"/>
    <path d="M972.7 738.4c-13.7 0-37.7-13.7-61.7-28.6-.2-.1-17.5-11.1-23.8-16.8l-.1-.1-40.3-30.2 40.6-57.3 52.8 32.3c9.1 6.7 33.2 24.5 36.2 27.9 2.1 2.3 2.9 4.4 2.5 6.1-.7 2.6-4.4 4-5.1 4.3l-3.9 1.4 3.6 2.2c1.6 1 7.8 4.8 20.5 12.7 4.5 2.8 6.8 5.7 6.9 8.4.1 3.2-2.8 5.6-3.4 6l-1.5 1.1 1 1.5c1.5 2.5 2 4.8 1.5 6.8-1 3.5-4.6 5.5-5 5.7l-.9.5-.1 1.1c-.9 7.5-5.4 8.7-8 8.7h-.9l-1.6-.2-.5 1.5c-1.4 3.4-4.2 5-8.8 5z" style="fill:#fff"/>
    <path d="m888 608.1 51.1 31.3c12.5 9.2 33.2 24.7 35.9 27.6 1.6 1.7 2.3 3.3 2 4.2-.3 1.2-2.2 2.4-3.8 2.9l-7.9 2.8 7.1 4.3c1.6 1 7.8 4.8 20.5 12.7 3.8 2.4 5.9 4.8 5.9 6.8.1 2.3-2.5 4.3-2.6 4.4l-2.9 2.2 1.9 3.1c1.2 2 1.6 3.7 1.2 5.2-.8 2.7-3.9 4.4-4 4.5l-1.9 1-.2 2.1c-.5 4.6-2.5 6.9-6.1 6.9h-.6l-3.2-.4-1.1 3c-.6 1.7-1.9 3.7-6.7 3.7-13.2 0-38.1-14.3-60.6-28.3-.2-.1-17.3-11-23.5-16.6l-.1-.1-.2-.1-38.7-29 38.5-54.2m-1.1-5.4-42.8 60.5 41.8 31.3c6.5 5.9 23.9 16.9 24.1 17 24.2 15 48.5 28.9 62.7 28.9 5.4 0 9-2.1 10.5-6.4.2 0 .6.1 1.1.1 2.7 0 9-1 10-10.4.7-.4 4.8-2.7 6-6.9.7-2.6.2-5.5-1.7-8.4.8-.6 4.3-3.5 4.2-7.6-.1-3.5-2.7-6.9-7.8-10.1-12.8-8-19-11.8-20.5-12.8 1.3-.5 5.4-2.2 6.3-5.6.7-2.4-.3-5-2.9-7.9-3.8-4.3-35.3-27.3-36.6-28.3l-54.4-33.4z"/>
    <path d="M867.8 734.7c-50.5-48.4-101-115.3-142.2-188.5-18.1-32.2-13.5-61.6-6.5-80.5 7.7-20.5 19.8-33.6 19.9-33.7l.2-.2.1.2c.7.9 68.3 87.6 126.4 140.3 26.4 23.9 51.1 44.8 75.5 63.8l.1.1v.1c0 .2-4.2 17.3-29.6 36.6-15.4 11.7-24.2 20.3-25.4 21.5 0-.1-25 24.6-18.5 40.3z" style="fill:#98d8f4"/>
    <path d="M969.9 679.7c-.4 0-.7-.1-1-.3L950 667.8c-.9-.6-1.2-1.8-.7-2.8.6-.9 1.8-1.2 2.8-.7l18.9 11.6c.9.6 1.2 1.8.7 2.8-.5.7-1.1 1-1.8 1zM996.2 710.7c-.3 0-.6-.1-.9-.2-.2-.1-24.5-13.1-42.5-25.3-.9-.6-1.2-1.9-.5-2.8.6-.9 1.9-1.1 2.8-.5 17.8 12.1 41.9 25 42.1 25.1 1 .5 1.3 1.7.8 2.7-.4.6-1.1 1-1.8 1zM992.3 724.9c-.3 0-.7-.1-1-.3s-29.3-17.4-45.7-28.1c-.9-.6-1.2-1.8-.6-2.8.6-.9 1.8-1.2 2.8-.6 16.3 10.7 45.2 27.9 45.5 28.1.9.6 1.3 1.8.7 2.7-.4.7-1 1-1.7 1zM981.7 733.4c-.3 0-.6-.1-.9-.2-.3-.1-29.4-14.5-44.7-24.9-.9-.6-1.1-1.9-.5-2.8.6-.9 1.9-1.1 2.8-.5 15.1 10.3 44 24.5 44.3 24.7 1 .5 1.4 1.7.9 2.7-.5.6-1.2 1-1.9 1z"/>
    <g>
        <path d="M933.6 713.7c-.4 0-.8-.1-1.2-.4-.9-.6-1.1-1.9-.5-2.8l22.9-32.1c.6-.9 1.9-1.1 2.8-.5.9.6 1.1 1.9.5 2.8l-22.9 32.1c-.4.6-1 .9-1.6.9z"/>
    </g>
    <g>
        <path d="M1171.1 907.3c-6.7 0-11.4-2.3-13.9-6.5v-.1c0-.1.2-14.3 21.7-30.4l.2-.1 19.7 29.6-.2.1c-.1 0-15.2 7.4-27.5 7.4zM1084.6 901.8c0-.1-1.7-13.3-5-33.5v-.3h.2c3.7-.3 7.6-.5 11.4-.5 3.8 0 7.6.1 11.4.5 16.2 1.6 16.4 5.4 16.4 5.6 3.3 20.4-33.7 28.3-34.1 28.3h-.2l-.1-.1z"/>
        <path d="m1223.9 941.4-5.5-10.6c-3.6-8.7-9.6-19.3-18.2-32.4l-19.4-29.1-8.9-12.4 135.8-20.3 5.4 8c28.5 52.5 42.2 96.6 48.5 124.5l-.9 11.2-63.5 22.9-73.3-61.8z" style="fill:#fff"/>
        <path d="m1306.6 838.9 4.5 6.8c28.3 52 41.8 95.8 48.2 123.5l-.8 9.4-60.9 22-71.9-60.4-5.3-10.2c-3.7-8.8-9.7-19.5-18.4-32.7l-19.4-29.1V867.9l-6.8-9.4 130.8-19.6m2.2-4.9L1168 855.2l10.9 15.3 19.4 29.1c8.5 13 14.4 23.5 18.1 32.2l5.8 11.1 74.6 62.6 66.1-23.8 1-12.9c-6.3-28-20-72.6-48.9-125.5l-6.2-9.3z"/>
        <path d="M1191.2 1018.5v-.2c-1.1-14.8 6.8-26.2 14.6-37.2 6.9-9.9 14.1-20.2 14.6-33 .1-4.1-1.2-9.6-4.1-16.4l-.1-.3h.3c37.8 5 69.5 30.2 82.7 65.9 17.3-16.9 40.2-27.2 64.3-28.8h.2v.2c7 30.9 7 49.3 7 49.4v.2l-179.5.2z" style="fill:#f9494b"/>
        <path d="m954.5 937.4-1.6-9.3c1.6-9.7 3.6-24.6 6.2-44.3l4.9-23.6 110.9-14.7 2.9 22.8c3.3 20.4 5 33.4 5 33.5 2.7 22 4.5 44.3 5.3 66.6l-1.5 12.5-72 21.9-60.1-65.4z" style="fill:#fff"/>
        <path d="m1072.9 848.2 2.7 20.5v.2c3.2 20.1 4.9 33.3 5 33.4 2.7 21.9 4.5 44.1 5.3 66.1l-1.2 10.8-69.2 21.1-58.8-64-1.4-8.2c1.6-9.7 3.6-24.5 6.1-43.9l4.5-21.9 107-14.1m3.9-5L962 858.3l-5.2 25.2c-2.6 20.1-4.7 35.1-6.2 44.7l1.7 10.3 61.6 67 74.7-22.8 1.7-14.1c-.8-22.2-2.6-44.8-5.4-66.9 0-.1-1.7-13.3-5-33.5l-3.1-25z"/>
        <path d="M905.3 1018.5v-.2c1.1-18.5 9.4-27.5 19-38.1 8.7-9.6 18.5-20.4 24.3-40.7.6-1.8 1.2-5.6 2.1-11.3v-.2l.2.1c31.9 10.3 56.8 35.5 66.6 67.6 18.8-17.6 43.4-27.2 69.3-27.2h.1c1.1 0 2.1 0 3.3.1h.2v.2c1.1 30.2-.1 49.4-.1 49.7v.2h-185v-.2z" style="fill:#f9494b"/>
        <path d="M1157.3 900.8c-13.4-31.1-50.3-140.2-51.3-142.8l-17.9-1c4.3 20.4 30.9 116.7 30.9 116.7-8.2-8.7-39.3-5.1-39.3-5.1-9.6 1.1-21.2 3.8-33.5 6.9-13 3.2-26.4 6.3-39.7 8.2-8.5 1.1-17 1.7-25.5 1.7-7.9 0-15.8-.5-23.6-1.5l-.6-.1v-.2c17.9-138.6 56-485.6 56.3-489.1v-.2l50.6-3.3.1.1c.2.6 23.5 60.4 57.8 133.5 31.6 67.4 79.2 160.1 126.7 219.4 25.1 30.9 47.5 64.4 66.7 99.3l.1.2-7.1 3.4c-11.6 4.5-29.1 9.8-61.3 9.8-2.7 0-5.5 0-8.4-.1h-4.1c-29.1 0-48.5 9-55 13.9.3-.1-19.5 13.7-21.9 30.3z" style="fill:#f696bb"/>
        <path d="M1130.7 764.5c-3.8 0-7.7-.2-11.4-.5-17.7-1.7-32.7-5.2-47.3-8.5-17.2-3.9-33.3-7.6-50.9-7.6-38.4 0-50.3 11.8-50.5 11.9l-.5.2.1-.4c14-89 24.5-231.5 35.2-308v-.2h45l148 294.6-.1.1c-.4.2-29.2 18.4-67.6 18.4 0 0 .1 0 0 0z" style="fill:#f9494b"/>
        <path d="M1101 579.4H993c-1.2 0-2.3-1-2.3-2.3 0-1.2 1-2.3 2.3-2.3h108c1.2 0 2.3 1 2.3 2.3 0 1.3-1 2.3-2.3 2.3z"/>
        <path d="M1051.7 639.7c-21.1-1-41.5-4.3-41.8-4.3-.7-.1-16.4-2.5-31.9-7.6-20-6.5-30.4-14.3-30-22.6v-1.1l-.8-.7c-1-.8-9.4-8.2-5.9-18.1l.5-1.2-.9-1c-.3-.3-3.5-3.8-3.3-8.2.1-3.2 1.9-6.2 5.3-9.1l1.1-1-.5-1.5c-.2-.7-1.9-6.5.8-10.3 1.6-2.3 4.6-3.4 8.9-3.4 1 0 2.1.1 3.3.2 16.4 1.8 23.6 2.5 25.5 2.6l4.3.3-2.1-3.7c-.8-1.4-4.5-8.5-.1-12.5 1.6-1.4 3.5-2.1 5.6-2.1l54.1-.8 21.3 2.9 8.4 103-21.8.2z" style="fill:#fff"/>
        <path d="m1043.5 535.8 19.4 2.7 8 98.7h-19c-20.9-1-41.3-4.2-41.5-4.3-.1 0-16.1-2.5-31.6-7.6-18.6-6.1-28.8-13.3-28.4-20.3l.1-2.1-1.7-1.5c-.2-.2-2.5-2.1-4.1-5.1-1.9-3.5-2.3-7-1-10.5l.9-2.6-1.9-2c-.1-.1-2.8-3-2.7-6.5.1-2.5 1.6-5.1 4.5-7.6l2.3-1.9-.9-2.8c-.6-1.8-1.2-6 .5-8.4 1.1-1.6 3.5-2.4 7-2.4.9 0 1.9.1 3 .2 16.4 1.8 23.7 2.5 25.5 2.6l8.6.7-4.3-7.4c-.7-1.1-3.7-6.8-.6-9.7 1.1-1 2.6-1.6 4.2-1.6l53.7-.6m.3-4.5-54.2.8c-2.6 0-5.2 1-7.1 2.7-5.6 5.2-1.4 13.4-.2 15.2-1.7-.1-8.9-.8-25.4-2.6-1.2-.1-2.5-.2-3.5-.2-5.1 0-8.7 1.5-10.7 4.3-3.3 4.6-1.5 11.2-1.1 12.3-3.8 3.3-5.9 7-6.1 10.8-.2 5.2 3.3 9.1 3.9 9.8-3.9 11.3 5.4 19.6 6.5 20.5-.3 9.5 10.3 17.8 31.6 24.8 15.9 5.2 32.2 7.7 32.3 7.7.2 0 20.8 3.3 42.1 4.3h24l-8.7-107.2-23.4-3.2z"/>
        <path d="M1042.2 679.7c-1.2 0-2.4 0-3.5-.1-9-1.8-14.4-10.9-17.5-18.3-3.5-8.5-5.1-18.1-5-23.1v-.2h.2c8.6 1.1 21.6 2.6 35 3.3.1-2 .6-18.3-5.4-48.3-8.2-41.3-2.6-61.4-2.6-61.6v-.1l76.8-1.1-60.2-131.6 15.2-33.7.2.1c66.7 36.7 126.6 106 142.3 164.9 7.6 28.4 5.1 53.4-7.3 73.9-8.9 14.7-30.5 36.2-82.5 55.9-34.3 13.2-69.1 20-85.7 20z" style="fill:#f696bb"/>
        <path d="M1133.3 659.9c-.9 0-1.8-.6-2.1-1.5-.5-1.1.1-2.5 1.2-2.9 15.2-5.9 29.9-13.3 43.8-22 1-.7 2.5-.3 3.2.7.7 1 .3 2.5-.7 3.2-14.1 8.8-29 16.4-44.5 22.5h-.9zM1038.7 679.6c-16.8-3.4-22.8-32.5-22.5-41.3v-.2h.2c8.6 1.1 21.7 2.7 35.2 3.4h.2v.2c0 .1 0 15.2-4.3 26-4 10.3-8.4 11.9-8.8 11.9zM1003.2 556.5h-.2l-24.8-2.1c-1.2-.1-2.1-1.2-2-2.5.1-1.2 1.2-2.1 2.5-2l24.8 2.1c1.2.1 2.1 1.2 2 2.5-.2 1.1-1.2 2-2.3 2zM1016.2 578.2c-14.6 0-66.1-7.3-73.3-11.1-1.1-.6-1.6-1.9-1-3 .6-1.1 1.9-1.6 3-1 6 3 56.6 10.6 71.3 10.6 1.2 0 2.3 1 2.3 2.3-.1 1.1-1.1 2.2-2.3 2.2zM1016.2 599.7s-.1 0 0 0c-25.8-1.1-68.2-10.7-75.2-13.1-1.1-.3-1.8-1.7-1.5-2.8s1.7-1.8 2.8-1.5c6.9 2.3 48.5 11.7 73.9 12.9 1.2 0 2.3 1.1 2.1 2.4.1 1.2-.9 2.1-2.1 2.1zM1017.2 619.1h-.2c-21.9-2.1-60.8-9.8-69.6-13.1-1.1-.5-1.8-1.7-1.4-2.9.5-1.1 1.7-1.8 2.9-1.4 8.4 3.2 47.3 10.7 68.5 12.9 1.2.1 2.1 1.2 2 2.5-.1 1.1-1.1 2-2.2 2zM1040.9 536c-1.2 0-2.3-1-2.3-2.3 0-1.2 1-2.3 2.3-2.3 46.8 0 103.9-5.3 104.5-5.4 1.2-.1 2.4.8 2.5 2 .1 1.2-.8 2.4-2 2.5-.6 0-58 5.5-105 5.5z"/>
        <path d="M1120.8 531.7c-.8 0-1.7-.5-2-1.2l-24.3-51.3c-.6-1.1 0-2.5 1.1-3s2.5 0 3 1.1l24.3 51.3c.6 1.1 0 2.5-1.1 3-.3 0-.7.1-1 .1z"/>
        <path d="M1085.4 388.6c-12.4 0-22.6-10.2-22.6-22.6s10.2-22.6 22.6-22.6 22.6 10.2 22.6 22.6c-.1 12.5-10.2 22.6-22.6 22.6z" style="fill:#fff"/>
        <path d="M1085.4 345.8c11.2 0 20.3 9.1 20.3 20.3 0 11.2-9.1 20.3-20.3 20.3s-20.3-9.1-20.3-20.3c.1-11.1 9.1-20.3 20.3-20.3m0-4.5c-13.7 0-24.8 11.1-24.8 24.8 0 13.7 11.1 24.8 24.8 24.8s24.8-11.1 24.8-24.8c0-13.7-11.2-24.8-24.8-24.8z"/>
        <path d="M1039 409.3c-16.8 0-34.3-15.3-44.7-39.2-14-32.2-12.8-63.4 2.7-72.8 7.2-4.4 15.5-6.5 24.6-6.5 19.5 0 36.2 10.3 36.4 10.4 12 7.7 18.2 16.4 20.3 28.1 2.4 13.1-.7 30.1-9.4 53.6-6.2 17.1-16.9 26.4-29.9 26.4z" style="fill:#fff"/>
        <path d="M1021.6 293.1c18.5 0 34.5 9.6 35.2 10 19.6 12.6 28.1 30.4 10 79-6 16-15.9 24.9-27.9 24.9-15.9 0-32.6-14.8-42.5-37.8-6.8-15.6-10.2-31.5-9.5-44.8.7-12.3 4.6-21.2 11.3-25.2 6.9-3.9 14.8-6.1 23.4-6.1m0-4.5c-8.4 0-17.3 1.8-25.7 6.9-16.4 9.8-18.4 41.8-3.6 75.6 11.1 25.5 29.7 40.5 46.7 40.5 12.9 0 24.9-8.6 32-27.9 17.9-48.4 11.2-69.5-11.8-84.4.1 0-17.2-10.7-37.6-10.7z"/>
        <path d="M1059.3 299.3c21.6 14 28.9 33.4 14.9 75.6 0 0-26.4-16.9-26.4-67.4-15.8 14.3-50 22.6-65 12.6 1.4-11.5 5.8-20.3 13.1-24.7 29.1-17.4 63.4 3.9 63.4 3.9zM1013.7 366.2c-.2 0-.6 0-.8-.1-2.1-.8-3.9-2.4-5.2-4.4-1.8-3-2.3-8.2-1.9-19.3 0-1.2 1-2.3 2.4-2.1 1.2 0 2.3 1.1 2.1 2.4-.3 9.8.1 14.8 1.2 16.8.7 1.1 1.8 2 3 2.6 1.1.5 1.7 1.8 1.2 2.9-.3.7-1.1 1.2-2 1.2z"/>
        <path d="M1025.3 349.6c-1.1 0-2.1-.9-2.3-2l-.2-2.6c-.1-1.2.8-2.4 2-2.5 1.2-.1 2.4.8 2.5 2l.2 2.6c.1 1.2-.8 2.4-2 2.5h-.2zM996.3 345.7c-1.1 0-2.1-.9-2.3-2l-.2-2.6c-.1-1.2.8-2.4 2-2.5 1.2-.1 2.4.8 2.5 2l.2 2.6c.1 1.2-.8 2.4-2 2.5h-.2zM1022.8 378.6c-.6 0-1.2 0-1.9-.1-1.2-.2-2-1.5-1.8-2.7.2-1.2 1.5-2 2.7-1.8.3.1.6.1 1.1.1 1.6 0 3-.7 4.2-1.9 1.1-1.2 1.7-2.8 1.6-4.4-.1-1.2.9-2.3 2.1-2.4 1.2-.1 2.3.9 2.4 2.1.1 2.8-.9 5.6-2.8 7.7s-4.5 3.3-7.4 3.4h-.2zM1089.6 370.8c-.2 0-.3 0-.6-.1l-14.1-3.5c-1.2-.3-1.9-1.6-1.7-2.7.3-1.2 1.6-1.9 2.7-1.7l14.1 3.5c1.2.3 1.9 1.6 1.7 2.7-.1 1.1-1 1.8-2.1 1.8z"/>
        <circle cx="1077.7" cy="244.5" r="58.2"/>
        <g>
            <path d="M1020.5 1020.5c-1.2 0-2.3-1-2.3-2.3-.1-7.1-1.1-14.3-3-21.7-.3-1.2.5-2.5 1.6-2.7 1.2-.3 2.5.5 2.7 1.6 2 7.7 3.2 15.3 3.3 22.8-.1 1.3-1.1 2.3-2.3 2.3z"/>
        </g>
        <g>
            <path d="M1303.1 1020.5c-1.1 0-2.1-.9-2.3-2-.8-6.7-2-13.4-3.8-20.1-.3-1.2.3-2.5 1.6-2.8 1.2-.3 2.5.3 2.8 1.6 1.9 6.9 3.3 13.9 4.1 20.8.1 1.2-.8 2.4-2 2.5h-.4z"/>
        </g>
        <g>
            <path d="M1230.9 984.8c-.2 0-.6 0-.8-.1l-20.8-7.6c-1.1-.5-1.8-1.7-1.4-2.9.5-1.1 1.7-1.8 2.9-1.4l20.8 7.6c1.1.5 1.8 1.7 1.4 2.9-.3 1-1.2 1.5-2.1 1.5z"/>
        </g>
        <g>
            <path d="M957.1 984.8c-.5 0-.9-.1-1.2-.3l-22-15c-1-.7-1.2-2.1-.6-3.2.7-1 2.1-1.2 3.2-.6l22 15c1 .7 1.2 2.1.6 3.2-.6.6-1.4.9-2 .9z"/>
        </g>
    </g>
    <g>
        <path d="M373.8 914.2c.1-.2 8.8-21.4 23-50.7v-.1h.1c.1-.1 14.3-8.2 28.6-8.2 2.1 0 4.1.2 5.9.5 16.3 2.9 14.5 15.4 14.5 15.5-16.1 37-71.3 43.1-71.9 43.2h-.3l.1-.2zM455 958.7h-1.3l-82.6-5.4c-.9-.1-1.6-.7-1.8-1.5-.2-.9.2-1.7 1-2.2l71.7-41.1c6.2-3.6 13.5-4.5 20.4-2.6 7 1.9 12.8 6.3 16.3 12.6 1.2 1.9 2.1 4.2 2.8 7 3.4 14.4-5.4 29-19.8 32.5-2 .5-4.3.7-6.7.7zm-77-9 75.9 5c2.4.1 4.8-.1 6.9-.6 12.2-3 19.8-15.5 16.8-27.7-.6-2.4-1.4-4.3-2.4-5.9-3-5.3-8-9.1-13.9-10.7-5.9-1.6-12.1-.8-17.4 2.2L378 949.7z"/>
        <path d="M427.5 981.1c-16.9 0-24.6-7.8-31.6-14.9-6.3-6.4-12.2-12.4-24.4-12.6-1.1 0-2-.9-2-2s.9-2 2-2c13.8.2 20.6 7.1 27.2 13.8 8.4 8.5 16.3 16.5 38.8 12.9 1.1-.2 2.1.6 2.3 1.7.2 1.1-.6 2.1-1.7 2.3-3.8.5-7.4.8-10.6.8z"/>
        <path d="M512.4 1018.7v-.2c-5.3-31.5-8.6-63.6-9.9-95.5l2.2-15.6L619 843.1l-3 13.8c-2.8 23.6-3.8 41.9-3.8 42 0 .4-2.5 37.3 13.4 61.1 6.8 10.3 13.1 16.9 18.6 22.7 9.8 10.4 16.4 17.3 17.2 35.8v.2h-149z" style="fill:#f696bb"/>
        <path d="M502.6 923c-.4-10.4-.7-20.8-.7-30.8 0-19.5 1.6-37.3 3.2-56.1 2.6-29.4 5.2-59.9 1.6-97.8-5.9-61-37.9-161.5-38.2-162.5l-.1-.3h118L593 589c.5 1.5 48.2 147.8 63.3 274.5 1 24.8-43.7 35.5-44.1 35.6l-.3.1v-.3c0-.2 1-18.3 3.8-41.7-2.2 1-15.6 7.4-31.2 25.6-14.2 16.6-27.7 26.6-45 33.5-15.7 6.3-36.5 6.9-36.7 6.9h-.2v-.2z" style="fill:#f9494b"/>
        <path d="M611.9 899c0-.2 1-18.4 3.8-42.1v-.1h.1c6.5-2.6 13.4-4 20.4-4 1.2 0 2.4 0 3.6.1 15.3 1.1 16.4 10.6 16.4 10.7 1 24.8-43.7 35.5-44.1 35.6l-.3.1.1-.3zM615.3 933.5H591c-1.1 0-2-.9-2-2s.9-2 2-2h24.3c1.1 0 2 .9 2 2s-.9 2-2 2zM595.8 959.3c-.9 0-1.7-.6-1.9-1.5-.3-1.1.3-2.2 1.4-2.5l23.9-6.7c1.1-.3 2.2.3 2.5 1.4s-.3 2.2-1.4 2.5l-23.9 6.7c-.2.1-.4.1-.6.1zM610.1 982.2c-.6 0-1.2-.3-1.6-.8-.6-.9-.4-2.1.5-2.8l19.3-13.9c.9-.6 2.1-.4 2.8.5.6.9.4 2.1-.5 2.8l-19.3 13.9c-.4.2-.8.3-1.2.3z"/>
        <path d="M512.4 1018.7v-.2c0-.2-4.2-23.2-7.3-57v-.2h.2c31.4 3.3 56.8 26.3 63.3 57.1l.1.2-56.3.1z" style="fill:#f9494b"/>
        <path d="M620.2 952.1c-.6 0-1.3-.3-1.6-.8-.5-.7-.5-1.7.1-2.4l50.9-65.2c9.2-11.7 26.1-13.7 37.8-4.6 2 1.5 3.7 3.3 5.3 5.5 8.6 12 5.9 28.8-6.1 37.6-2 1.5-4.5 2.8-7.2 3.7l-78.5 26.2h-.7zm70.6-74.7c-6.8 0-13.6 3-18.1 8.8l-46.8 60 72.2-24.1c2.4-.8 4.4-1.8 6.1-3.1 10.2-7.5 12.6-21.8 5.2-32-1.3-1.9-2.8-3.4-4.5-4.7-4.2-3.4-9.2-4.9-14.1-4.9z"/>
        <path d="M680.3 982.4c-1.2 0-2.3-.1-3.5-.3-1.8-.3-3.7-1-5.5-1.9L619.5 953c-.8-.4-1.2-1.3-1-2.1.2-.9.9-1.5 1.8-1.6l58.1-6c10.7-1.1 20.4 6.7 21.5 17.5.2 1.8.1 3.5-.2 5.6-.9 5.1-3.8 9.6-8 12.6-3.5 2.2-7.4 3.4-11.4 3.4zm-53.1-29.9 45.9 24.1c1.5.7 3 1.2 4.4 1.5 4.1.7 8.3-.2 11.7-2.6 3.4-2.4 5.7-5.9 6.4-10 .3-1.6.3-3 .2-4.4-.9-8.6-8.6-14.8-17.1-13.9l-51.5 5.3z"/>
        <path d="M229.3 1018.7v-.2c2.1-41.1 7.6-73.4 17.7-104.8l15.8-26.3 151.7-56.6-17.5 33c-14.2 29.3-22.9 50.5-22.9 50.7-.1.3-13.8 32.3 3.8 54.3 1.8 2.3 3.7 4.5 5.4 6.7 12.9 15.8 22.2 27.2 20.6 43.2v.2H229.3v-.2z" style="fill:#f696bb"/>
        <path d="M269.1 916.6c-14.5 0-21.8-2.7-21.9-2.7l-.2-.1.1-.2c12.2-37.6 30.4-72.3 56.9-121 40.6-74.7 61-112.2 80.7-203.6l2.5-11.6 108.4-7.7v.2c-.1.9-8.3 87.7-20.1 166.4-14.2 94.6-29.5 134.5-29.7 134.9-.5-20.4-28.2-18.7-49.4-7.3-3.2 1.7-20.1 10.8-40.6 23.6-21.8 13.6-46.2 24.1-62.2 26.8-8.6 1.6-16.9 2.3-24.5 2.3z" style="fill:#f9494b"/>
        <path d="M487.7 644.1h-.2c-1.1-.1-1.9-1.1-1.8-2.2 4.7-41 7.7-71.8 7.7-72.1.1-1.1 1.1-1.9 2.2-1.8 1.1.1 1.9 1.1 1.8 2.2 0 .3-3 31.1-7.7 72.1-.1 1-1 1.8-2 1.8zM314.6 910.2c-.2 0-.4 0-.6-.1-1.1-.3-1.6-1.5-1.3-2.5 16.9-52 34-91 50.5-128.7 25.4-58 49.4-112.7 68-205.5.2-1.1 1.3-1.8 2.4-1.6s1.8 1.3 1.6 2.4c-18.7 93.2-42.8 148.2-68.3 206.3-16.5 37.6-33.6 76.5-50.4 128.3-.3.9-1.1 1.4-1.9 1.4z"/>
        <path d="M229.3 1018.7v-.2c.9-19.3 2.9-38.8 6.2-57.8v-.2l.2.1c27.4 8.1 49 30.3 56.3 58l.1.3h-62.8v-.2z" style="fill:#f9494b"/>
        <path d="M712.5 678.7c-4.4 0-8.4-2-10.3-3.2-8.6 4.6-28.8-2-75.6-54.6l-.2-.3-6.3-10.8 70.2-64.3 12.7 7.7.2.3c19.4 26.1 34.4 46.4 36.3 51.1 1.8 4.4 1.8 8.1-.1 10.9-1.9 2.9-5.2 4.2-7.8 4.8 2.8 3.9 8 11.5 11.8 17.8 2.8 4.8 3.3 10.3 1.2 14.8-1.5 3.1-4 5.4-7.2 6.5 1.1 5.3-1.1 8.7-2.7 10.4-2.9 2.9-7.4 4.3-11.5 3.5-2.2 2.8-5 4.6-8.2 5.2-.9.2-1.7.2-2.5.2zm-10.3-8 1.2.9c.1 0 5.5 4 10.9 3 2.6-.5 4.7-2 6.4-4.6l.8-1.3 1.4.5c3 1 6.7 0 8.9-2.2 2-2.1 2.4-5 1.2-8.4l-.8-2.3 2.4-.4c2.9-.5 5.1-2.2 6.4-4.8 1.5-3.3 1.2-7.4-1-11.1-5.2-8.7-13.4-20-13.5-20.1l-2.3-3.1 3.8-.1c1.6 0 6.3-.7 8-3.4 1.1-1.7 1-4.1-.2-7.2-1.9-4.6-20.5-29.7-35.6-50l-9.5-5.7-65.6 60.2 4.6 7.8c35.1 39.4 62.4 59.8 71.3 53.2l1.2-.9z"/>
        <path d="M627.9 619.7c-16.8-18.9-31.1-37.3-36.4-45.7-52.6-82.4-67.4-163.8-67.6-164.6 0-.5 4.1-43.4 30.7-68.1l.1-.1.1.1c22.5 17.7 64.1 88.8 84.1 122.9 3.8 6.5 6.8 11.7 8.8 14.8 9.4 15.4 32.4 46.3 52.6 73.6l1.6 2.1-73.8 65.2-.2-.2z" style="fill:#f9494b"/>
        <path d="M726.8 622.7c-.6 0-1.2-.3-1.6-.8l-9.6-13.4c-.6-.9-.4-2.1.5-2.8.9-.6 2.1-.4 2.8.5l9.6 13.4c.6.9.4 2.1-.5 2.8-.4.2-.8.3-1.2.3zM732.5 659c-.6 0-1.2-.3-1.6-.8-12.1-15.6-28.2-36.9-36.7-48.1-.7-.9-.5-2.1.4-2.8s2.1-.5 2.8.4c8.5 11.2 24.6 32.5 36.7 48.1.7.9.5 2.1-.4 2.8-.3.3-.8.4-1.2.4zM721.1 671.5c-.6 0-1.2-.3-1.6-.8l-38.3-48.8c-.7-.9-.5-2.1.3-2.8s2.1-.5 2.8.3l38.3 48.8c.7.9.5 2.1-.3 2.8-.3.4-.8.5-1.2.5zM702.9 673.4c-.6 0-1.1-.2-1.5-.7l-32.5-39.2c-.7-.9-.6-2.1.3-2.8.9-.7 2.1-.6 2.8.3l32.5 39.2c.7.9.6 2.1-.3 2.8-.4.3-.8.4-1.3.4z"/>
        <path d="M662.2 639.1c-.6 0-1.1-.2-1.5-.7-.7-.8-.6-2.1.3-2.8l40.8-34.1c.8-.7 2.1-.6 2.8.3.7.8.6 2.1-.3 2.8l-40.8 34.1c-.4.2-.8.4-1.3.4zM627.8 621.9c-.6 0-1.1-.2-1.5-.7-.7-.8-.6-2.1.2-2.8l74.1-65.2c.8-.7 2.1-.6 2.8.2s.6 2.1-.2 2.8l-74.1 65.2c-.4.3-.8.5-1.3.5zM598.7 587.3c-.6 0-1.1-.2-1.5-.7-.7-.9-.6-2.1.3-2.8l78.4-65c.9-.7 2.1-.6 2.8.3.7.9.6 2.1-.3 2.8l-78.4 65c-.4.2-.8.4-1.3.4z"/>
        <path d="M691.4 566.3c-.6 0-1.2-.3-1.6-.8L664 532c-.7-.9-.5-2.1.4-2.8s2.1-.5 2.8.4l25.8 33.5c.7.9.5 2.1-.4 2.8-.3.3-.8.4-1.2.4zM639.8 611.2c-.6 0-1.1-.2-1.5-.7L610.6 577c-.7-.9-.6-2.1.3-2.8.9-.7 2.1-.6 2.8.3l27.7 33.5c.7.9.6 2.1-.3 2.8-.4.2-.8.4-1.3.4zM664.9 588.1c-.6 0-1.2-.3-1.6-.7l-27-33.3c-.7-.9-.6-2.1.3-2.8.9-.7 2.1-.6 2.8.3l27 33.3c.7.9.6 2.1-.3 2.8-.3.3-.8.4-1.2.4z"/>
        <path d="M384.8 589.3c-.1-.2-7.6-11.3-9.5-26.1-1.7-13.7 1.1-33.4 24.2-49.7-.7-1.2-5-9.5-5.6-20.6-.5-11.1 2.6-27.2 20.9-41.7-.8-1.8-8.3-18.8-2.3-35.5 3.9-10.6 12.4-18.9 25.3-24.7-.3-3.2-4.7-44-.9-46.9 16.5-8.7 26.5-12.7 62.2-25.8h.1l.1.1c.2.1 16.8 10.6 34 10.6 7.4 0 20.9 11.8 21.5 12.3.2.3 15.2 26.1.1 49.8 2.3 1.9 31.4 27.3 10.8 60.1 2.5 1.6 31.5 21.3 17.9 62.3 1 .9 9.4 8.5 14.8 20.9 5.2 12.1 8.5 31.5-5.4 54.8l-.1.1H384.8z" style="fill:#f696bb"/>
        <path d="M554.7 393.2H439.9c-1.1 0-2-.9-2-2s.9-2 2-2h114.8c1.1 0 2 .9 2 2s-.9 2-2 2zM565.2 453.4H415.1c-1.1 0-2-.9-2-2s.9-2 2-2h150.1c1.1 0 2 .9 2 2s-.9 2-2 2zM583.4 515.6H399.8c-1.1 0-2-.9-2-2s.9-2 2-2h183.6c1.1 0 2 .9 2 2s-.9 2-2 2z"/>
        <circle cx="470.8" cy="322.8" r="20" style="fill:#fff"/>
        <path d="M470.8 304.8c9.9 0 18 8.1 18 18s-8.1 18-18 18-18-8.1-18-18c.1-9.9 8.1-18 18-18m0-4c-12.1 0-22 9.8-22 22 0 12.1 9.8 22 22 22s22-9.8 22-22c0-12.1-9.9-22-22-22z"/>
        <path d="M513 357.7c-10.7 0-20.1-7.5-26.5-21.2-20.1-42.9-13.4-59.7 3.8-73 .1-.1 16.4-11.9 35.3-11.9 6.5 0 12.7 1.4 18.3 4.2 14.4 7.1 17.7 34.7 7.7 64.1-7.8 22.6-23.3 37.8-38.6 37.8z" style="fill:#fff"/>
        <path d="M525.6 253.6c6.2 0 12.1 1.3 17.4 4 6.1 3 10.3 10.6 11.8 21.4 1.6 11.7-.2 25.9-5.1 40.2-7.4 21.8-22.2 36.5-36.6 36.5-9.9 0-18.6-7.1-24.7-20.1-19.5-41.7-13.3-57.9 3.1-70.5.6-.4 16.1-11.5 34.1-11.5m0-4c-19.9 0-36.5 12.4-36.5 12.4-19.3 14.8-23.7 33.9-4.3 75.4 7.2 15.5 17.6 22.4 28.3 22.4 15.7 0 32.1-14.9 40.4-39.2 10.5-30.9 6.4-59-8.7-66.5-6.5-3.3-13-4.5-19.2-4.5z"/>
        <path d="M544.7 254c-27-13.3-55.7 8-55.7 8-13.1 10.1-19.3 22.1-15.9 41.7l85.6-25.2c-1.6-11.9-6.4-20.8-14-24.5zM533.9 317.8c-.7 0-1.4-.4-1.8-1.1-.5-1-.2-2.2.8-2.7 1.2-.7 2.1-1.5 2.7-2.6 1.2-2.3.6-8.8-.1-14.9-.1-1.1.7-2.1 1.7-2.2 1.1-.1 2.1.7 2.2 1.7 1.2 9.9 1.1 14.6-.3 17.3-1 1.8-2.4 3.2-4.3 4.2-.3.2-.6.3-.9.3zM522.5 303.9c-1.1 0-2-.9-2-2v-2.3c0-1.1.9-2 2-2s2 .9 2 2v2.3c0 1.1-.9 2-2 2zM547.8 298.3c-1.1 0-2-.9-2-2V294c0-1.1.9-2 2-2s2 .9 2 2v2.3c0 1.1-.9 2-2 2zM526.3 329.4c-5 0-9.1-3.9-9.3-9-.1-1.1.8-2 1.9-2.1 1.1 0 2 .8 2.1 1.9.1 3.1 2.7 5.4 5.7 5.2.3 0 .5 0 .9-.1h.2c1.1-.2 2.1.5 2.4 1.6.2 1.1-.5 2.1-1.6 2.4h-.2c-.4.1-1 .2-1.6.2-.2-.1-.3-.1-.5-.1zM467.4 327.5c-.8 0-1.5-.5-1.8-1.2-.4-1 .1-2.2 1.1-2.6l11.9-5c1-.4 2.2.1 2.6 1.1s-.1 2.2-1.1 2.6l-11.9 5c-.3.1-.5.1-.8.1z"/>
        <circle cx="496.4" cy="234.2" r="21.5"/>
        <path d="M368.5 933.5h-24.2c-1.1 0-2-.9-2-2s.9-2 2-2h24.2c1.1 0 2 .9 2 2s-.9 2-2 2z"/>
        <g>
            <path d="M343.3 961.2c-.9 0-1.7-.6-1.9-1.5-.3-1.1.3-2.2 1.4-2.5l26.8-7.6c1.1-.3 2.2.3 2.5 1.4s-.3 2.2-1.4 2.5l-26.8 7.6c-.2.1-.4.1-.6.1z"/>
        </g>
        <g>
            <path d="M358.6 985.1c-.6 0-1.2-.3-1.6-.8-.6-.9-.4-2.1.4-2.8l19.3-14c.9-.6 2.1-.5 2.8.4.6.9.4 2.1-.4 2.8l-19.3 14c-.4.3-.8.4-1.2.4z"/>
        </g>
    </g>
    <g>
        <path d="M713.9 900.2c-74.1 0-125.9-18.1-156.3-33.2-33-16.4-48.5-33.1-48.7-33.2-.3-.3-35.5-37.1-24.8-65 .1-.2 3.5-5.5 21.8-5.5 18.2 0 45.1 9.6 45.4 9.7 88.9 24.1 172.4 60.1 202.9 87.5 17 15.2 30.5 31.6 29.7 34.4-.1.3-.3.5-.7.6-23.8 3.1-47.1 4.7-69.3 4.7zM439.7 1018.5v-.2c0-.5 3.5-50.2 23.8-100.1l.1-.2.2.2c17 12.5 31.5 31 41.9 53.5v.1l-19.2 46.8h-46.8v-.1z"/>
        <path d="m489.7 877.5 3.9-15.1c5.1-8.9 10.9-18.2 17.2-27.5.9-1.5 23-35 42-60.3l12-13L669 801.2l-17 23.9c-.9 1.4-9 13.3-19 29.1l-74.5 111-68.8-87.7z" style="fill:#fff"/>
        <path d="m565.1 764.3 100 38-15.1 21.4v.1c-.9 1.4-8.9 13.2-19 29.1l-72.8 108.4-66.2-84.2 3.5-13.8c5.1-8.8 10.7-17.8 16.9-27.2.9-1.5 22.9-34.9 41.8-60l10.9-11.8m-1.2-5.3-13.1 14.1c-19.2 25.6-41.9 60.1-42.1 60.5-6.3 9.5-12.2 18.8-17.4 27.9L487 878l71.4 91 76.3-113.6c10.5-16.7 18.8-28.9 19-29l18.5-26.2L563.9 759z"/>
        <path d="M519.7 1018.5v-.2c-8.1-43.8-28-79.2-56.2-99.9l-.1-.1.1-.1c8-19.4 17.4-38.5 28-56.6l.1-.2.2.1c.2.1 18.6 9.4 42.1 51.8 34.8-50.7 65.1-61.3 84.5-61.3 10.3 0 16.4 3.2 16.5 3.2l.2.1-.1.2c-37.7 59.8-45.1 83.5-44.7 92.8.6 12.8 7.7 23 14.6 33 7.7 11.1 15.7 22.5 14.6 37.2v.2h-99.8v-.2zM804.9 1018.5c-13.3-41.2-43-75.8-81.6-95.4l-.1-.1v-.1c1.9-19.6 4.5-39 7.9-57.9l3.3-19.6 110.5-4.3 8.2 37.5c4.5 35.2 7.6 55.6 9 60.8 5.8 20.3 15.6 31.1 24.3 40.7 9.6 10.5 17.8 19.6 19 38.1v.2H804.9z" style="fill:#6c79d9"/>
        <path d="M807.6 913.6c-.2-.3-19.7-35.7-51.7-49.5l-.6-.2.6-.2c.3-.1 31.6-10.4 47.8-10.4 4.6 0 7.7.9 9 2.6.8 1 1 2.3.7 3.8-5.3 22.3-5.4 53.6-5.4 53.9h-.4z" style="fill:#fff"/>
        <path d="M808.1 915.9h-.5c-.8 0-1.5-.3-1.9-1 0 0-.1-.1-.2-.3-3.4-5.9-21.9-36-50.6-48.4l-.5-.2c-.9-.3-1.5-1.1-1.5-2.1s.6-1.8 1.5-2.1l.6-.2h.1c.3-.1 31.8-10.5 48.5-10.5 5.4 0 8.9 1.1 10.8 3.5 1.2 1.6 1.6 3.5 1.1 5.8-5.3 22.3-5.4 53.1-5.4 53.5.3 1-.8 2-2 2zm-46.5-51.7c22 11.3 37.5 31.8 44.5 42.4.3-10.6 1.5-31.3 5.3-47.5.2-1.1 0-1.6-.2-1.9-.3-.3-1.8-1.7-7.2-1.7-12.2 0-33 5.9-42.4 8.7zM720.3 1018.5v-.2c0-.3-2.4-39.8 2.9-95.4v-.3l.3.1c21 10.6 39 25.2 53.7 43.4l.1.1-6.9 52.2h-50.1z"/>
        <path d="M819 882c-19.9 0-51.1-2.9-87.9-16.8-41.2-15.6-59.4-25.4-78.8-36.7-2.9-1.7-7.1-4.2-12.3-7.3-15-8.9-37.7-22.5-56.8-32.6-10.5-5.6-21.3-10.7-32.4-15.1-.2-.1-27.2-9.7-45.3-9.7-17.9 0-21.3 5.2-21.4 5.3l-.5-.2c9.6-22.5 269.4-374.2 272-377.7l.1-.1 41.3 3.3v.2c.3 3.4 37.5 342.5 55.7 484.1v.2h-.2c.3 0-12.4 3.1-33.5 3.1z" style="fill:#98d8f4"/>
        <path d="M593.1 937.4h-26.7c-1.2 0-2.3-1-2.3-2.3 0-1.2 1-2.3 2.3-2.3h26.7c1.2 0 2.3 1 2.3 2.3 0 1.3-1 2.3-2.3 2.3zM564 969.8c-.9 0-1.8-.6-2.1-1.6-.3-1.1.2-2.5 1.5-2.8l28.9-9.5c1.1-.3 2.5.2 2.8 1.5.3 1.1-.2 2.5-1.5 2.8l-28.9 9.5c-.2.1-.5.1-.7.1zM861.8 937.4h-26.7c-1.2 0-2.3-1-2.3-2.3 0-1.2 1-2.3 2.3-2.3h26.7c1.2 0 2.3 1 2.3 2.3 0 1.3-1 2.3-2.3 2.3z"/>
        <g>
            <path d="M841.4 969.8c-.9 0-1.8-.6-2.1-1.6-.3-1.1.2-2.5 1.5-2.8l28.8-9.5c1.1-.3 2.5.2 2.8 1.5.3 1.1-.2 2.5-1.5 2.8l-28.8 9.5c-.3.1-.5.1-.7.1z"/>
        </g>
        <g>
            <path d="M828.1 821.1c-25.2 0-65.2-5.4-118.3-29.6-23.6-10.7-45.3-22.5-66.2-33.9-43-23.2-80-43.2-118.3-47.3-1.2-.1-2.1-1.2-2-2.5s1.2-2.1 2.5-2c39 4.1 76.5 24.3 119.8 47.7 21 11.3 42.5 23 66 33.7 66.7 30.4 112.2 30.7 133.3 28.2 1.2-.1 2.4.8 2.5 2 .1 1.2-.8 2.4-2 2.5-4.6.9-10.4 1.2-17.3 1.2z"/>
        </g>
        <g>
            <path d="M816.8 573.9c-1.1 0-2.1-.9-2.3-2l-19.6-177.1c-.1-1.2.8-2.4 2-2.5 1.2-.1 2.4.8 2.5 2L819 571.4c.1 1.2-.8 2.4-2 2.5h-.2z"/>
        </g>
        <g>
            <path d="M717.3 733.2c-23.7 0-53.3-30-53.6-30.4-.1-.1-10.9-10.9-20.4-21.6L625.1 662l69.5-74.7 12.4 12.4c7.6 9.1 15.3 17.9 22.2 25.6 10.2 11.4 19 21.3 20.5 25.5 1.1 3 1.1 5.5-.1 7.4-2.1 3.6-7.7 4.7-8.7 4.9l-4.1.7 2.7 3c1.6 1.7 9.7 10.9 21.3 23.5 4.5 4.9 6.4 9.3 5.8 13.2-.7 4.5-4.7 7.1-5.2 7.3l-1.1.7v1.2c0 4.7-1.6 8-4.6 10-2.7 1.7-6 1.9-7.7 1.9-.8 0-1.2 0-1.5-.1l-1.6-.1-.7 1.5c-1.9 4.3-5.5 6.4-10.4 6.4-3.3 0-6-1-6.3-1.1l-.8-.3-.8.3c-2.4 1.4-5.5 2-8.6 2z" style="fill:#fff"/>
            <path d="m694.7 590.6 10.7 10.7c7.6 9.1 15.3 17.9 22.2 25.6 9.6 10.7 18.6 21 20.1 24.8 1.4 3.5.5 5 .1 5.5-1.4 2.1-4.6 3.4-7.2 3.8l-8 1.4 5.4 6.1c1.6 1.7 9.7 10.9 21.3 23.5 2.7 2.9 5.9 7.3 5.2 11.3-.6 3.6-4.1 5.6-4.2 5.8l-2.1 1.4v2.5c0 5.9-2.7 7.6-3.6 8.1-2.3 1.5-5.3 1.6-6.4 1.6H747l-3.2-.3-1.4 2.9c-1.6 3.4-4.3 5.1-8.4 5.1-2.8 0-5.3-.8-5.5-.9l-1.6-.6-1.6.7c-2.4 1-5.1 1.5-8 1.5-9.1 0-20.9-5-34-14.4-10.4-7.6-17.9-15.1-17.9-15.2-.1-.1-10.8-10.8-20.3-21.4l-16.7-17.6 66.3-71.9m-.1-6.5-72.6 78 19.5 20.7c9.6 10.7 20.4 21.4 20.5 21.6.3.3 30.5 31 55.2 31 3.5 0 6.8-.6 9.7-1.8.6.2 3.5 1.2 7.1 1.2 4.1 0 9.5-1.4 12.4-7.7.2 0 .9.1 1.7.1 1.9 0 5.8-.3 8.9-2.3 3.7-2.4 5.6-6.4 5.6-12 .8-.5 5.4-3.5 6.3-8.9.8-4.6-1.4-9.7-6.3-15.1-11.5-12.5-19.7-21.7-21.3-23.5 1.7-.2 7.7-1.6 10.3-6 1.6-2.6 1.7-5.8.2-9.4-1.7-4.6-10.3-14.2-21-26.2-6.9-7.7-14.7-16.5-22.2-25.6l-14-14.1z"/>
            <path d="M630.4 725h-1.8c-.2-.1-4.4-3.5-1.1-16.5 3.2-12.9 14-25.8 14.1-26l.1-.2.2.2c9.6 10.6 20.4 21.4 20.5 21.6l.1.1-.1.1c-.1.2-10.6 20.7-32 20.7z"/>
            <path d="m628.8 725-.2-.1c-17.2-16-37.5-50.9-51.9-88.7-22.6-59.7-19.9-95.9-16.2-112.2 16.2-72.2 128.4-141.5 195.4-155.6h.2l3.3 23-97 142.4c1.2 2 17.5 29.6 46.3 64.5l.1.1v.1c-.1.2-6.9 24.1-37.8 54.1-17.5 16.8-27.8 28.5-29 30 0 0-22.3 26.3-13.2 42.4z" style="fill:#98d8f4"/>
            <path d="M738.8 668.8c-.6 0-1.1-.2-1.6-.7-3.6-3.6-7.4-7.7-10.5-11.1-.8-.9-.8-2.4.2-3.2.9-.8 2.4-.8 3.2.2 2.9 3.3 6.8 7.3 10.3 10.8.9.9.9 2.3 0 3.2-.5.5-1 .8-1.6.8zM760.4 714c-.2 0-.5 0-.8-.1-9.1-3.3-27.2-19.6-53.8-48.5-.8-.9-.8-2.4.1-3.2.9-.8 2.4-.8 3.2.1 32.5 35.4 46.3 45.3 52 47.4 1.1.5 1.8 1.7 1.4 2.9-.3.9-1.2 1.4-2.1 1.4zM745.4 727c-.3 0-.6 0-.9-.2-11.3-4.7-39-30.7-54.3-46.8-.9-.9-.8-2.4.1-3.2.9-.8 2.4-.8 3.2.1 15.1 16 42.7 41.5 52.7 45.7 1.1.5 1.7 1.8 1.2 2.9-.3.9-1.1 1.5-2 1.5zM728.1 733.4c-.2 0-.6 0-.8-.1-11.1-4.2-33.4-22.8-50.6-38.7-.9-.9-1-2.3-.1-3.2.9-.9 2.3-1 3.2-.1 16.1 15 38.7 33.9 49.2 37.8 1.1.5 1.8 1.7 1.4 2.9-.5.9-1.4 1.4-2.3 1.4zM628.3 727.1c-.6 0-1.1-.2-1.6-.6-17.4-16.2-37.9-51.3-52.4-89.5-.5-1.1.1-2.5 1.4-2.9 1.1-.5 2.5.1 2.9 1.4 14.2 37.5 34.3 72 51.2 87.7.9.9 1 2.3.1 3.2-.3.5-1 .7-1.6.7zM708.8 604.1c-.7 0-1.2-.2-1.7-.8-30-36.4-57.4-86.3-57.7-86.8-.6-1.1-.2-2.5.9-3s2.5-.2 3 .9c.2.5 27.4 50 57.2 86.1.8 1 .7 2.4-.3 3.2-.4.3-1 .4-1.4.4z"/>
            <path d="M662.2 536c-.5 0-.9-.1-1.2-.3-1-.7-1.2-2.1-.6-3.2l49.3-72.3c.7-1 2.1-1.2 3.2-.6 1 .7 1.2 2.1.6 3.2L664.1 535c-.4.6-1.2 1-1.9 1zM767.5 458.5c-9.3 0-18.5-1.8-27.1-5.5-15.7-6.8-36.7-22.8-48-61-.3-1.2.3-2.5 1.6-2.8 1.2-.3 2.5.3 2.8 1.6 10.7 36.6 30.6 51.8 45.4 58.1 18.5 7.9 39.5 6.7 59.2-3.4 1.1-.6 2.5-.1 3 1 .6 1.1.1 2.5-1 3-11.7 6-24 9-35.9 9zM594.6 677.9h-.3c-1.2-.1-2.1-1.2-1.9-2.5 1.5-11.7 8.5-24.7 20.8-38.5 4.7-5.3 10.7-11.2 17-17.4 17.5-17.3 39.2-38.6 46.2-60.6.3-1.2 1.7-1.8 2.8-1.5 1.2.3 1.8 1.7 1.5 2.8-7.3 22.9-29.6 44.8-47.3 62.4-6.2 6.1-12.1 12-16.8 17.2-11.7 13.1-18.3 25.2-19.6 36-.3 1.3-1.3 2.1-2.4 2.1z"/>
            <g>
                <path d="m765.7 312.7-33.9-115.2c-3.9-13.3-17.8-20.9-31.1-17-1.7.5-3.3 1.1-4.9 2l-.6.3c-12.2 6.5-16.8 21.8-10.2 34 .8 1.6 1.8 2.9 2.9 4.3l77.8 91.6z"/>
                <path d="M725.2 388.6c-12.4 0-22.6-10.2-22.6-22.6s10.2-22.6 22.6-22.6 22.6 10.2 22.6 22.6c-.2 12.5-10.2 22.6-22.6 22.6z" style="fill:#fff"/>
                <path d="M725.2 345.8c11.2 0 20.3 9.1 20.3 20.3 0 11.2-9.1 20.3-20.3 20.3-11.2 0-20.3-9.1-20.3-20.3-.1-11.1 9.1-20.3 20.3-20.3m0-4.5c-13.7 0-24.8 11.1-24.8 24.8 0 13.7 11.1 24.8 24.8 24.8s24.8-11.1 24.8-24.8c-.1-13.7-11.2-24.8-24.8-24.8z"/>
                <path d="M771.5 409.3c-13 0-23.7-9.4-30-26.4-18.6-50.1-9.6-68.4 10.9-81.7.1-.1 16.9-10.4 36.4-10.4 9 0 17.3 2.3 24.6 6.5 15.6 9.4 16.7 40.6 2.7 72.8-10.3 23.9-27.7 39.2-44.6 39.2z" style="fill:#fff"/>
                <path d="M788.9 293.1c8.6 0 16.5 2.1 23.4 6.2 6.7 3.9 10.6 12.9 11.3 25.2.7 13.2-2.7 29.1-9.5 44.8-9.9 22.9-26.7 37.8-42.5 37.8-12 0-21.9-8.8-27.9-24.9-18.1-48.6-9.6-66.4 10-79 .7-.5 16.7-10.1 35.2-10.1m0-4.5c-20.4 0-37.6 10.7-37.6 10.7-23 14.9-29.8 36-11.8 84.4 7.1 19.2 19.2 27.9 32 27.9 17 0 35.7-15 46.7-40.5 14.7-33.9 12.6-65.8-3.6-75.6-8.4-5.1-17.3-6.9-25.7-6.9z"/>
                <path d="M796.8 366.2c-.9 0-1.7-.6-2.1-1.5-.5-1.1.1-2.5 1.2-2.9 1.2-.5 2.4-1.5 3.2-2.6 1.1-1.9 1.6-7 1.2-16.8 0-1.2.9-2.3 2.1-2.4 1.2 0 2.3.9 2.4 2.1.3 11.1-.1 16.4-1.9 19.3-1.4 2-3.2 3.6-5.3 4.4-.2.4-.6.4-.8.4zM785.2 349.6h-.2c-1.2-.1-2.1-1.2-2-2.5l.2-2.6c.1-1.2 1.2-2.1 2.5-2 1.2.1 2.1 1.2 2 2.5l-.2 2.6c-.2 1.1-1.2 2-2.3 2zM814.2 345.7h-.2c-1.2-.1-2.1-1.2-2-2.5l.2-2.6c.1-1.2 1.2-2.1 2.5-2 1.2.1 2.1 1.2 2 2.5l-.2 2.6c-.2 1.1-1.2 2-2.3 2zM787.6 378.6c-2.9-.1-5.5-1.2-7.4-3.4-1.9-2.1-2.9-4.9-2.8-7.7.1-1.2 1.1-2.1 2.4-2.1 1.2.1 2.3 1.1 2.1 2.4-.1 1.7.5 3.3 1.6 4.4 1.1 1.2 2.6 1.8 4.2 1.9.5 0 .8 0 1.1-.1 1.2-.2 2.4.6 2.7 1.8.2 1.2-.6 2.4-1.8 2.7-.9.1-1.6.1-2.1.1z"/>
                <g>
                    <path d="M720.9 370.8c-1 0-1.9-.7-2.1-1.7-.3-1.2.5-2.5 1.7-2.7l14.1-3.5c1.2-.3 2.5.5 2.7 1.7.3 1.2-.5 2.5-1.7 2.7l-14.1 3.5h-.6z"/>
                </g>
                <path d="M814.5 295.5c7.3 4.4 11.7 13.2 13.1 24.7-15 10-49.2 1.8-65-12.6.1 50.3-26.4 67.4-26.4 67.4-14-42.3-6.7-61.6 14.9-75.6.1-.1 34.4-21.4 63.4-3.9z"/>
            </g>
        </g>
    </g>
    <g>
        <path d="M533.9 615.8c-21 0-58.5-14.7-79.2-23.6l-9.7-9.3 31.5-85.2 14.3 5.3c45 24.6 56.9 32 58.9 33.9 2.5 2.3 3.7 4.5 3.4 6.6-.5 3.5-4.8 6.1-5.6 6.5l-3.2 1.8 3.2 1.7c2.1 1.1 12.9 7.1 20.6 12.2 3.5 2.3 5.6 5.9 5.7 9.6 0 3-1.3 5.7-3.7 7.4l-1.7 1.3 1.4 1.6c2.3 2.7 3 5.7 1.9 8.6-1 2.8-3.7 5-6.6 5.5l-1.4.2-.2 1.4c-1.1 7.5-7.2 9.1-12.1 9.1-1.5 0-2.6-.2-2.9-.2l-1.4-.2-.7 1.2c-1.7 3.1-5.9 4.6-12.5 4.6z" style="fill:#fff"/>
        <path d="m477.6 500.3 12.3 4.5c47.1 25.8 56.8 32.1 58.4 33.5 1.4 1.3 3 3.1 2.8 4.9-.3 2.2-3 4.2-4.6 5.1l-6.4 3.5 6.4 3.5c2.1 1.1 12.8 7 20.4 12.1 3 2 4.8 4.9 4.8 7.9 0 2.3-1 4.4-2.9 5.8l-3.4 2.5 2.8 3.3c1.9 2.2 2.4 4.4 1.6 6.6-.8 2.1-2.9 3.9-5 4.2l-2.9.5-.4 2.9c-.3 1.8-1.1 7.4-10.1 7.4-1.4 0-2.3-.1-2.6-.2l-2.8-.5-1.4 2.5c-1.2 2.2-5 3.4-10.7 3.4-20.6 0-57.5-14.5-78.1-23.3l-8.5-8.1 30.3-82m-2.4-5.1-32.6 88.3 10.9 10.4c20.8 8.9 58.9 23.9 80.4 23.9 7.4 0 12.2-1.9 14.2-5.5.4.1 1.6.2 3.2.2 4.6 0 12.6-1.4 14-10.8 3.6-.6 6.8-3.3 8.1-6.8s.5-7.3-2.3-10.6c2.9-2.2 4.5-5.5 4.5-9.1-.1-4.3-2.5-8.5-6.6-11.2-7.7-5.2-18.7-11.2-20.7-12.3 1.3-.7 6-3.6 6.6-8 .4-2.8-1-5.6-4-8.4-3.1-2.8-23.1-14.3-59.4-34.2l-16.3-5.9z"/>
        <path d="M453.5 593.9c-18.5-8-43.2-19.2-51.9-24.7-1.3-.8-2.7-1.7-4.1-2.6-26-16.1-69.6-43-69.6-87.5 0-20.8 11.1-45.2 32-70.5 19.9-24 47.3-46.9 77.2-64.5l.2-.1.1.3c15.7 59-9.8 117.8-11.4 121.4 2.6 1.4 34.8 18.6 65.7 35.5l.2.1-38 92.7-.4-.1z" style="fill:#f9494b"/>
        <path d="M425.6 467.8c-.3 0-.6-.1-.9-.2l-24.6-12c-1-.5-1.4-1.7-.9-2.7s1.7-1.4 2.7-.9l24.6 12c1 .5 1.4 1.7.9 2.7-.3.7-1.1 1.1-1.8 1.1zM544.8 554c-.3 0-.6-.1-.9-.2l-15.1-7.8c-1-.5-1.4-1.7-.9-2.7s1.7-1.4 2.7-.9l15.1 7.8c1 .5 1.4 1.7.9 2.7-.4.7-1.1 1.1-1.8 1.1zM568.1 586.3c-.2 0-.4 0-.6-.1-15.3-4.8-63.3-28.7-65.3-29.7-1-.5-1.4-1.7-.9-2.7s1.7-1.4 2.7-.9c.5.2 49.7 24.8 64.7 29.5 1.1.3 1.6 1.5 1.3 2.5-.3.9-1 1.4-1.9 1.4zM563.3 602.6c-.2 0-.3 0-.5-.1-.3-.1-29.4-8-68.3-27.8-1-.5-1.4-1.7-.9-2.7s1.7-1.4 2.7-.9c38.5 19.7 67.2 27.5 67.5 27.5 1.1.3 1.7 1.4 1.4 2.5-.2.9-1 1.5-1.9 1.5zM547 612.2c-.2 0-.4 0-.6-.1-20.1-6-39.8-13.9-58.5-23.5-1-.5-1.4-1.7-.9-2.7s1.7-1.4 2.7-.9c18.5 9.5 38 17.3 57.9 23.3 1.1.3 1.7 1.4 1.3 2.5-.2.8-1 1.4-1.9 1.4zM413.3 577.3c-.3 0-.5-.1-.8-.2-1-.4-1.5-1.6-1.1-2.6l40.3-94.8c.4-1 1.6-1.5 2.6-1.1s1.5 1.6 1.1 2.6l-40.3 94.9c-.3.7-1 1.2-1.8 1.2z"/>
        <path d="M486 514.7c-.3 0-.6-.1-.9-.2l-37.3-20.1c-1-.5-1.3-1.7-.8-2.7s1.7-1.3 2.7-.8L487 511c1 .5 1.3 1.7.8 2.7-.4.6-1.1 1-1.8 1zM458.1 583.5c-.3 0-.6-.1-.9-.2l-38.3-19.1c-1-.5-1.4-1.7-.9-2.7s1.7-1.4 2.7-.9l38.3 19.1c1 .5 1.4 1.7.9 2.7-.4.7-1.1 1.1-1.8 1.1zM476.6 537.2c-.3 0-.6-.1-.9-.2l-37.3-20.1c-1-.5-1.3-1.7-.8-2.7s1.7-1.3 2.7-.8l37.3 20.1c1 .5 1.3 1.7.8 2.7-.4.6-1.1 1-1.8 1zM466.6 562.5c-.3 0-.6-.1-.9-.2l-37.3-20c-1-.5-1.3-1.7-.8-2.7s1.7-1.3 2.7-.8l37.3 20c1 .5 1.3 1.7.8 2.7-.4.6-1.1 1-1.8 1z"/>
        <g>
            <path d="M453.6 595.7c-.3 0-.5 0-.8-.2-1-.4-1.5-1.6-1.1-2.6l37.9-92.3c.4-1 1.6-1.5 2.6-1.1s1.5 1.6 1.1 2.6l-37.8 92.4c-.4.7-1.1 1.2-1.9 1.2z"/>
        </g>
    </g>
</svg>
